<?xml version="1.0" standalone="no"?>
<!DOCTYPE svg PUBLIC "-//W3C//DTD SVG 1.1//EN" "http://www.w3.org/Graphics/SVG/1.1/DTD/svg11.dtd" >
<svg>
<metadata>
Created by FontForge 20090914 at Tue May 22 07:28:42 2012
 By www-data
Copyright (c) 2000, Modular Infotech, Pune, INDIA. Licence to ABP Pvt. Ltd., Kolkata
</metadata>
<defs>
<font id="SHREE-BAN-OTF-0592" horiz-adv-x="0" >
  <font-face 
    font-family="SHREE_BAN_OTF_0592"
    font-weight="400"
    font-stretch="normal"
    units-per-em="1000"
    panose-1="2 0 6 0 0 0 0 0 0 0"
    ascent="720"
    descent="-280"
    x-height="392"
    cap-height="576"
    bbox="-442 -345 998 786"
    underline-thickness="20"
    underline-position="-305"
    unicode-range="U+0020-U+25CC"
  />
<missing-glyph horiz-adv-x="800" 
d="M100 0v700h600v-700h-600zM150 50h500v600h-500v-600z" />
    <glyph glyph-name=".notdef" horiz-adv-x="800" 
d="M100 0v700h600v-700h-600zM150 50h500v600h-500v-600z" />
    <glyph glyph-name="NULL" 
 />
    <glyph glyph-name="nonmarkingreturn" 
 />
    <glyph glyph-name="space" unicode=" " horiz-adv-x="220" 
 />
    <glyph glyph-name="uni0981.001" unicode="&#x981;" 
d="M-212 734h20q5 -31 34 -51t68 -20t68 20t34 51h21q0 -51 -36 -86.5t-87 -35.5t-86.5 35.5t-35.5 86.5zM-130 734l40 41l41 -41l-41 -41z" />
    <glyph glyph-name="uni0982" unicode="&#x982;" horiz-adv-x="281" 
d="M26 418q0 42 30 72t72 30t72 -30t30 -72t-30 -72t-72 -30t-72 30t-30 72zM66 387q0 -12 9 -21t22 -9q38 0 65 23.5t27 57.5q0 13 -12 22t-29 9q-34 0 -58 -24t-24 -58zM36 214l30 61q66 -46 122.5 -129.5t97.5 -196.5l-16 -10q-48 103 -108.5 173.5t-125.5 101.5z" />
    <glyph glyph-name="uni0983" unicode="&#x983;" horiz-adv-x="344" 
d="M70 112q0 42 30 72t72 30t72 -30t30 -72t-30 -72t-72 -30t-72 30t-30 72zM111 81q0 -12 9 -21t22 -9q38 0 65 23.5t27 57.5q0 13 -12 22t-29 9q-34 0 -58 -24t-24 -58zM70 418q0 42 30 72t72 30t72 -30t30 -72t-30 -72t-72 -30t-72 30t-30 72zM111 387q0 -12 9 -21t22 -9
q38 0 65 23.5t27 57.5q0 13 -12 22t-29 9q-34 0 -58 -24t-24 -58z" />
    <glyph glyph-name="uni0985" unicode="&#x985;" horiz-adv-x="590" 
d="M-45 520h610l35 -41h-80v-515l-20 26q0 66 -27 124.5t-75 99.5q-15 -41 -50 -66.5t-78 -25.5q-75 0 -146 90t-109 232l21 -16q39 -108 103.5 -173.5t130.5 -65.5q44 0 75.5 33t31.5 79q0 33 -24.5 59t-61.5 33q2 -5 3.5 -11t1.5 -13q0 -29 -20.5 -50t-49.5 -21
t-49.5 20.5t-20.5 49.5t21.5 49.5t52.5 20.5q-4 11 -19 22t-38 19h-183zM245 479q0 -12 5 -22.5t15 -18.5q62 -11 102.5 -58.5t40.5 -109.5q23 -20 41.5 -52.5t29.5 -74.5v336h-234z" />
    <glyph glyph-name="uni0986" unicode="&#x986;" horiz-adv-x="774" 
d="M-56 520h656q19 0 38 -25.5t30 -66.5v153h10l26 -51v-10h36l45 -41h-81v-510l-41 41v337q0 49 -17.5 85.5t-45.5 46.5h-80v-515l-20 26q0 66 -27 124.5t-75 99.5q-15 -41 -50 -66.5t-78 -25.5q-75 0 -146 90t-109 232l21 -16q39 -108 103.5 -173.5t130.5 -65.5
q44 0 75.5 33t31.5 79q0 33 -24.5 59t-61.5 33q2 -5 3.5 -11.5t1.5 -14.5q0 -25 -19.5 -43t-46.5 -18q-28 0 -47.5 19.5t-19.5 46.5t19.5 46.5t47.5 19.5q-4 11 -19 22t-38 19h-183zM245 479q0 -12 5 -22.5t15 -18.5q62 -11 102.5 -58.5t40.5 -109.5q23 -20 41.5 -52.5
t29.5 -74.5v336h-234z" />
    <glyph glyph-name="uni0987" unicode="&#x987;" horiz-adv-x="411" 
d="M-45 520h325q10 0 17.5 7.5t7.5 18.5q0 14 -19.5 24.5t-46.5 10.5q-31 0 -92 -5t-92 -5q-42 0 -72 30t-30 72q0 17 6.5 34t19.5 32l21 -10q-10 -7 -15.5 -19t-5.5 -27q0 -23 15 -39.5t36 -16.5q32 0 94.5 7.5t94.5 7.5q46 0 79 -26.5t33 -64.5q0 -13 8 -22t19 -9h28
l35 -41h-229q10 -14 15 -25.5t5 -20.5q65 0 111.5 -40t46.5 -97q0 -54 -47.5 -97t-120.5 -56q81 -38 150.5 -97.5t124.5 -137.5h-20q-77 91 -180 148t-218 71l-41 107q15 -17 52.5 -26t90.5 -9q65 0 111.5 38.5t46.5 93.5q0 23 -22.5 39.5t-53.5 16.5q-12 0 -22.5 -5
t-18.5 -15q-6 -36 -29.5 -59t-52.5 -23q-27 0 -46.5 18t-19.5 44q0 36 37.5 61t90.5 25q0 15 -13 28t-33 18h-146z" />
    <glyph glyph-name="uni0988" unicode="&#x988;" horiz-adv-x="474" 
d="M-45 520h385q10 0 17.5 7.5t7.5 18.5q0 14 -19.5 24.5t-46.5 10.5q-31 0 -92 -5t-92 -5q-42 0 -72 30t-30 72q0 17 6.5 34t19.5 32l21 -10q-10 -7 -15.5 -19t-5.5 -27q0 -23 15 -39.5t36 -16.5q32 0 94.5 7.5t94.5 7.5q46 0 79 -26.5t33 -64.5q0 -13 8 -22t19 -9h31
l35 -41h-369q10 -8 15.5 -19t5.5 -22q53 0 90 -33t37 -79q32 38 67 65t71 42l63 -55q-54 -39 -84 -90.5t-30 -104.5q0 -65 7.5 -119t22.5 -95l-20 10q-20 56 -30.5 107.5t-10.5 96.5q0 36 9 72t27 71q-85 -109 -132.5 -156.5t-81.5 -47.5q-36 0 -61.5 34.5t-25.5 83.5l20 5
q4 -20 15.5 -33t25.5 -13q28 0 70 48t42 79q0 21 -19.5 36t-46.5 15q6 -34 -14 -60.5t-52 -26.5q-29 0 -50 20t-21 48q0 29 23 51.5t58 28.5q0 7 -11.5 16t-39.5 25h-64z" />
    <glyph glyph-name="uni0989" unicode="&#x989;" horiz-adv-x="483" 
d="M-45 520h395q10 0 17.5 7.5t7.5 18.5q0 14 -19.5 24.5t-46.5 10.5q-31 0 -92 -5t-92 -5q-42 0 -72 30t-30 72q0 17 6.5 34t19.5 32l21 -10q-10 -7 -15.5 -19t-5.5 -27q0 -23 15 -39.5t36 -16.5q32 0 94.5 7.5t94.5 7.5q46 0 79 -26.5t33 -64.5q0 -13 8 -22t19 -9h30
l35 -41h-255v-173q0 -9 4.5 -15t10.5 -6q27 0 58.5 27.5t58.5 74.5q38 -22 60 -63t22 -90q0 -72 -51 -122.5t-123 -50.5q-94 0 -167.5 107t-87.5 265l21 -20q15 -125 82 -208t152 -83q61 0 104.5 39t43.5 94q0 20 -8 36.5t-22 24.5q-26 -45 -60.5 -71t-67.5 -26
q-21 0 -46 38t-25 69v153h-207z" />
    <glyph glyph-name="uni098A" unicode="&#x98a;" horiz-adv-x="539" 
d="M-45 520h464q10 0 17.5 7.5t7.5 18.5q0 14 -19.5 24.5t-46.5 10.5q-31 0 -92 -5t-92 -5q-42 0 -72 30t-30 72q0 17 6.5 34t19.5 32l21 -10q-10 -7 -15.5 -19t-5.5 -27q0 -23 15 -39.5t36 -16.5q32 0 94.5 7.5t94.5 7.5q46 0 79 -26.5t33 -64.5q0 -13 8 -22t19 -9h17
l35 -41h-246v-173q0 -11 4.5 -18.5t10.5 -7.5q21 0 49.5 28.5t57.5 78.5q38 -22 60 -63t22 -90q0 -83 -55.5 -133t-148.5 -50q-114 0 -194.5 113.5t-80.5 273.5l20 -20q0 -119 59.5 -210t154.5 -116v5q-71 45 -112 136t-41 205l21 -20q11 -128 71 -214.5t138 -86.5
q59 0 100.5 40.5t41.5 97.5q0 17 -6.5 34.5t-19.5 32.5q-36 -51 -68 -79.5t-53 -28.5t-46.5 36.5t-25.5 65.5v163h-272z" />
    <glyph glyph-name="uni098B" unicode="&#x98b;" horiz-adv-x="581" 
d="M13 428q0 25 18 43t43 18q18 0 33.5 -8t23.5 -22q21 6 38.5 30.5t27.5 61.5q24 -47 59.5 -74.5t72.5 -27.5v122h8l33 -46v-229q13 -7 26 -28.5t25 -53.5v367h10l31 -46v-15h94l35 -41h-129v-449l-20 31q0 59 -19 107t-53 77v-276l-20 21q0 83 -69.5 149t-175.5 85l-41 67
l235 132q-27 4 -50.5 17.5t-41.5 33.5q-18 -48 -54.5 -77.5t-78.5 -29.5q-25 0 -43 18t-18 43zM154 274q58 -21 103 -63t72 -99v265z" />
    <glyph glyph-name="uni098C" unicode="&#x98c;" horiz-adv-x="450" 
d="M42 109q0 60 38 103t91 43q65 0 111.5 -49t46.5 -119q22 8 35.5 31t13.5 52q0 78 -176 154.5t-176 154.5q0 50 50.5 50t50.5 -50q0 -19 -3 -31.5t-9 -17.5q29 -29 69 -53.5t90 -43.5q67 -26 107.5 -71.5t40.5 -94.5q0 -66 -42 -112.5t-102 -46.5q0 88 -35 150.5t-84 62.5
q-27 0 -46.5 -23t-19.5 -55q0 -14 4 -28t12 -28q9 8 18 12t16 4q21 0 36 -14.5t15 -35.5q0 -23 -18.5 -39.5t-44.5 -16.5q-37 0 -63 33t-26 79z" />
    <glyph glyph-name="uni098F" unicode="&#x98f;" horiz-adv-x="528" 
d="M458 -31l-20 26q0 46 -27 79t-65 33q-22 0 -66.5 -5.5t-66.5 -5.5q-76 0 -129.5 49.5t-53.5 119.5q0 33 9 63t26 54l16 -15q-10 -15 -15.5 -33t-5.5 -38q0 -55 33 -94t79 -39q22 0 66.5 5t66.5 5q33 0 62.5 -16t49.5 -45v326q0 13 -6 22t-14 9q-35 0 -89 -46t-54 -76
q0 -8 1 -13t2 -8q3 5 10.5 7.5t17.5 2.5q21 0 36 -15t15 -36q0 -27 -18 -46.5t-44 -19.5q-38 0 -64.5 31.5t-26.5 75.5q0 48 72.5 121t120.5 73q24 0 53 -25t29 -46v-480z" />
    <glyph glyph-name="uni0990" unicode="&#x990;" horiz-adv-x="550" 
d="M457 -31l-20 21q0 48 -27 82.5t-65 34.5q-22 0 -66.5 -7.5t-66.5 -7.5q-76 0 -129.5 50.5t-53.5 122.5q0 30 9 59t26 53l16 -10q-10 -18 -15.5 -40t-5.5 -47q0 -51 31.5 -86.5t75.5 -35.5q26 0 76.5 7.5t76.5 7.5q28 0 54.5 -20.5t42.5 -55.5v341q0 13 -6 22t-14 9
q-35 0 -88 -47.5t-53 -78.5v-8.5t1 -8.5q3 5 10.5 7.5t17.5 2.5q21 0 36 -15t15 -36q0 -27 -18 -46.5t-44 -19.5q-38 0 -64.5 25.5t-26.5 61.5q0 57 70.5 135.5t122.5 78.5q24 0 53 -25t29 -46v-46q23 0 39.5 16.5t16.5 39.5q0 36 -47 71.5t-121 55.5q-77 21 -125.5 53.5
t-48.5 64.5q0 21 8 40t23 31l41 -10q-21 -8 -33.5 -20.5t-12.5 -25.5q0 -24 44.5 -42t144.5 -45q68 -18 110.5 -63.5t42.5 -99.5q0 -32 -11 -56.5t-30 -35.5t-30 -24.5t-11 -26.5v-357z" />
    <glyph glyph-name="uni0993" unicode="&#x993;" horiz-adv-x="534" 
d="M496 204q0 -59 -39 -101t-94 -42q-114 0 -211 107.5t-136 275.5l29 -26q34 -127 117 -206.5t181 -79.5q48 0 82.5 25.5t34.5 61.5q0 19 -9.5 35t-26.5 26q-7 -14 -21 -22t-30 -8q-25 0 -43 18t-18 43t18 43t43 18q9 0 18.5 -5t17.5 -15q17 12 26.5 32t9.5 44q0 21 -21 36
t-51 15q-43 0 -81 -23t-61 -63q18 -5 29 -21t11 -36q0 -21 -15 -36t-36 -15q-27 0 -46.5 21t-19.5 51q0 68 58.5 115.5t140.5 47.5q51 0 86.5 -27t35.5 -66q0 -34 -15 -62.5t-41 -45.5q35 -14 56 -45.5t21 -69.5z" />
    <glyph glyph-name="uni0994" unicode="&#x994;" horiz-adv-x="553" 
d="M502 189q0 -53 -42 -90.5t-101 -37.5q-110 0 -206 110t-136 283l28 -21q35 -131 118.5 -213t180.5 -82q46 0 79 23.5t33 57.5q0 19 -8 36.5t-23 29.5q-8 -14 -21.5 -22.5t-29.5 -8.5q-25 0 -43 18t-18 43q0 26 18 44t43 18q11 0 20.5 -4t15.5 -11q17 12 26.5 29.5
t9.5 36.5q0 21 -21 36t-51 15q-52 0 -93 -25t-57 -67q20 0 34 -15t14 -36t-15 -36t-36 -15q-27 0 -46.5 21t-19.5 51q0 68 58.5 115.5t140.5 47.5q48 0 82.5 -28.5t34.5 -68.5q0 -15 -10 -33t-29 -37l3 -6q31 14 49 46t18 71q0 40 -44 77t-114 56q-88 16 -146 49t-58 68
q0 20 8 36.5t22 24.5l19 -14q-9 -3 -14 -12.5t-5 -22.5q0 -37 101.5 -64t113.5 -30q63 -17 102.5 -57t39.5 -86q0 -58 -27 -105.5t-72 -69.5q34 -18 54 -51.5t20 -73.5z" />
    <glyph glyph-name="uni0995" unicode="&#x995;" horiz-adv-x="537" 
d="M-45 520h557l35 -41h-221v-41q76 0 130 -50.5t54 -122.5q0 -42 -22 -72t-53 -30q-24 0 -40.5 15t-16.5 36t15 36t36 15q15 0 27 -6.5t19 -18.5q9 54 -36 95.5t-113 41.5v-418l-20 20q-17 96 -84.5 165t-160.5 85l-51 62q95 72 166 109.5t110 37.5v41h-296zM92 275
q65 -17 116 -68t78 -124v294q-29 0 -78.5 -26t-115.5 -76z" />
    <glyph glyph-name="uni0996" unicode="&#x996;" horiz-adv-x="454" 
d="M10 449q0 21 15.5 36t37.5 15q17 0 29 -13.5t12 -32.5q27 0 53 17.5t44 48.5q47 -22 74.5 -58t27.5 -75q0 -41 -36 -74t-92 -43q56 -26 99.5 -70t69.5 -100v481h10l30 -51v-10h45l35 -41h-80v-520l-20 20q-9 99 -81.5 173t-178.5 93l-46 61q87 0 148 33t61 79
q0 16 -6.5 29.5t-18.5 21.5q-35 -41 -75 -64t-78 -23q-33 0 -56 19.5t-23 47.5z" />
    <glyph glyph-name="uni0997" unicode="&#x997;" horiz-adv-x="470" 
d="M22 367q0 63 51 108t123 45q44 0 88.5 -38t74.5 -103v202h10l31 -51v-10h45l35 -41h-80v-515l-41 46v306q-11 64 -57.5 106t-105.5 42q-47 0 -78 -29.5t-24 -67.5q12 10 26.5 15t30.5 5q46 0 78.5 -35.5t32.5 -86.5q0 -35 -21 -74.5t-60 -78.5l-57 51q44 44 68 84t24 69
q0 13 -12 22t-29 9q-21 0 -56 -25.5t-56 -25.5q-17 0 -29 21t-12 50z" />
    <glyph glyph-name="uni0998" unicode="&#x998;" horiz-adv-x="425" 
d="M-45 520h445l35 -41h-80v-515l-20 20q-15 85 -80.5 143.5t-154.5 66.5l-51 61l92 81q-51 0 -87 27t-36 65q0 16 5.5 29.5t15.5 21.5h-49zM141 479q-22 -4 -36.5 -18.5t-14.5 -32.5q0 -25 23.5 -43t57.5 -18l51 46l41 -44l-132 -129q60 -16 108 -56.5t75 -98.5v394h-173z
" />
    <glyph glyph-name="uni0999" unicode="&#x999;" horiz-adv-x="469" 
d="M52 500l51 20q8 -30 32 -56t60 -43q22 48 54 76t63 28q32 0 54.5 -22.5t22.5 -53.5q0 -38 -36 -65t-87 -27q-17 0 -32.5 2.5t-29.5 7.5q-2 9 -5.5 -12.5t-3.5 -38.5q0 -34 15 -58t36 -24q20 0 42 28t39 74q52 -24 82.5 -68.5t30.5 -94.5q0 -59 -48 -101t-116 -42
q-101 0 -172.5 121.5t-71.5 292.5l25 -26q0 -135 64 -230.5t155 -95.5q55 0 94 31.5t39 75.5q0 22 -12.5 40t-33.5 26q-20 -42 -46 -67t-51 -25q-40 0 -68.5 42t-28.5 101q0 13 3 30t8 37q-40 19 -73 49t-55 68zM215 408q14 -5 24 -7.5t17 -2.5q38 0 65 16.5t27 39.5
q0 10 -12 17.5t-29 7.5q-30 0 -55 -19.5t-37 -51.5z" />
    <glyph glyph-name="uni099A" unicode="&#x99a;" horiz-adv-x="362" 
d="M-45 520h382l35 -41h-269q3 -36 34 -65t78 -42q54 -15 88.5 -43t34.5 -59q0 -63 -69 -159t-115 -96q-27 0 -59.5 45.5t-32.5 82.5v336h-72zM103 112q0 -25 12 -43t29 -18q38 0 95.5 88t57.5 146q-69 18 -119.5 53t-74.5 80v-306z" />
    <glyph glyph-name="uni099B" unicode="&#x99b;" horiz-adv-x="419" 
d="M-45 520h439l35 -41h-346q5 -31 37 -51t75 -20h41q57 0 97 -33t40 -79q0 -62 -43.5 -109.5t-109.5 -59.5q70 -21 137 -75t123 -134l-20 -5q-75 90 -171.5 139.5t-195.5 49.5l-46 81q14 -10 36 -15t51 -5q68 0 130.5 46.5t62.5 96.5q0 27 -21 46.5t-50 19.5
q0 -46 -51 -102t-92 -56q-21 0 -46 29t-25 53v183h-52zM83 285q0 -6 7 -13t13 -7q27 5 59.5 39.5t32.5 57.5q-38 0 -68.5 21t-43.5 56v-154z" />
    <glyph glyph-name="uni099C" unicode="&#x99c;" horiz-adv-x="557" 
d="M-45 520h577l35 -41h-308q22 -47 53.5 -74.5t63.5 -27.5q26 0 50.5 8t46.5 23l71 -61q-42 -50 -64 -108t-22 -117q0 -31 8.5 -69.5t24.5 -83.5l-23 15q-23 39 -34.5 84.5t-11.5 94.5q0 44 14 91t42 95q-18 -6 -34.5 -9.5t-31.5 -3.5q-51 0 -94 28t-65 75
q-41 -34 -63.5 -62.5t-22.5 -45.5q0 -14 13.5 -24.5t32.5 -10.5q17 0 40.5 10t51.5 30q35 -20 55.5 -51.5t20.5 -65.5q0 -55 -38.5 -93.5t-93.5 -38.5q-91 0 -155.5 106t-64.5 256l23 -26q0 -114 57.5 -194.5t139.5 -80.5q42 0 72 22.5t30 53.5q0 16 -5.5 28t-15.5 18
q-21 -17 -46 -26.5t-51 -9.5q-31 0 -69 47.5t-38 85.5q0 23 20 52t57 60h-213z" />
    <glyph glyph-name="uni099D" unicode="&#x99d;" horiz-adv-x="516" 
d="M-45 520h373v-240q23 -16 44.5 -47t38.5 -74l-1 422h10l31 -51v-10h40l35 -41h-75v-438l-21 20q0 44 -27.5 85t-74.5 68v-245l-20 15q-9 98 -78 167t-167 78l-51 77q70 53 140 89t136 54v30h-298zM79 275q73 -19 127.5 -63t81.5 -104v285q-46 -15 -98.5 -44.5
t-110.5 -73.5z" />
    <glyph glyph-name="uni099E" unicode="&#x99e;" horiz-adv-x="741" 
d="M459 -31l-20 15q0 49 -27 83.5t-65 34.5q-26 0 -79 -2.5t-79 -2.5q-65 0 -111.5 49t-46.5 119q0 33 9 63t26 54l16 -15q-10 -12 -15.5 -30.5t-5.5 -40.5q0 -57 30 -97.5t72 -40.5q24 0 71.5 2.5t71.5 2.5q36 0 66.5 -19.5t45.5 -52.5v347q0 15 -6 25.5t-14 10.5
q-35 0 -89 -48t-54 -79q0 -8 2 -13.5t6 -7.5q3 5 9 7.5t14 2.5q21 0 36 -15t15 -36q0 -27 -18 -46.5t-44 -19.5q-38 0 -64.5 25.5t-26.5 61.5q0 57 78.5 135.5t135.5 78.5q18 0 39.5 -25t21.5 -46v-76q37 64 78 100.5t75 36.5q36 0 61.5 -30t25.5 -72q0 -27 -13.5 -52
t-37.5 -42q24 -17 37.5 -40.5t13.5 -49.5q0 -42 -25.5 -72t-61.5 -30q-31 0 -72 39.5t-81 108.5v-301zM459 316q22 -60 64 -96.5t89 -36.5q23 0 39.5 15t16.5 36q0 19 -6.5 34t-18.5 23q-10 -17 -23.5 -26.5t-27.5 -9.5q-26 0 -44 18t-18 43t18 43t44 18q15 0 28.5 -11
t22.5 -30q12 8 18.5 24.5t6.5 37.5t-16.5 36t-39.5 15q-47 0 -89 -36.5t-64 -96.5z" />
    <glyph glyph-name="uni099F" unicode="&#x99f;" horiz-adv-x="377" 
d="M-10 479l-35 41h304q10 0 17.5 7.5t7.5 18.5q0 14 -19.5 24.5t-46.5 10.5t-82 -5t-82 -5q-42 0 -72 30t-30 72q0 17 6.5 34t19.5 32l21 -10q-10 -7 -15.5 -19t-5.5 -27q0 -21 15 -36t36 -15q28 0 84.5 5t84.5 5q46 0 79 -26.5t33 -64.5q0 -13 8 -22t19 -9h15l35 -41h-283
v-357q0 -23 13.5 -39.5t32.5 -16.5q41 0 87 60t46 114q-30 -5 -53.5 13.5t-23.5 47.5q0 23 19.5 39.5t46.5 16.5q32 0 54.5 -30t22.5 -72q0 -71 -69 -158t-125 -87q-23 0 -57.5 42t-34.5 70v357h-73z" />
    <glyph glyph-name="uni09A0" unicode="&#x9a0;" horiz-adv-x="344" 
d="M-45 520h172q-52 57 -79.5 103.5t-27.5 75.5q0 22 11 42.5t30 33.5l61 -31q-30 -11 -48 -27.5t-18 -33.5q0 -24 25 -65.5t72 -97.5h166l35 -41h-170q59 -70 90.5 -136t31.5 -119q0 -87 -43.5 -148t-104.5 -61q-57 0 -97.5 51t-40.5 123q62 23 100 79t38 125q0 15 -5 37
t-15 49h-148zM61 148q0 -42 24 -72t58 -30q53 0 90 57t37 137q0 46 -26 107t-76 132h-5q10 -29 15.5 -50t5.5 -34q0 -95 -34.5 -163.5t-88.5 -83.5z" />
    <glyph glyph-name="uni09A1" unicode="&#x9a1;" horiz-adv-x="487" 
d="M-45 520h507l35 -41h-258v-173q0 -15 4.5 -25.5t10.5 -10.5q24 0 55.5 30t61.5 82q38 -22 60 -61.5t22 -86.5q0 -89 -51 -151.5t-123 -62.5q-94 0 -167.5 109t-87.5 269l21 -21q16 -129 83 -215t151 -86q61 0 104.5 51t43.5 123q0 26 -6.5 46t-18.5 30
q-29 -50 -64.5 -78.5t-68.5 -28.5q-21 0 -46 38t-25 69v153h-208z" />
    <glyph glyph-name="uni09A2" unicode="&#x9a2;" horiz-adv-x="370" 
d="M345 520l35 -41h-279v-331q0 -19 19 -48t32 -29q46 0 92 56.5t46 112.5q-5 -8 -14.5 -12t-21.5 -4q-21 0 -36 16.5t-15 39.5q0 26 19.5 44t46.5 18q30 0 51 -30t21 -72q0 -74 -61.5 -149.5t-122.5 -75.5q-24 0 -60.5 50t-36.5 83v331h-70l-35 41h390z" />
    <glyph glyph-name="uni09A3" unicode="&#x9a3;" horiz-adv-x="412" 
d="M26 367q0 63 41.5 108t100.5 45q43 0 80.5 -39t53.5 -100l-1 200h10l31 -51v-10h45l35 -41h-80v-510l-41 41v296q0 63 -35.5 108t-86.5 45q-49 0 -83.5 -27t-34.5 -65q0 -28 17.5 -48.5t43.5 -22.5q-2 4 -3.5 9.5t-1.5 10.5q0 21 13.5 36t32.5 15q23 0 39.5 -18t16.5 -43
q0 -30 -23.5 -51t-57.5 -21q-46 0 -79 39t-33 94z" />
    <glyph glyph-name="uni09A4" unicode="&#x9a4;" horiz-adv-x="516" 
d="M-45 520h536l35 -41h-536zM206 326q0 44 35.5 75.5t86.5 31.5q63 0 108 -58.5t45 -140.5q0 -76 -47.5 -129.5t-115.5 -53.5q-92 0 -176.5 110t-124.5 283l26 -21q36 -133 111 -217t159 -84q59 0 101 43.5t42 104.5q0 44 -28.5 75.5t-68.5 31.5q-7 0 -12 -1.5t-8 -3.5
q10 -8 15 -20t5 -26q0 -34 -22.5 -57.5t-53.5 -23.5q-32 0 -54.5 23.5t-22.5 57.5z" />
    <glyph glyph-name="uni09A5" unicode="&#x9a5;" horiz-adv-x="464" 
d="M21 403q0 48 45 82.5t108 34.5q51 0 87 -35.5t36 -86.5q0 -46 -35 -86.5t-93 -61.5q56 -15 104.5 -60t79.5 -112v503h10l31 -51v-10h45l35 -41h-80v-515l-21 26q-26 97 -102.5 158t-172.5 61l-61 66q89 0 151.5 42t62.5 101q0 25 -16.5 43t-39.5 18q-31 0 -57 -13.5
t-40 -37.5q18 -3 29.5 -16t11.5 -30q0 -21 -16.5 -36t-39.5 -15q-26 0 -44 21t-18 51z" />
    <glyph glyph-name="uni09A6" unicode="&#x9a6;" horiz-adv-x="392" 
d="M-45 520h412l35 -41h-318v-240q40 55 102 99t140 72l53 -38q-37 -44 -57 -100.5t-20 -118.5q0 -55 6.5 -100t18.5 -79l-20 10q-20 43 -30.5 91t-10.5 98q0 59 8.5 104t24.5 73q-75 -43 -128.5 -91t-81.5 -96l-46 61v255h-53z" />
    <glyph glyph-name="uni09A7" unicode="&#x9a7;" horiz-adv-x="391" 
d="M15 275l123 92q-40 7 -66 31.5t-26 55.5q0 34 27 57.5t65 23.5q21 0 36 -16.5t15 -39.5q0 -17 -12 -29t-29 -12q-16 0 -27.5 11.5t-11.5 27.5q0 6 1.5 11t3.5 9q-13 0 -22.5 -12.5t-9.5 -30.5q0 -24 28.5 -41.5t68.5 -17.5l102 69v56h85l35 -41h-80v-520l-20 25
q0 78 -65 140t-165 80zM77 255q60 -11 113.5 -53.5t90.5 -108.5v312z" />
    <glyph glyph-name="uni09A8" unicode="&#x9a8;" horiz-adv-x="438" 
d="M-45 520h458l35 -41h-80v-510l-20 21q-12 132 -68 221.5t-127 89.5q17 -6 27 -23t10 -38q0 -36 -24 -61.5t-58 -25.5q-36 0 -61.5 27t-25.5 65q0 42 34.5 72t83.5 30q59 0 111 -50.5t77 -132.5v315h-337z" />
    <glyph glyph-name="uni09AA" unicode="&#x9aa;" horiz-adv-x="492" 
d="M14 387q0 36 59.5 84.5t103.5 48.5q56 0 111.5 -47.5t92.5 -127.5v236h11l30 -51v-10h45l35 -41h-80v-510l-41 41v265q0 26 -16 56.5t-45 59.5l-163 -169l-56 25l25 28q5 5 8 16t3 25q0 23 -15 39.5t-36 16.5q-9 0 -23 -10t-23 -10q-11 0 -18.5 10.5t-7.5 24.5zM90 405
q33 0 56.5 -26.5t23.5 -64.5l120 119q-18 22 -41.5 34t-46.5 12q-24 0 -53 -19.5t-59 -54.5z" />
    <glyph glyph-name="uni09AB" unicode="&#x9ab;" horiz-adv-x="530" 
d="M-45 520h550l35 -41h-447l129 -122l-117 -102q60 -22 105 -61.5t69 -90.5v346q9 -5 26 -8t40 -3q53 0 90 -38.5t37 -93.5q0 -38 -19.5 -65t-46.5 -27q-23 0 -39.5 15t-16.5 36t15 36t36 15q13 0 23 -7t13 -18q7 5 11 13t4 17q0 23 -25.5 39.5t-61.5 16.5h-46v-408l-20 26
q0 73 -66.5 132t-168.5 77l-51 56l148 127q-20 17 -79 39t-77 53h-15z" />
    <glyph glyph-name="uni09AC" unicode="&#x9ac;" horiz-adv-x="406" 
d="M-45 520h426l35 -41h-80v-515l-21 26q-17 96 -85 161t-160 73l-61 61q113 79 180 118t106 46v30h-305zM101 275q61 -18 111.5 -66t82.5 -117v295q-35 -9 -84 -37.5t-110 -74.5z" />
    <glyph glyph-name="uni09AD" unicode="&#x9ad;" horiz-adv-x="534" 
d="M-45 520h554l35 -41h-554zM188 346q0 28 19 48t46 20q26 0 44.5 -17t18.5 -41q0 -11 -5 -22t-14 -19l15 -2q27 0 53.5 20.5t45.5 56.5q43 -30 67 -74.5t24 -93.5q0 -76 -50 -130t-121 -54q-95 0 -183 116t-130 298l28 -28q38 -140 114.5 -228.5t160.5 -88.5q64 0 109 37
t45 89q0 31 -10 54t-27 31q-33 -33 -68.5 -50.5t-68.5 -17.5q-47 0 -80 28t-33 68z" />
    <glyph glyph-name="uni09AE" unicode="&#x9ae;" horiz-adv-x="411" 
d="M45 214q0 34 24 58t58 24q12 0 22 -3t18 -8q8 5 12 12t4 14q0 25 -20 47.5t-52 34.5q-42 15 -70.5 37.5t-37.5 48.5h-13l-35 41h431l35 -41h-80v-525l-21 25q-6 69 -38.5 122t-83.5 77q-10 -21 -30.5 -33.5t-45.5 -12.5q-32 0 -54.5 24t-22.5 58zM76 479q0 -21 43 -57
l48 -40q36 -30 50 -71t1 -77q26 -15 47 -50.5t35 -86.5v382h-224z" />
    <glyph glyph-name="uni09AF" unicode="&#x9af;" horiz-adv-x="394" 
d="M-45 520h414l35 -41h-80v-510l-20 21q-15 84 -82 145.5t-163 78.5l-46 61l138 116q-23 28 -77 48.5t-65 39.5h-19zM105 479l112 -107l-127 -112q66 -24 116.5 -69.5t78.5 -105.5l-1 394h-179z" />
    <glyph glyph-name="uni09B0" unicode="&#x9b0;" horiz-adv-x="408" 
d="M-45 520h428l35 -41h-80v-520l-21 20q-18 100 -86 168.5t-159 76.5l-61 72q76 64 149 103t137 50v30h-307zM93 280q71 -22 125 -73t79 -120v300q-52 -9 -104 -36.5t-100 -70.5zM83 81q0 17 11.5 29t28.5 12t29 -12t12 -29t-12 -28.5t-29 -11.5t-28.5 11.5t-11.5 28.5z
" />
    <glyph glyph-name="uni09B2" unicode="&#x9b2;" horiz-adv-x="505" 
d="M-45 520h525l35 -41h-80v-515l-41 41v260q0 22 -23 54.5t-38 32.5q-17 0 -29 -25.5t-12 -61.5h-21q-14 39 -45 63t-67 24q-40 0 -68.5 -25.5t-28.5 -61.5q0 -31 28.5 -53.5t68.5 -22.5q-9 4 -14.5 13.5t-5.5 21.5q0 23 16.5 39.5t39.5 16.5t39.5 -16.5t16.5 -39.5
q0 -34 -25.5 -57.5t-61.5 -23.5q-57 0 -97 41.5t-40 100.5q0 55 35.5 94t86.5 39q28 0 54 -19t43 -52q8 31 24.5 51t33.5 20q20 0 44.5 -29t45.5 -78v168h-404z" />
    <glyph glyph-name="uni09B6" unicode="&#x9b6;" horiz-adv-x="467" 
d="M-56 520h75q33 0 65.5 -20t57.5 -56q20 35 45 55.5t47 20.5q32 0 65 -30.5t57 -82.5v174h10l31 -51v-10h45l35 -41h-80v-510l-41 41v342q-16 50 -43 81t-54 31q-11 0 -25 -12.5t-26 -33.5q43 -30 67.5 -60t24.5 -52q0 -25 -18 -43t-43 -18q-22 0 -44 24t-36 63
q-10 -38 -32 -62.5t-47 -24.5t-43 18t-18 43q0 27 21 56.5t58 55.5q-11 28 -32.5 44.5t-46.5 16.5h-29z" />
    <glyph glyph-name="uni09B7" unicode="&#x9b7;" horiz-adv-x="394" 
d="M-45 520h414l35 -41h-80v-510l-20 21q-15 84 -82 145.5t-163 78.5l-46 61l133 116q-18 21 -68.5 44t-68.5 44h-19zM116 479l168 -197v197h-168zM91 265q57 -21 107 -67t86 -111v157l-97 110z" />
    <glyph glyph-name="uni09B8" unicode="&#x9b8;" horiz-adv-x="465" 
d="M-45 520h485l35 -41h-80v-510l-41 41v255q-9 27 -30 44t-46 17q-28 0 -84.5 -84t-84.5 -84q-29 0 -55 27t-37 70l16 13q13 -23 26.5 -36t24.5 -13q16 0 37.5 25t48.5 72q0 51 -33 86.5t-79 35.5q-18 0 -33.5 11.5t-22.5 29.5h-12zM114 479q37 -16 59.5 -45t22.5 -61
q0 -13 -1.5 -23.5t-3.5 -19.5q17 24 36 38t35 14q22 0 47 -20.5t45 -55.5v173h-240z" />
    <glyph glyph-name="uni09B9" unicode="&#x9b9;" horiz-adv-x="408" 
d="M-45 520h428l35 -41h-229q10 -14 15 -25.5t5 -20.5q65 0 111.5 -40t46.5 -97q0 -53 -50.5 -96t-127.5 -57q90 -42 162.5 -100.5t122.5 -129.5l-20 -5q-73 87 -170 143.5t-207 75.5l-62 107q17 -17 54 -26t89 -9q46 0 102 45t56 82q0 25 -22.5 43t-53.5 18q-13 0 -23 -5.5
t-13 -14.5q-6 -33 -30.5 -54.5t-56.5 -21.5q-27 0 -46.5 16.5t-19.5 39.5q0 36 37.5 61t90.5 25q0 9 -12.5 21.5t-33.5 24.5h-143z" />
    <glyph glyph-name="uni09BC" unicode="&#x9bc;" 
d="M173 -21q0 17 12 29t29 12t29 -12t12 -29t-12 -28.5t-29 -11.5t-29 11.5t-12 28.5z" />
    <glyph glyph-name="uni09BD" unicode="&#x9bd;" horiz-adv-x="446" 
d="M48 408q0 38 37.5 65t90.5 27q78 0 133 -42t55 -101q0 -54 -47.5 -97t-120.5 -56q81 -38 150.5 -97.5t124.5 -137.5h-20q-73 87 -170.5 144t-206.5 76l-57 102q26 -15 61.5 -23t76.5 -8q46 0 102 45t56 82q0 26 -22.5 44t-53.5 18q-16 0 -29 -7t-17 -19
q0 -31 -22.5 -53.5t-54.5 -22.5q-27 0 -46.5 18t-19.5 43z" />
    <glyph glyph-name="uni09BE" unicode="&#x9be;" horiz-adv-x="185" 
d="M-45 520h17q24 0 51.5 -28.5t51.5 -77.5v194l26 -24q0 -32 7 -48t29 -16h23l35 -41h-50q-10 0 -18.5 4t-11.5 10v-532l-40 52v362q-35 67 -52 85.5t-42 18.5h9z" />
    <glyph glyph-name="uni09BF" unicode="&#x9bf;" horiz-adv-x="181" 
d="M-45 520h115q-17 14 -26 38t-9 54q0 59 52 101t126 42q72 0 154 -49.5t157 -139.5l-15 -10q-76 76 -147.5 117t-127.5 41q-65 0 -111.5 -39t-46.5 -94q0 -20 6.5 -36.5t18.5 -24.5h55l35 -41h-80v-510l-41 41v469h-80z" />
    <glyph glyph-name="uni09C0" unicode="&#x9c0;" horiz-adv-x="181" 
d="M-10 479l-35 41h115q0 84 -83.5 144t-201.5 60q-58 0 -98.5 -22.5t-40.5 -53.5q0 -19 22.5 -32.5t53.5 -13.5q13 0 39 5t39 5q53 0 90.5 -28.5t37.5 -68.5h-30q0 23 -19.5 39.5t-47.5 16.5q-12 0 -34 -5t-34 -5q-59 0 -101 27t-42 65q0 48 42 82.5t102 34.5
q138 0 238 -72t109 -178h45l35 -41h-80v-510l-41 41v469h-80z" />
    <glyph glyph-name="uni09C1" unicode="&#x9c1;" 
d="M-258 -67q0 30 24 51t58 21q22 0 40 -4t31 -11v107q15 -12 23 -28t8 -33v-67q36 -23 77 -61.5t86 -91.5l-21 -15q-39 46 -77 78.5t-73 48.5q-18 -31 -43 -48.5t-51 -17.5q-34 0 -58 21t-24 50zM-217 -67q0 -14 12 -24.5t29 -10.5q21 0 39.5 14t26.5 37q-14 12 -31 18.5
t-35 6.5q-17 0 -29 -12t-12 -29z" />
    <glyph glyph-name="uni09C2" unicode="&#x9c2;" 
d="M-218 -56q0 25 24 43t58 18h30v76q14 -5 22.5 -14.5t8.5 -20.5v-82h-51q-25 0 -43 -9t-18 -22q0 -17 11.5 -28.5t28.5 -11.5q23 0 41.5 5t30.5 15l163 -117l-15 -21l-133 87q-14 -10 -33.5 -15t-42.5 -5q-27 0 -54.5 34t-27.5 68z" />
    <glyph glyph-name="uni09C3" unicode="&#x9c3;" 
d="M-233 -51l122 75v47q18 -7 29.5 -29t11.5 -52l-92 -62l133 -112l-10 -20z" />
    <glyph glyph-name="uni09C4" unicode="&#x9c4;" 
d="M-233 -51l122 65v57q18 -7 29.5 -29t11.5 -52l-81 -46l86 -41l-10 -21l-30 11l-62 -46l143 -61l-15 -26l-189 82l87 66z" />
    <glyph glyph-name="uni09C7" unicode="&#x9c7;" horiz-adv-x="276" 
d="M-58 520h329l46 -41h-31q-87 0 -148 -76t-61 -184q0 -78 35.5 -133.5t86.5 -55.5v6q-5 3 -7.5 11t-2.5 19q0 21 15 36t36 15q23 0 39.5 -16.5t16.5 -39.5q0 -34 -24 -58t-58 -24q-70 0 -119 70.5t-49 169.5q0 87 28.5 156t78.5 104h-165z" />
    <glyph glyph-name="uni09C8" unicode="&#x9c8;" horiz-adv-x="275" 
d="M-54 520h235q10 0 17.5 7.5t7.5 18.5q0 14 -19.5 24.5t-46.5 10.5q-22 0 -67 -5t-67 -5q-42 0 -72 30t-30 72q0 17 6.5 34t19.5 32l21 -10q-10 -7 -15.5 -19t-5.5 -27q0 -21 15 -36t36 -15q23 0 69.5 5t69.5 5q46 0 79 -26.5t33 -64.5q0 -13 8 -22t19 -9h19l46 -41h-44
q-84 0 -144 -76t-60 -184q0 -80 38.5 -137t93.5 -57l5 5q-11 1 -18 13t-7 28q0 19 15 32.5t36 13.5q23 0 39.5 -16.5t16.5 -39.5q0 -34 -24 -58t-58 -24q-70 0 -119 72t-49 173q0 79 28 145.5t79 109.5h-160z" />
    <glyph glyph-name="uni09CB" unicode="&#x9cb;" horiz-adv-x="780" 
d="M-45 520h324l46 -41h-31q-91 0 -155.5 -82t-64.5 -198q0 -70 39 -119.5t94 -49.5v6q-9 5 -14.5 14.5t-5.5 20.5q0 21 16.5 36t39.5 15t39.5 -18t16.5 -43q0 -34 -24 -58t-58 -24q-72 0 -122.5 64.5t-50.5 155.5t32.5 165.5t90.5 114.5h-177zM538 520h68q19 0 38 -25.5
t30 -66.5h5l-5 67v86h10l26 -51v-10h45l35 -41h-80v-510l-41 41v337q0 49 -17.5 85.5t-45.5 46.5h-22z" />
    <glyph glyph-name="uni09CC" unicode="&#x9cc;" horiz-adv-x="946" 
d="M-45 520h325l46 -41h-36q-89 0 -152 -80.5t-63 -194.5q0 -72 39 -123t94 -51v6q-9 5 -14.5 14.5t-5.5 20.5q0 21 16.5 36t39.5 15t39.5 -18t16.5 -43q0 -34 -24 -58t-58 -24q-72 0 -122.5 66t-50.5 159q0 90 31.5 163t86.5 112h-173zM708 520h127q0 29 -21 50t-50 21
q-36 0 -107 -5t-107 -5q-68 0 -116 33t-48 79q0 17 8 33.5t23 28.5l56 -11q-25 -9 -40.5 -21.5t-15.5 -23.5q0 -19 30 -32.5t72 -13.5q34 0 102 5t102 5q63 0 108 -42t45 -101h45l35 -41h-80v-510l-41 41v469h-81z" />
    <glyph glyph-name="uni09CD" unicode="&#x9cd;" 
d="M-96 -97v41h15l158 -148v-41h-15z" />
    <glyph glyph-name="uni09D7" unicode="&#x9d7;" horiz-adv-x="181" 
d="M-45 520h115q0 29 -21 50t-50 21q-36 0 -107 -5t-107 -5q-68 0 -115.5 33t-47.5 79q0 18 8 34t22 28l21 -11q-10 -8 -15.5 -18.5t-5.5 -21.5q0 -21 30 -36t72 -15q34 0 102 5t102 5q63 0 108 -42t45 -101h45l35 -41h-80v-510l-41 41v469h-80z" />
    <glyph glyph-name="uni09DC" unicode="&#x9dc;" horiz-adv-x="481" 
d="M-45 520h501l35 -41h-256v-173q0 -11 4.5 -18.5t10.5 -7.5q26 0 57 28.5t60 78.5q38 -22 60 -63t22 -90q0 -72 -47 -122.5t-114 -50.5q-87 0 -163 106.5t-105 270.5l26 -20q28 -129 96 -212.5t146 -83.5q58 0 99 37.5t41 90.5q0 20 -9 38.5t-26 32.5q-27 -47 -61.5 -74.5
t-66.5 -27.5q-21 0 -46 38t-25 69v153h-204zM248 -21q0 17 11.5 29t28.5 12t29 -12t12 -29t-12 -28.5t-29 -11.5t-28.5 11.5t-11.5 28.5z" />
    <glyph glyph-name="uni09DD" unicode="&#x9dd;" horiz-adv-x="359" 
d="M334 520l35 -41h-273v-296q0 -18 19 -44.5t32 -26.5q40 0 81 54.5t41 108.5q-3 -5 -9.5 -7.5t-15.5 -2.5q-19 0 -32.5 15t-13.5 36q0 25 18 43t43 18q30 0 51 -27t21 -65q0 -77 -60 -155.5t-119 -78.5q-24 0 -60.5 49.5t-36.5 82.5v296h-65l-35 41h379zM111 -21
q0 17 12 29t29 12t29 -12t12 -29t-12 -28.5t-29 -11.5t-29 11.5t-12 28.5z" />
    <glyph glyph-name="uni09DF" unicode="&#x9df;" horiz-adv-x="394" 
d="M-45 520h414l35 -41h-80v-515l-20 26q-15 84 -82 145.5t-163 78.5l-46 61l133 116q-18 22 -71 44t-71 44h-14zM106 479l111 -122l-117 -97q57 -15 105.5 -59.5t78.5 -108.5v387h-178zM95 71q0 17 12 29t29 12t29 -12t12 -29t-12 -28.5t-29 -11.5t-29 11.5t-12 28.5z" />
    <glyph glyph-name="uni09E0" unicode="&#x9e0;" horiz-adv-x="529" 
d="M13 428q0 25 18 43t43 18q18 0 33.5 -8t23.5 -22q21 6 38.5 30.5t27.5 61.5q24 -47 59.5 -74.5t72.5 -27.5v132h11l30 -51v-234q12 -7 25 -29.5t26 -57.5v372h10l31 -51v-10h42l35 -41h-77v-449l-20 31q0 59 -19 107t-53 77v-238q0 -7 -6 -15.5t-16 -15.5l-68 -48
l137 -117l-15 -15l-194 153l123 75v47q-28 58 -88 98.5t-138 54.5l-41 67l235 132q-27 4 -50.5 17.5t-41.5 33.5h-5q-18 -48 -53 -77.5t-75 -29.5q-25 0 -43 18t-18 43zM156 275q53 -19 98 -64t75 -109h6l-6 92v183z" />
    <glyph glyph-name="uni09E1" unicode="&#x9e1;" horiz-adv-x="440" 
d="M42 109q0 60 38 103t91 43q65 0 111.5 -49t46.5 -119q22 8 35.5 31t13.5 52q0 78 -176 154.5t-176 154.5q0 50 50.5 50t50.5 -50q0 -19 -3 -31.5t-9 -17.5q136 -63 216.5 -129t80.5 -114q0 -74 -39 -126.5t-95 -52.5q0 88 -35 150.5t-84 62.5q-27 0 -46.5 -23t-19.5 -55
q0 -14 4 -28t12 -28q9 8 18 12t16 4q21 0 36 -14.5t15 -35.5q0 -23 -18.5 -39.5t-44.5 -16.5q-37 0 -63 33t-26 79zM192 -183q0 33 31 56.5t74 23.5q47 0 80 -27t33 -65q17 4 28.5 16.5t11.5 28.5q0 27 -37 47.5t-91 24.5q-56 4 -94 25.5t-38 48.5q0 17 12 29t29 12
q14 0 24.5 -9t10.5 -22q0 -8 -4 -15.5t-11 -11.5q10 -9 36.5 -15.5t72.5 -12.5q51 -6 84.5 -32.5t33.5 -59.5q0 -40 -32 -68.5t-78 -28.5q0 44 -23.5 75t-57.5 31q-22 0 -37.5 -13t-15.5 -31q0 -4 3 -9t9 -10q6 4 13.5 6t14.5 2q17 0 29 -7.5t12 -18.5q0 -13 -15 -22.5
t-37 -9.5q-29 0 -50 18t-21 44z" />
    <glyph glyph-name="uni09E2" unicode="&#x9e2;" 
d="M-307 -183q0 33 31 56.5t74 23.5q47 0 80 -27t33 -65q17 4 28.5 16.5t11.5 28.5q0 27 -36.5 47.5t-90.5 24.5q-56 4 -94.5 25.5t-38.5 48.5q0 17 12 29t29 12q15 0 25.5 -9t10.5 -22q0 -8 -4.5 -15t-11.5 -12q10 -9 36.5 -15.5t72.5 -12.5q51 -6 85 -32.5t34 -59.5
q0 -40 -32 -68.5t-78 -28.5q0 44 -24 75t-58 31q-22 0 -37.5 -13t-15.5 -31q0 -4 3 -9t9 -10q6 4 13.5 6t15.5 2q17 0 28.5 -7.5t11.5 -18.5q0 -13 -15 -22.5t-37 -9.5q-29 0 -50 18t-21 44z" />
    <glyph glyph-name="uni09E3" unicode="&#x9e3;" 
d="M-325 -183q0 33 31 56.5t74 23.5q47 0 80 -27t33 -65q17 4 28.5 16.5t11.5 28.5q0 27 -36.5 47.5t-90.5 24.5q-56 4 -94.5 25.5t-38.5 48.5q0 17 12 29t29 12q15 0 25.5 -9t10.5 -22q0 -8 -4.5 -15t-11.5 -12q10 -9 36.5 -15.5t72.5 -12.5q51 -6 85 -32.5t34 -59.5
q0 -40 -32 -68.5t-78 -28.5q0 44 -24 75t-58 31q-22 0 -37.5 -13t-15.5 -31q0 -4 3 -9t9 -10q6 4 13.5 6t15.5 2q17 0 28.5 -7.5t11.5 -18.5q0 -13 -15 -22.5t-37 -9.5q-29 0 -50 18t-21 44zM1 -183q0 33 31 56.5t75 23.5q47 0 80 -27t33 -65q17 4 28.5 16.5t11.5 28.5
q0 27 -37 47.5t-91 24.5q-56 4 -94.5 25.5t-38.5 48.5q0 17 12 29t29 12q15 0 25.5 -9t10.5 -22q0 -8 -4 -15.5t-11 -11.5q10 -9 36.5 -15.5t72.5 -12.5q51 -6 84.5 -32.5t33.5 -59.5q0 -40 -32 -68.5t-78 -28.5q0 44 -24 75t-58 31q-22 0 -37.5 -13t-15.5 -31q0 -3 3.5 -8
t9.5 -11q6 4 13.5 6t14.5 2q17 0 29 -7.5t12 -18.5q0 -13 -15 -22.5t-37 -9.5q-30 0 -51 18t-21 44z" />
    <glyph glyph-name="uni09E6" unicode="&#x9e6;" horiz-adv-x="500" 
d="M77 265q0 72 50.5 122.5t122.5 50.5t122.5 -50.5t50.5 -122.5t-50.5 -122.5t-122.5 -50.5t-122.5 50.5t-50.5 122.5zM128 224q0 -46 23 -69t68 -23q44 0 98.5 62t54.5 112q0 46 -23 69t-68 23q-44 0 -98.5 -62t-54.5 -112z" />
    <glyph glyph-name="uni09E7" unicode="&#x9e7;" horiz-adv-x="500" 
d="M102 459q0 25 18 43t43 18q21 0 36 -13.5t15 -32.5q0 -10 -5.5 -19.5t-14.5 -16.5q96 -73 150 -137t54 -107q0 -61 -54.5 -122.5t-108.5 -61.5q-38 0 -65 16.5t-27 39.5q0 24 40 53t72 29q16 0 31.5 -4t29.5 -12q21 8 33.5 22t12.5 29q0 54 -130 138t-130 138z" />
    <glyph glyph-name="uni09E8" unicode="&#x9e8;" horiz-adv-x="500" 
d="M107 469q0 21 13.5 36t32.5 15q22 0 36 -18.5t10 -42.5q73 -39 115.5 -88.5t42.5 -95.5q0 -51 -37 -86.5t-90 -35.5q77 -44 136.5 -101.5t97.5 -123.5h-20q-51 73 -145 135.5t-222 109.5l-41 123q44 -40 96.5 -61t107.5 -21q34 0 57.5 22.5t23.5 54.5q0 36 -107 89
t-107 89z" />
    <glyph glyph-name="uni09E9" unicode="&#x9e9;" horiz-adv-x="500" 
d="M168 367q0 42 31.5 72t76.5 30q76 0 129.5 -62.5t53.5 -151.5q0 -80 -47.5 -137t-115.5 -57q-83 0 -155 102.5t-100 259.5l25 -5q34 -127 98 -206.5t132 -79.5q55 0 94 39t39 94q0 59 -30 101t-72 42q-5 0 -10.5 -1t-10.5 -3q12 -9 19 -27t7 -41q0 -29 -21 -50t-51 -21
q-38 0 -65 30t-27 72z" />
    <glyph glyph-name="uni09EA" unicode="&#x9ea;" horiz-adv-x="500" 
d="M92 132q0 31 26 64t71 59q-40 19 -63.5 46.5t-23.5 55.5q0 55 54 93.5t130 38.5q46 0 79 -26.5t33 -64.5q0 -32 -24.5 -65t-67.5 -58q46 -20 74 -53t28 -69q0 -51 -57 -87t-137 -36q-51 0 -86.5 30t-35.5 72zM143 143q0 -30 33 -51t79 -21q42 0 72 21t30 51
q0 26 -33.5 52.5t-88.5 44.5q-43 -25 -67.5 -51t-24.5 -46zM153 387q0 -24 32.5 -49t84.5 -42q36 19 56.5 38t20.5 33q0 38 -30 65t-72 27q-38 0 -65 -21t-27 -51z" />
    <glyph glyph-name="uni09EB" unicode="&#x9eb;" horiz-adv-x="500" 
d="M61 234q0 80 90 163.5t196 102.5q-24 -14 -37.5 -36t-13.5 -46q0 -19 38.5 -34t104.5 -27q-47 -24 -105 -96.5t-58 -107.5q0 -26 36.5 -54.5t95.5 -47.5q-34 -10 -67.5 -15.5t-64.5 -5.5q-89 0 -152 60t-63 144zM107 224q0 -73 59.5 -121.5t139.5 -41.5q-41 15 -66.5 46
t-25.5 66q0 42 30 88t83 86q-38 7 -57.5 36t-4.5 55q-71 -26 -114.5 -85t-43.5 -129z" />
    <glyph glyph-name="uni09EC" unicode="&#x9ec;" horiz-adv-x="500" 
d="M117 454q0 14 13.5 24.5t32.5 10.5q21 0 39 -20t23 -51l10 -133q2 -9 9 -14.5t16 -5.5q18 0 41.5 28.5t55.5 83.5q48 -41 75 -89t27 -94q0 -63 -45 -108t-108 -45q-88 0 -163 99.5t-102 252.5l20 -11q21 -117 87.5 -193.5t147.5 -76.5q55 0 94 35.5t39 86.5q0 17 -8 33.5
t-23 28.5q-33 -39 -59.5 -60.5t-42.5 -21.5q-29 0 -65.5 29t-36.5 53l-20 117q-24 0 -40.5 12t-16.5 29z" />
    <glyph glyph-name="uni09ED" unicode="&#x9ed;" horiz-adv-x="499" 
d="M89 357q0 40 51 89t92 49q38 0 85 -63.5t47 -115.5v-204q19 0 32.5 -12t13.5 -29t-12 -29t-29 -12q-23 0 -39.5 21t-16.5 51v153h-122q-29 0 -65.5 36.5t-36.5 65.5zM140 347q0 -17 15 -29t36 -12h122q0 52 -19 93t-52 60q-29 0 -65.5 -40t-36.5 -72z" />
    <glyph glyph-name="uni09EE" unicode="&#x9ee;" horiz-adv-x="500" 
d="M31 449q0 17 13.5 28.5t32.5 11.5q23 0 39.5 -18t16.5 -43v-137q12 21 33.5 33t47.5 12q25 0 48.5 -15t38.5 -41q15 26 32.5 41t33.5 15h51q18 0 32 8.5t19 22.5v-20q0 -30 -18 -51t-43 -21h-51q-12 0 -22.5 -5t-18.5 -15q5 -12 8 -23.5t3 -22.5q0 -49 -54.5 -108.5
t-98.5 -59.5q-24 0 -53 29t-29 52v291q-22 -8 -41.5 3.5t-19.5 32.5zM133 122q0 -8 6 -14t14 -6q32 0 80 57.5t48 95.5q0 12 -16.5 21t-39.5 9q-21 0 -44.5 -9t-47.5 -26v-128z" />
    <glyph glyph-name="uni09EF" unicode="&#x9ef;" horiz-adv-x="499" 
d="M89 132q0 55 34.5 94t82.5 39q51 0 87 -45t36 -108q30 11 48 32t18 45q0 71 -160.5 140t-160.5 140q0 45 45.5 45t45.5 -45q0 -11 -2.5 -19t-7.5 -12q124 -58 197 -121.5t73 -112.5q0 -68 -43 -115.5t-104 -47.5q0 80 -25.5 136.5t-61.5 56.5q-23 0 -39.5 -21t-16.5 -50
q0 -12 4 -25t11 -26q9 7 17 11t14 4q19 0 32.5 -13.5t13.5 -32.5q0 -21 -19.5 -36t-47.5 -15q-29 0 -50 30t-21 72z" />
    <glyph glyph-name="uni09F0" unicode="&#x9f0;" horiz-adv-x="407" 
d="M-45 520h427l35 -41h-80v-515l-21 31q-16 93 -84.5 157t-160.5 72l-61 61q76 63 148 104.5t138 59.5v30h-306zM102 280q63 -23 113.5 -70.5t80.5 -112.5v107q-17 37 -48.5 69.5t-74.5 57.5zM194 347q33 -21 59 -47t43 -55v146q-13 -1 -33.5 -10.5t-68.5 -33.5z" />
    <glyph glyph-name="uni09F1" unicode="&#x9f1;" horiz-adv-x="413" 
d="M37 138l-16 45q81 0 147.5 -40t97.5 -107l-20 -6q-36 51 -91 79.5t-118 28.5zM-45 520h433l35 -41h-80v-510l-21 26q-16 93 -84.5 157t-159.5 72l-62 61q76 63 148 104.5t138 59.5v30h-312zM108 280q63 -23 113 -70.5t81 -113.5v292q-39 -10 -88 -37.5t-106 -70.5z" />
    <glyph glyph-name="uni09F2" unicode="&#x9f2;" horiz-adv-x="267" 
d="M66 377l-46 -20l-15 25l92 31l158 -286l-46 -25z" />
    <glyph glyph-name="uni09F3" unicode="&#x9f3;" horiz-adv-x="414" 
d="M17 403q0 30 46.5 76t76.5 46q19 0 47.5 -28.5t28.5 -47.5v-143h179v-41h-179v-195h46q34 0 58 16.5t24 39.5q0 8 -4.5 15.5t-11.5 10.5q-4 -10 -13.5 -15.5t-21.5 -5.5q-19 0 -32.5 15t-13.5 36t16.5 36t39.5 15q27 0 46.5 -26.5t19.5 -64.5q0 -55 -37 -94t-90 -39
q-24 0 -41 -2.5t-26 -7.5v460q0 8 -6 14t-14 6q-17 0 -46.5 -27.5t-29.5 -43.5q4 5 12 7.5t18 2.5q17 0 29 -13.5t12 -32.5t-16.5 -32.5t-39.5 -13.5q-32 0 -54.5 22.5t-22.5 54.5z" />
    <glyph glyph-name="uni09F4" unicode="&#x9f4;" horiz-adv-x="269" 
d="M67 157l143 275l46 -30l-158 -286l-92 36l15 25z" />
    <glyph glyph-name="uni09F5" unicode="&#x9f5;" horiz-adv-x="492" 
d="M269 234q0 -59 -35 -108t-92 -70q116 0 204 69.5t107 175.5l20 -26q-20 -115 -95 -190t-170 -75q-60 0 -94.5 6t-43.5 20l-30 45q82 7 138 53t56 106q0 23 -15 39.5t-36 16.5q-4 0 -9 -1.5l-12 -3.5q0 -36 -23.5 -61.5t-57.5 -25.5q-26 0 -44 15t-18 36q0 36 40.5 61.5
t97.5 25.5q46 0 79 -31.5t33 -76.5z" />
    <glyph glyph-name="uni09F6" unicode="&#x9f6;" horiz-adv-x="663" 
d="M64 204q7 -2 21.5 -3.5t35.5 -1.5q54 0 109 42.5t55 84.5q0 25 -22.5 43t-54.5 18q-13 0 -23 -5.5t-13 -14.5q-6 -33 -30.5 -54.5t-55.5 -21.5q-28 0 -47.5 16.5t-19.5 39.5q0 39 42 62.5t111 23.5q68 0 116 -40t48 -97q0 -56 -48 -100.5t-121 -57.5q7 -27 44 -44.5
t88 -17.5q101 0 190.5 95.5t130.5 246.5l26 -5q-41 -177 -138.5 -290t-208.5 -113q-97 0 -166 57t-69 137z" />
    <glyph glyph-name="glyph90" horiz-adv-x="140" 
d="M-45 520h160l35 -41h-160z" />
    <glyph glyph-name="uni09F7" unicode="&#x9f7;" horiz-adv-x="191" 
d="M70 10v536l51 -41v-536z" />
    <glyph glyph-name="uni09F8" unicode="&#x9f8;" horiz-adv-x="360" 
d="M43 224v255l-15 41h45l11 -41v-229q40 56 92.5 96t111.5 62l61 -36q-47 -56 -72 -112.5t-25 -106.5q0 -55 6.5 -100t18.5 -79l-20 10q-20 43 -30.5 91t-10.5 98q0 38 14 82t42 92q-57 -33 -103.5 -79.5t-79.5 -104.5z" />
    <glyph glyph-name="uni09FA" unicode="&#x9fa;" horiz-adv-x="508" 
d="M70 321l16 10q8 -29 35 -47.5t62 -18.5q55 0 119 56t120 153l16 -10q-57 -121 -127.5 -193t-132.5 -72q-38 0 -68.5 34.5t-39.5 87.5zM167 372l41 41l41 -41l-41 -41z" />
    <glyph glyph-name="uni0964" unicode="&#x964;" horiz-adv-x="261" 
d="M140 10v536l51 -41v-536z" />
    <glyph glyph-name="uni0965" unicode="&#x965;" horiz-adv-x="414" 
d="M140 10v536l51 -41v-536zM293 10v536l51 -41v-536z" />
    <glyph glyph-name="uni09F9" unicode="&#x9f9;" horiz-adv-x="483" 
d="M41 206q0 128 68.5 218.5t165.5 90.5q70 0 119.5 -57.5t49.5 -139.5q0 -116 -70.5 -214.5t-154.5 -98.5q-74 0 -126 59t-52 142zM92 164q0 -55 26 -83t76 -28q66 0 132.5 101.5t66.5 201.5q0 55 -26 83t-76 28q-70 0 -134.5 -98.5t-64.5 -204.5z" />
    <glyph glyph-name="uni20B9" unicode="&#x20b9;" horiz-adv-x="429" 
d="M308 -20q-103 92 -159 170.5t-56 129.5q0 10 9 17.5t21 7.5q8 0 15.5 -5.5t14.5 -14.5q14 8 25 32.5t17 59.5h-123v45h126q0 8 -2.5 21.5t-7.5 43.5h-118v45h289v-45h-136q7 -15 12.5 -31.5t8.5 -33.5h113v-45h-109q-1 -68 -22 -115.5t-53 -56.5q26 -43 69 -89.5
t102 -96.5z" />
    <glyph glyph-name="glyph98" horiz-adv-x="800" 
d="M100 -240v700h600v-700h-600zM150 -190h500v600h-500v-600z" />
    <glyph glyph-name="glyph99" horiz-adv-x="800" 
d="M100 -240v700h600v-700h-600zM150 -190h500v600h-500v-600z" />
    <glyph glyph-name="glyph100" horiz-adv-x="800" 
d="M100 -240v700h600v-700h-600zM150 -190h500v600h-500v-600z" />
    <glyph glyph-name="glyph101" horiz-adv-x="800" 
d="M100 -240v700h600v-700h-600zM150 -190h500v600h-500v-600z" />
    <glyph glyph-name="glyph102" horiz-adv-x="800" 
d="M100 -240v700h600v-700h-600zM150 -190h500v600h-500v-600z" />
    <glyph glyph-name="glyph103" horiz-adv-x="800" 
d="M100 -240v700h600v-700h-600zM150 -190h500v600h-500v-600z" />
    <glyph glyph-name="glyph104" horiz-adv-x="800" 
d="M100 -240v700h600v-700h-600zM150 -190h500v600h-500v-600z" />
    <glyph glyph-name="glyph105" horiz-adv-x="800" 
d="M100 -240v700h600v-700h-600zM150 -190h500v600h-500v-600z" />
    <glyph glyph-name="glyph106" horiz-adv-x="800" 
d="M100 -240v700h600v-700h-600zM150 -190h500v600h-500v-600z" />
    <glyph glyph-name="glyph107" horiz-adv-x="800" 
d="M100 -240v700h600v-700h-600zM150 -190h500v600h-500v-600z" />
    <glyph glyph-name="glyph108" horiz-adv-x="800" 
d="M100 -240v700h600v-700h-600zM150 -190h500v600h-500v-600z" />
    <glyph glyph-name="uni0995_uni09CD_uni099F_uni09F0_uni09CD" horiz-adv-x="449" 
d="M-45 520h382q10 0 17.5 7.5t7.5 18.5q0 14 -19.5 24.5t-46.5 10.5h-184q-42 0 -72 27t-30 65q0 14 13.5 31.5t37.5 34.5l21 -15q-19 -11 -30 -26t-11 -30q0 -11 12 -18.5t29 -7.5h193q47 0 80 -26.5t33 -64.5q0 -13 7.5 -22t17.5 -9h11l35 -41h-173v-30q55 0 93.5 -42
t38.5 -101q0 -34 -18 -58t-43 -24q-21 0 -36 13.5t-15 32.5t13.5 32.5t32.5 13.5q13 0 24 -10t17 -26q14 39 -20 73t-87 34q0 -96 -27.5 -167t-74.5 -98q-31 -18 -44 -28t-13 -18q0 -13 28.5 -21.5t68.5 -8.5q23 0 45 12t37 34q-12 7 -19 17.5t-7 22.5q0 19 15 32.5t36 13.5
q19 0 32.5 -19.5t13.5 -46.5q0 -17 -6.5 -34t-18.5 -30v-196q-4 24 -26 40t-51 16q-28 0 -81.5 -15.5t-81.5 -15.5q-42 0 -72 30t-30 72h21q0 -17 21 -28.5t50 -11.5q21 0 61 12.5t61 12.5q26 0 49 -12t38 -34v99q-16 -8 -35.5 -12.5t-40.5 -4.5q-63 0 -108 42t-45 101
q36 10 66 26.5t51 39.5q-20 35 -58.5 55.5t-84.5 20.5l-46 57q69 49 129 76t106 31v30h-255zM97 321q35 -9 65 -34.5t52 -62.5q15 23 23 65t8 98q-36 -3 -74 -20t-74 -46z" />
    <glyph glyph-name="uni09B8_uni09CD_uni0995_uni09CD_uni09B2" horiz-adv-x="547" 
d="M-45 520h567l35 -41h-127q22 -18 34 -39.5t12 -41.5q0 -32 -28.5 -54.5t-69.5 -22.5v-4q62 -11 102.5 -50.5t40.5 -88.5q0 -32 -19.5 -54.5t-46.5 -22.5q-21 0 -36 13.5t-15 32.5q0 17 13.5 29t32.5 12q12 0 22 -7t14 -19q2 5 3.5 9.5t1.5 7.5q0 38 -34.5 64.5
t-83.5 26.5v-310h-20h-20v17q-9 18 -21 28.5t-23 10.5q-14 0 -23.5 -18t-9.5 -43h-12q-12 28 -36.5 44.5t-53.5 16.5q-28 0 -48 -16.5t-20 -39.5q0 -21 16.5 -35.5t39.5 -14.5q-10 5 -15.5 13t-5.5 17q0 14 11.5 24.5t27.5 10.5q17 0 28.5 -10.5t11.5 -25.5q0 -23 -18 -39.5
t-44 -16.5q-36 0 -61 27t-25 65q0 44 25 75.5t61 31.5q23 0 46 -20.5t39 -55.5q3 28 16 47t29 19q19 0 37 -14t28 -37v39q-28 40 -81 68.5t-123 40.5l-36 46q56 39 117 65t123 37v4q-37 6 -68.5 38.5t-49.5 82.5q-22 -60 -51.5 -97t-55.5 -37q-30 0 -56.5 23t-40.5 60l16 9
q8 -13 21.5 -20.5t29.5 -7.5q23 0 46.5 29.5t39.5 77.5h-174zM220 479q17 -46 55 -74t83 -28q29 0 50 16.5t21 39.5q0 13 -11 25t-29 21h-169zM180 203q54 -20 93.5 -53t59.5 -75v187q-34 0 -73 -15t-80 -44z" />
    <glyph glyph-name="uni09B7_uni09CD_uni099F_uni09AC_uni09CD" horiz-adv-x="397" 
d="M76 339q0 -23 16.5 -39t39.5 -16q20 0 42.5 9.5t43.5 27.5l-86 101q-27 -22 -41.5 -44t-14.5 -39zM157 441l87 -102q24 20 37.5 41t13.5 38q0 25 -16.5 43t-39.5 18q-18 0 -39 -10t-43 -28zM-10 479l-35 41h321q10 0 17.5 7.5t7.5 18.5q0 14 -19.5 24.5t-46.5 10.5
q-31 0 -92 -5t-92 -5q-42 0 -72 30t-30 72q0 17 6.5 34t19.5 32l21 -10q-10 -7 -15.5 -19t-5.5 -27q0 -23 15 -39.5t36 -16.5q32 0 94.5 7.5t94.5 7.5q46 0 79 -26.5t33 -64.5q0 -13 8 -22t19 -9h18l35 -41h-116q22 -22 33.5 -43.5t11.5 -40.5q0 -33 -31.5 -70.5
t-86.5 -69.5q-59 -34 -93 -68.5t-34 -59.5q0 -15 19.5 -25.5t46.5 -10.5q33 0 67 10.5t66 30.5v5q-18 3 -29.5 16t-11.5 30q0 21 16.5 36t39.5 15q25 0 43 -18t18 -43q0 -22 -13 -44t-36 -39v-234l-15 16q-20 29 -61.5 50t-96.5 31l-26 41q43 30 83 45.5t75 15.5v12
q-21 -8 -44.5 -12.5t-48.5 -4.5q-40 0 -89 36t-49 65q0 23 24.5 50.5t67.5 53.5q-44 8 -73 35.5t-29 62.5q0 31 22 64.5t61 61.5h-128zM276 -88v107q-24 -2 -50 -11t-52 -24q37 -13 63.5 -32t38.5 -40z" />
    <glyph glyph-name="uni09AF_uni09CD.pstf" horiz-adv-x="194" 
d="M-45 520h214l35 -41h-10q-37 -7 -61.5 -38.5t-24.5 -73.5q0 -47 15.5 -141t15.5 -141q0 -54 -49.5 -95.5t-122.5 -47.5l-5 17q51 4 86 39t35 82q0 44 -15.5 131t-15.5 131q0 39 24.5 75.5t67.5 61.5h-154z" />
    <glyph glyph-name="uni09CE" unicode="&#x9ce;" horiz-adv-x="399" 
d="M28 367q0 63 47.5 108t115.5 45q46 0 79 -30t33 -72t-30 -72t-72 -30q-38 0 -65 33t-27 79q-22 -18 -34 -39.5t-12 -41.5q0 -27 32 -57.5t86 -55.5q93 -44 148.5 -104.5t55.5 -119.5h-31q0 31 -44 69.5t-119 73.5t-119 93t-44 121zM140 449q13 -37 35.5 -59.5t45.5 -22.5
q21 0 36 10.5t15 25.5q0 23 -26.5 39.5t-64.5 16.5q-12 0 -22 -2.5t-19 -7.5z" />
    <glyph glyph-name="uni0995_uni09CD_uni0995" horiz-adv-x="529" 
d="M79 296q16 -3 34.5 -16t36.5 -35q34 20 66.5 30t60.5 10v102q-59 -10 -109.5 -33.5t-88.5 -57.5zM119 163q46 -8 87.5 -47t70.5 -101v230q-47 -8 -88 -29t-70 -53zM-10 479l-35 41h549l35 -41h-221v-41q70 0 119.5 -43t49.5 -104q0 -26 -16.5 -45.5t-40.5 -21.5
q15 -12 23 -31t8 -40q0 -30 -18 -51t-44 -21q-17 0 -28.5 12t-11.5 29t11.5 29t27.5 12q9 0 18 -5.5t14 -14.5q1 2 2.5 7.5t1.5 8.5q0 25 -41.5 55.5t-74.5 30.5v-322l-20 18q-30 82 -86 131.5t-118 49.5l-41 51l77 61q-10 12 -31.5 19t-50.5 7l-36 51q60 50 127 82.5
t138 44.5v41h-287zM318 285q19 0 36 -6t31 -18q0 17 9.5 29t23.5 12t23.5 -9t9.5 -21q5 3 7.5 10t2.5 16q0 37 -42 63t-101 26v-102z" />
    <glyph glyph-name="uni0995_uni09CD_uni099F" horiz-adv-x="455" 
d="M-45 520h377q10 0 17.5 7.5t7.5 18.5q0 14 -19.5 24.5t-46.5 10.5q-31 0 -92 -5t-92 -5q-42 0 -72 30t-30 72q0 17 6.5 34t19.5 32l21 -10q-10 -7 -15.5 -19t-5.5 -27q0 -23 15 -39.5t36 -16.5q32 0 94.5 7.5t94.5 7.5q46 0 79 -26.5t33 -64.5q0 -13 8 -22t19 -9h20
l35 -41h-179v-30q55 0 93.5 -42t38.5 -101q0 -34 -18 -58t-43 -24q-21 0 -36 13.5t-15 32.5t13.5 32.5t32.5 13.5q13 0 24 -10t17 -26q2 5 3 10.5t1 9.5q0 36 -32.5 61.5t-78.5 25.5v-80q0 -68 -28.5 -118t-73.5 -62q-21 -6 -34 -17t-13 -24q0 -17 25.5 -28.5t61.5 -11.5
q23 0 45 12t37 34q-12 3 -19 14t-7 26q0 21 15 36t36 15t36 -21t15 -50q0 -46 -43 -79t-104 -33q-63 0 -108 42t-45 101q39 11 69 26.5t48 34.5q-22 38 -60 59.5t-83 21.5l-46 57q69 49 129 76t106 31v30h-255zM97 321q35 -9 65 -34.5t52 -62.5q15 13 23 35t8 48v80
q-36 -3 -74 -20t-74 -46z" />
    <glyph glyph-name="uni0995_uni09CD_uni09A4" horiz-adv-x="669" 
d="M-45 520h689l35 -41h-689zM440 256q28 -24 43.5 -53.5t15.5 -59.5q0 -47 -37.5 -80t-90.5 -33q-101 0 -199.5 111.5t-157.5 291.5l31 -20q46 -141 133.5 -228.5t182.5 -87.5q42 0 72 19.5t30 46.5q0 14 -8 29t-23 27q-8 -12 -21.5 -18.5t-29.5 -6.5q-26 0 -44 18t-18 43
t18 43t44 18q10 0 18 -2.5t13 -7.5q13 20 19.5 34t6.5 22q0 28 -17 42t-50 14q-38 0 -73.5 -23.5t-58.5 -63.5q14 0 24.5 -13.5t10.5 -32.5q0 -21 -13.5 -36t-32.5 -15q-27 0 -46.5 18t-19.5 44q0 50 65 101.5t129 51.5q44 0 77 -24.5t40 -62.5q20 24 44.5 37.5t47.5 13.5
q34 0 58 -27t24 -65q0 -40 -24 -68.5t-58 -28.5q-21 0 -36 13.5t-15 32.5t13.5 32.5t32.5 13.5q15 0 25.5 -12t10.5 -29q10 0 17.5 9t7.5 22q0 25 -22.5 43t-53.5 18q-20 0 -39 -9.5t-33 -26.5q0 -14 -8.5 -33t-24.5 -42z" />
    <glyph glyph-name="uni0995_uni09CD_uni09A4_uni09F0_uni09CD" horiz-adv-x="709" 
d="M-45 520h729l35 -41h-729zM443 255q27 -22 41.5 -51.5t14.5 -60.5v-291l-21 10q-4 20 -19.5 33t-36.5 13q-28 0 -81.5 -15.5t-81.5 -15.5q-42 0 -72 30t-30 72q0 23 5 44.5t15 40.5l15 -10q-5 -11 -7.5 -24.5t-2.5 -30.5q0 -25 19.5 -42.5t47.5 -17.5q21 0 61 12.5
t61 12.5q26 0 49 -12t38 -34v142q-18 -15 -40.5 -22.5t-46.5 -7.5q-101 0 -199.5 111.5t-157.5 291.5l26 -10q47 -146 136 -236t185 -90q42 0 72 19.5t30 46.5q0 14 -8 29t-23 27q-12 -12 -25.5 -18.5t-25.5 -6.5q-25 0 -43 18t-18 43t18 43t43 18q4 0 15.5 -4t15.5 -6
q13 20 19.5 34t6.5 22q0 28 -17 42t-50 14q-38 0 -73.5 -23.5t-58.5 -63.5q14 0 24.5 -13.5t10.5 -32.5q0 -21 -18 -36t-43 -15q-21 0 -36 19.5t-15 47.5q0 43 69 95.5t125 52.5q44 0 77 -24.5t40 -62.5q20 24 44.5 37.5t47.5 13.5q34 0 58 -27t24 -65q0 -40 -24 -68.5
t-58 -28.5q-19 0 -32.5 15t-13.5 36q0 17 12 29t29 12q15 0 25.5 -12t10.5 -29q10 0 17.5 7.5t7.5 18.5q0 27 -22.5 46.5t-53.5 19.5q-20 0 -39 -9.5t-33 -26.5q0 -16 -7.5 -35.5t-22.5 -40.5z" />
    <glyph glyph-name="uni0995_uni09CD_uni09A4_uni09AC_uni09CD" horiz-adv-x="591" 
d="M-45 520h611l35 -41h-611zM375 -56l-15 10q-20 42 -62.5 67t-95.5 25l-36 46q19 13 35.5 23t31.5 17q-58 21 -116 103t-104 209l26 -6q30 -98 110 -181.5t145 -83.5q34 0 57.5 19.5t23.5 47.5q0 10 -6.5 19t-18.5 16q-7 -8 -16.5 -12.5t-19.5 -4.5q-19 0 -32.5 12.5
t-13.5 30.5t13.5 31t32.5 13q10 0 18 -3.5t13 -10.5q10 12 15 28t5 34q0 14 -10.5 24.5t-25.5 10.5q-49 0 -85.5 -17.5t-46.5 -45.5q17 0 29 -11.5t12 -28.5q0 -20 -15 -34t-36 -14q-22 0 -38 17.5t-16 41.5q0 53 48.5 90.5t117.5 37.5q38 0 65.5 -28t31.5 -69
q26 31 58 48.5t64 17.5t54.5 -22.5t22.5 -53.5q0 -19 -12 -32.5t-29 -13.5t-29 12t-12 29q0 9 5 18t15 17q-6 5 -16.5 8t-23.5 3q-30 0 -59 -19.5t-48 -52.5q-3 -10 -8.5 -18t-12.5 -12q20 -12 32 -35t12 -52q0 -22 -9 -39.5t-25 -26.5v-199zM238 82q41 -15 67.5 -32.5
t34.5 -34.5v117q-25 -7 -50.5 -19.5t-51.5 -30.5z" />
    <glyph glyph-name="uni0995_uni09CD_uni09A8" horiz-adv-x="514" 
d="M303 -10l-20 20q-15 57 -51 92.5t-77 35.5q7 -9 11 -19.5t4 -21.5q0 -21 -16 -36t-38 -15q-24 0 -41 18t-17 43q0 29 22.5 50t54.5 21q33 0 66.5 -21.5t60.5 -59.5v51q-21 45 -78.5 75t-135.5 37l-33 51q71 59 133.5 96.5t113.5 51.5v20h-272l-35 41h534l35 -41h-221v-20
q66 0 113 -51t47 -123q0 -39 -19 -66t-46 -27q-23 0 -39.5 14t-16.5 34q0 19 14 32t34 13q12 0 22.5 -5.5t17.5 -14.5q1 4 4.5 8.5t3.5 6.5q0 49 -39.5 83.5t-95.5 34.5v-408zM99 301q61 -22 103.5 -54t59.5 -69v220q-44 -12 -85.5 -36.5t-77.5 -60.5z" />
    <glyph glyph-name="uni0995_uni09CD_uni09AE" horiz-adv-x="549" 
d="M-45 520h569l35 -41h-80v-530l-20 20q-12 66 -59.5 109.5t-108.5 43.5q0 -2 0.5 -4.5t0.5 -5.5q0 -27 -19 -46.5t-46 -19.5t-45.5 20t-18.5 48q0 29 21 49t51 20q-30 52 -82 82.5t-112 30.5l-31 51q53 45 111 71t114 31v30h-245zM87 341q42 -11 80.5 -44t67.5 -83v184
q-44 -4 -81.5 -18.5t-66.5 -38.5zM275 479v-35q55 0 94 -36t39 -87q0 -38 -18 -65t-43 -27q-17 0 -29 12t-12 29q0 15 10.5 25.5t25.5 10.5q12 0 22 -6t13 -15q5 4 8 9.5t3 11.5q0 38 -33 65t-80 27v-215q50 -9 93 -41t71 -81v418h-164z" />
    <glyph glyph-name="uni0995_uni09F0_uni09CD" horiz-adv-x="605" 
d="M-45 520h625l35 -41h-625zM22 183q0 17 6.5 37t19.5 40l15 -10q-5 -9 -7.5 -23t-2.5 -33q0 -26 19.5 -44t46.5 -18q23 0 69 5.5t69 5.5q28 0 54.5 -18t42.5 -49v301q0 14 -7.5 24t-18.5 10q-40 0 -80.5 -43.5t-40.5 -86.5q5 9 16 14.5t24 5.5q19 0 32.5 -13.5t13.5 -32.5
q0 -23 -21 -39.5t-51 -16.5q-29 0 -50 21t-21 50q0 55 58 122t105 67q24 0 53 -27.5t29 -49.5v-76q12 32 35.5 51.5t50.5 19.5q36 0 61.5 -28.5t25.5 -68.5t-22.5 -68.5t-53.5 -28.5q-23 0 -39.5 15t-16.5 36q0 17 11.5 29t28.5 12t29 -13.5t12 -32.5q9 0 15 9t6 22
q0 27 -21 46.5t-51 19.5q-29 0 -50 -18t-21 -43v-301l-21 20q0 40 -21 68.5t-50 28.5q-26 0 -79 -5t-79 -5q-51 0 -87 33t-36 79z" />
    <glyph glyph-name="uni0995_uni09CD_uni09B2" horiz-adv-x="572" 
d="M-45 520h592l35 -41h-221v-30q72 0 122.5 -51t50.5 -123q0 -38 -22.5 -65t-53.5 -27q-24 0 -40.5 14.5t-16.5 35.5q0 19 13 33t32 14q18 0 31 -12.5t13 -30.5q7 8 10.5 20.5t3.5 27.5q0 42 -42 72t-101 30v-423l-20 20q-9 51 -29.5 84.5t-42.5 33.5q-12 0 -21 -18t-9 -43
h-21q-10 27 -37 44t-62 17q-24 0 -41.5 -15.5t-17.5 -37.5q0 -18 14.5 -31t35.5 -13q-7 6 -10.5 13t-3.5 15q0 16 10.5 27t25.5 11q14 0 24.5 -12t10.5 -29q0 -21 -18 -36t-43 -15q-34 0 -58 27t-24 65t28.5 65t68.5 27q21 0 44 -17.5t42 -48.5q7 25 18.5 40.5t23.5 15.5
q20 0 44 -25t45 -67h3q-16 90 -86.5 146t-158.5 48l-51 66q59 49 129 82t146 46v30h-330zM124 303q69 -20 120 -56.5t76 -83.5v224q-53 -3 -103.5 -24.5t-92.5 -59.5z" />
    <glyph glyph-name="uni0995_uni09AC_uni09CD" horiz-adv-x="515" 
d="M74 291q20 -2 40.5 -14.5t38.5 -33.5q32 19 64 29.5t61 12.5v102q-37 0 -89.5 -24.5t-114.5 -71.5zM125 163q42 -7 82 -41t71 -88v206q-47 -13 -86 -32.5t-67 -44.5zM-10 479l-35 41h535l35 -41h-206v-41q70 0 119.5 -45t49.5 -108q0 -46 -22.5 -79t-54.5 -33
q-24 0 -41 16.5t-17 39.5q0 22 15.5 37t37.5 15q15 0 27 -10t16 -26q6 7 9.5 15.5t3.5 18.5q0 45 -42 76.5t-101 31.5v-433l-20 15q-23 64 -78.5 105.5t-125.5 47.5l-41 46l71 61q-10 12 -31.5 19t-49.5 7l-31 46q66 66 135 101.5t130 35.5v41h-288z" />
    <glyph glyph-name="uni0995_uni09CD_uni09B7" horiz-adv-x="646" 
d="M-45 520h666l35 -41h-220v-71q11 5 25 7.5t31 2.5q51 0 86.5 -34.5t35.5 -83.5q0 -53 -25 -90t-61 -37q-26 0 -44 18t-18 43q0 21 16.5 36t39.5 15q15 0 27.5 -9.5t18.5 -25.5q8 5 12 14.5t4 20.5q0 24 -22.5 40.5t-54.5 16.5q-12 0 -35.5 -8t-35.5 -8v-362l-21 26
q0 63 -34 115.5t-91 79.5q-3 -26 -23 -43.5t-46 -17.5q-29 0 -50 20.5t-21 49.5t21 50t50 21q6 0 11.5 -1.5t9.5 -3.5q5 7 7.5 15t2.5 16q0 31 -30 53.5t-72 22.5v-10q0 -27 -19.5 -46.5t-46.5 -19.5q-28 0 -47.5 19.5t-19.5 46.5q0 29 19.5 50t47.5 21q9 8 1 24t-27 27h-68
zM119 479q0 -18 3 -31.5t8 -19.5q54 0 108.5 -68.5t54.5 -135.5q36 -17 62.5 -45t39.5 -63v210q-54 0 -108.5 51.5t-54.5 101.5h-113zM283 479q-3 -2 -4.5 -10t-1.5 -20q0 -21 19.5 -36t47.5 -15q14 0 26.5 1.5t24.5 3.5v76h-112z" />
    <glyph glyph-name="uni0995_uni09CD_uni09B7_uni09CD_uni09A3" horiz-adv-x="630" 
d="M399 -10q-9 53 -42.5 87.5t-74.5 34.5q10 -6 15.5 -19.5t5.5 -31.5q0 -27 -20 -46.5t-49 -19.5t-49 22.5t-20 53.5q0 34 27 58t65 24q36 0 68.5 -20.5t53.5 -56.5v46q-23 49 -49 78t-48 29q0 -25 -21 -43t-50 -18t-50 21t-21 51q0 27 22.5 46.5t53.5 19.5h20q2 4 3.5 12
t1.5 18q0 24 -19.5 40.5t-46.5 16.5q-8 0 -13 -0.5t-8 -1.5q2 -5 3 -10t1 -9q0 -31 -21 -53.5t-50 -22.5t-49.5 21t-20.5 50t21 50t51 21h20q-9 15 -20.5 25.5t-25.5 15.5h-73l-35 41h650l35 -41h-220v-61q4 2 13.5 3.5t22.5 1.5q53 0 90 -34.5t37 -82.5q0 -42 -22.5 -72
t-53.5 -30q-24 0 -40.5 16.5t-16.5 39.5q0 21 15 36t36 15q19 0 33 -7t18 -19q2 4 6.5 11t4.5 10q0 25 -27 43t-65 18q-12 0 -24.5 -2.5t-26.5 -7.5v-388zM379 158v199q-4 -2 -12 -3.5t-19 -1.5q-39 0 -73 35.5t-49 91.5h-112q12 -10 18.5 -20.5t6.5 -20.5q59 0 101 -47.5
t42 -115.5q37 -22 62.5 -52t34.5 -65zM338 413q12 0 22 2.5t19 7.5v56h-102q-4 0 -7 -6t-3 -14q0 -19 21 -32.5t50 -13.5z" />
    <glyph glyph-name="uni0995_uni09CD_uni09B7_uni09CD_uni09AE" horiz-adv-x="643" 
d="M-45 520h663l35 -41h-80v-566l-25 26q-11 62 -59.5 104.5t-114.5 48.5q0 -23 -15 -39.5t-36 -16.5q-23 0 -39.5 16.5t-16.5 39.5q0 28 26.5 45.5t60.5 11.5q-8 31 -39.5 50.5t-72.5 19.5q0 -23 -16 -39.5t-38 -16.5t-37.5 16.5t-15.5 39.5t15.5 39.5t37.5 16.5
q10 0 19 -3t14 -8q-4 48 -33.5 80.5t-68.5 32.5q2 -5 3 -9.5t1 -7.5q0 -22 -16 -37t-39 -15q-22 0 -38 15t-16 37q0 24 22 41t53 17q-2 23 -9 39t-17 22h-73zM119 479q-5 -6 -7.5 -21.5t-2.5 -39.5q55 0 94 -45t39 -109q28 -9 51.5 -24.5t39.5 -36.5v141q-55 10 -94 47
t-48 88h-72zM374 479v-81q52 5 90 -22.5t38 -69.5q0 -30 -16.5 -51t-39.5 -21q-19 0 -32.5 12t-13.5 29t13.5 29t32.5 12q9 0 16.5 -2.5t13.5 -7.5q1 1 0.5 6t-0.5 9q-6 16 -18.5 26t-27.5 10q-10 0 -28 -5.5t-28 -5.5v-203q43 -8 83.5 -40t69.5 -83v459h-153zM221 479
q0 -3 -0.5 -6t-0.5 -6q0 -32 23.5 -55t57.5 -23q8 0 16 1.5t16 4.5v84h-112z" />
    <glyph glyph-name="uni0995_uni09CD_uni09B7_uni09F0_uni09CD" horiz-adv-x="664" 
d="M-45 520h684l35 -41h-220v-74q31 5 47 7t24 2q46 0 79 -43.5t33 -105.5q0 -38 -23.5 -65t-57.5 -27q-25 0 -43 18t-18 43q0 21 16.5 36t39.5 15q15 0 27.5 -9.5t18.5 -25.5q7 4 11 9.5t4 10.5q0 30 -25.5 51t-61.5 21q-15 0 -33 -3t-38 -8v-367l-21 26q0 12 -24.5 21
t-59.5 9q-34 0 -99.5 -18t-99.5 -18q-38 0 -65 28.5t-27 68.5q0 15 5 30.5t15 31.5l21 -11q-5 -6 -7.5 -17.5t-2.5 -27.5q0 -17 11.5 -29t28.5 -12q30 0 87 17.5t87 17.5q34 0 66.5 -13t59.5 -37q-10 48 -41.5 87t-76.5 60q-3 -24 -23 -40t-48 -16q-31 0 -52.5 21t-21.5 50
q0 30 21.5 51t52.5 21q6 0 11 -1.5t9 -3.5q5 7 7.5 15t2.5 16q0 31 -30 53.5t-72 22.5v-10q0 -30 -21 -51t-50 -21t-50 21t-21 50q0 30 23.5 51t57.5 21q0 15 -8.5 29t-22.5 22h-86zM132 479q8 -14 12 -27t4 -24q54 0 108.5 -68.5t54.5 -135.5q35 -16 63 -49t44 -78l-5 232
q-54 0 -108.5 50.5t-54.5 99.5h-118zM301 479q-2 -7 -3.5 -15.5t-1.5 -19.5q0 -19 19.5 -32.5t46.5 -13.5q14 0 26.5 1.5t24.5 3.5v76h-112z" />
    <glyph glyph-name="uni0995_uni09CD_uni09B7_uni09AC_uni09CD" horiz-adv-x="646" 
d="M-10 479l-35 41h666l35 -41h-220v-77q11 4 29 6.5t42 2.5q46 0 79 -43t33 -103q0 -38 -23.5 -65t-57.5 -27q-26 0 -44 18t-18 43q0 21 16.5 36t39.5 15q15 0 27.5 -9.5t18.5 -25.5q7 4 11.5 9.5t4.5 10.5q0 30 -25.5 51t-61.5 21q-15 0 -33 -3t-38 -8v-501l-21 17
q-16 48 -72.5 77t-131.5 29l-36 65q49 38 94.5 66.5t87.5 47.5q-17 17 -33 29t-31 17q-9 -25 -29 -40.5t-43 -15.5q-29 0 -50 21t-21 51q0 29 21 50t50 21q6 0 11.5 -1.5t9.5 -3.5q3 5 5 13t2 18q0 31 -29 53.5t-70 22.5v-10q0 -27 -19.5 -46.5t-46.5 -19.5
q-28 0 -47.5 19.5t-19.5 46.5q0 29 19.5 50t47.5 21q0 17 -7 30.5t-19 20.5h-68zM119 479q0 -18 3 -31.5t8 -19.5q68 0 115.5 -60t47.5 -144q26 -12 48 -33t38 -49q1 0 7.5 2.5t8.5 3.5v178q-54 0 -108.5 51.5t-54.5 101.5h-113zM283 479q-3 -8 -4.5 -17t-1.5 -18
q0 -19 19.5 -32.5t47.5 -13.5q14 0 26.5 1.5t24.5 3.5v76h-112zM252 -4q51 -9 88.5 -31t54.5 -52v165q-36 -10 -72 -31t-71 -51z" />
    <glyph glyph-name="uni0995_uni09CD_uni09B8" horiz-adv-x="540" 
d="M-45 520h560l35 -41h-80v-540l-41 40v113q-14 24 -29 37.5t-27 13.5q-24 0 -89 -56.5t-89 -56.5q-38 0 -65 34.5t-27 83.5l20 5q4 -24 15.5 -40t25.5 -16q19 0 40.5 13.5t41.5 37.5q-22 62 -75.5 99.5t-118.5 37.5l-41 57q59 49 114 75.5t100 26.5v35h-235zM78 326
q51 -9 90 -37.5t57 -69.5v179q-40 -3 -78 -22t-69 -50zM266 479v-35q55 0 94 -37.5t39 -90.5q0 -34 -16.5 -58t-39.5 -24q-21 0 -36 12.5t-15 29.5t10.5 28.5t25.5 11.5q14 0 25 -10t12 -24q5 7 7.5 15.5t2.5 17.5q0 34 -32 58.5t-77 24.5v-230q21 17 39.5 26.5t32.5 9.5
q27 0 52 -24t39 -63v362h-163z" />
    <glyph glyph-name="uni0996_uni09F0_uni09CD" horiz-adv-x="473" 
d="M148 30q-42 0 -72 43.5t-30 104.5q0 18 5 36.5t15 35.5l16 -16q-5 -9 -8 -20.5t-3 -24.5q0 -38 22.5 -65t54.5 -27q23 0 69 5t69 5q19 0 39.5 -16.5t36.5 -44.5q-6 70 -67 124t-152 70l-56 71q82 0 140.5 28.5t58.5 68.5q0 19 -10.5 32.5t-25.5 13.5q-39 -39 -79 -60.5
t-74 -21.5q-27 0 -46.5 16.5t-19.5 39.5t16.5 39.5t39.5 16.5q19 0 32.5 -13t13.5 -32q24 9 50 29.5t52 51.5q38 -22 59.5 -57.5t21.5 -75.5q0 -35 -30 -64.5t-77 -42.5q51 -24 90 -63t63 -90v454h10l31 -51v-10h45l35 -41h-80v-495h-15q-5 27 -29.5 44.5t-57.5 17.5
q-26 0 -76.5 -8t-76.5 -8z" />
    <glyph glyph-name="uni0996_uni09AC_uni09CD" horiz-adv-x="450" 
d="M146 132q57 33 101 51.5t72 20.5q-33 33 -90.5 47.5t-128.5 8.5l-46 61q82 0 140.5 33t58.5 79q0 8 -5.5 16t-15.5 15q-26 -31 -64.5 -48.5t-82.5 -17.5q-32 0 -54.5 18t-22.5 43q0 23 15 39.5t36 16.5q17 0 29 -13.5t12 -32.5q27 0 53 17.5t44 48.5q48 -34 75 -70
t27 -67q0 -36 -20 -65.5t-52 -41.5q23 -2 52.5 -23.5t60.5 -58.5v372h10l30 -51v-10h45l35 -41h-80v-530l-20 15q-23 49 -71 78t-107 29zM222 112q33 -8 63.5 -30.5t54.5 -56.5v128q-33 -3 -63 -13.5t-55 -27.5z" />
    <glyph glyph-name="uni0997_uni09C1" horiz-adv-x="591" 
d="M387 0q-91 0 -192.5 95t-184.5 257l34 -16q74 -123 163.5 -194t171.5 -71q46 0 79 24t33 58q0 15 -11 31.5t-31 29.5q-8 -17 -22 -26.5t-29 -9.5q-23 0 -39.5 15t-16.5 36q0 23 16 39.5t39 16.5q12 0 22 -4t18 -11q34 14 54 49t20 79q0 29 -18.5 50t-45.5 21
q-31 0 -53 -35.5t-22 -86.5h-10q-25 51 -58 81.5t-63 30.5q-31 0 -52.5 -18.5t-21.5 -44.5q11 8 25 12.5t31 4.5q33 0 56 -25.5t23 -61.5q0 -40 -26 -76.5t-70 -60.5l-52 40q55 23 87.5 56t32.5 64q0 11 -9.5 18.5t-23.5 7.5q-26 0 -53.5 -14.5t-50.5 -41.5q-12 17 -18.5 37
t-6.5 42q0 51 35.5 86.5t85.5 35.5q26 0 53.5 -25t48.5 -67q15 42 39.5 68t49.5 26q45 0 86 -42t41 -88q0 -43 -23.5 -83.5t-64.5 -68.5v-6q32 -14 51.5 -43.5t19.5 -63.5q0 -53 -43 -90t-104 -37z" />
    <glyph glyph-name="uni0997_uni09CD_uni0997" horiz-adv-x="414" 
d="M38 377q0 51 35.5 87t86.5 36q41 0 80 -30.5t63 -82.5v194h10l31 -51v-10h45l35 -41h-80v-540l-21 20q0 99 -41.5 169.5t-100.5 70.5q-29 0 -51 -16t-26 -40q9 5 22 7.5t29 2.5q32 0 64.5 -24t32.5 -48q0 -20 -10.5 -43.5t-30.5 -47.5l-71 30q35 25 53 42.5t18 29.5
q0 8 -9 14t-21 6q-21 0 -54 -25.5t-54 -25.5q-14 0 -24.5 18t-10.5 43q0 44 40 75.5t97 31.5q37 0 71.5 -27.5t56.5 -74.5v209q0 37 -41 75t-81 38q-32 0 -56.5 -19t-30.5 -48q14 8 30.5 12t35.5 4q27 0 54.5 -27.5t27.5 -54.5q0 -14 -8 -31t-23 -35l-71 20q26 20 41 39
t15 33q0 8 -6 14t-15 6q-19 0 -51 -20.5t-51 -20.5q-14 0 -24.5 16.5t-10.5 39.5z" />
    <glyph glyph-name="uni0997_uni09CD_uni09A6" horiz-adv-x="621" 
d="M541 10q-23 39 -34.5 91t-11.5 113q0 45 7.5 81t22.5 62q-42 -19 -83.5 -64t-79.5 -110l-51 51v133q-22 47 -57.5 74.5t-74.5 27.5q-42 0 -72 -22.5t-30 -54.5q11 8 26.5 12t34.5 4q38 0 65 -36t27 -87q0 -34 -21.5 -74t-60.5 -79l-56 41q44 37 68 81t24 88q0 8 -9 14
t-22 6q-20 0 -46.5 -13t-55.5 -38q-14 8 -22.5 28.5t-8.5 47.5q0 49 43.5 91t94.5 42q49 0 91 -33.5t62 -88.5v122h285l35 -41h-279v-209h5q40 57 88 99t101 67l61 -49q-37 -37 -57 -95t-20 -129q0 -52 9 -94.5t27 -73.5z" />
    <glyph glyph-name="uni0997_uni09CD_uni09A7" horiz-adv-x="575" 
d="M323 336q0 47 -47.5 95t-94.5 48q-42 0 -72 -22.5t-30 -53.5q17 15 33 22.5t28 7.5q30 0 61 -29t31 -57q0 -31 -21.5 -63.5t-60.5 -59.5l-77 41q54 25 86 54t32 53q0 11 -9 18.5t-22 7.5q-21 0 -53.5 -28t-53.5 -28q-15 0 -25.5 19.5t-10.5 46.5q0 51 39 86.5t94 35.5
t103 -37.5t70 -99.5v188h11l30 -51v-10h186l35 -41h-221v-168q22 13 37.5 19.5t23.5 6.5q18 0 40 -22t22 -40v-204q0 -15 6.5 -29.5t18.5 -26.5l-5 -15q-28 16 -44.5 41t-16.5 51v204l-82 -36v-301l-20 20q-17 63 -68.5 103t-115.5 40l-41 41q35 29 86 63t118 73v37z
M206 163q34 -12 64 -39.5t53 -67.5v184q-49 -28 -77 -46.5t-40 -30.5z" />
    <glyph glyph-name="uni0997_uni09CD_uni09A7_uni09AC_uni09CD" horiz-adv-x="575" 
d="M323 336q0 47 -47.5 95t-94.5 48q-42 0 -72 -21t-30 -50q17 15 34 22.5t32 7.5q30 0 61 -37t31 -74q0 -20 -23 -47t-64 -56l-77 41q54 25 86 54t32 53q0 11 -9 18.5t-22 7.5q-21 0 -53.5 -28t-53.5 -28q-15 0 -25.5 19.5t-10.5 46.5q0 51 39 86.5t94 35.5t103 -37.5
t70 -99.5v188h11l30 -51v-10h186l35 -41h-221v-168q18 10 33.5 15.5t27.5 5.5q18 0 40 -20.5t22 -36.5v-204q0 -15 6.5 -29.5t18.5 -26.5l-5 -15q-28 16 -44.5 41t-16.5 51v204l-82 -36v-388l-20 16q-21 30 -60.5 51t-92.5 30l-26 41q44 30 75 47.5t49 20.5
q-22 21 -55.5 32.5t-73.5 11.5l-41 41q35 29 86 63t118 73v37zM323 47q-14 -1 -38.5 -12.5t-63.5 -34.5q37 -13 63.5 -32t38.5 -40v119zM206 163q39 -14 67 -34t42 -44l8 1v154q-49 -28 -77 -46.5t-40 -30.5z" />
    <glyph glyph-name="uni0997_uni09CD_uni09A7_uni09F0_uni09CD" horiz-adv-x="607" 
d="M356 336q-4 50 -50.5 96.5t-92.5 46.5q-42 0 -72 -21t-30 -50q12 10 27.5 15t33.5 5q30 0 61 -27t31 -54q0 -31 -21.5 -63.5t-60.5 -59.5l-76 41q54 25 85.5 54t31.5 53q0 11 -9 18.5t-21 7.5q-21 0 -54 -28t-54 -28q-14 0 -24.5 19.5t-10.5 46.5q0 51 38.5 86.5
t93.5 35.5q56 0 104 -37.5t70 -99.5v188h10l31 -51v-10h185l35 -41h-220v-168q18 10 33.5 15.5t27.5 5.5q18 0 39.5 -20.5t21.5 -36.5v-204q0 -15 6.5 -29.5t18.5 -26.5l-5 -15q-28 16 -44.5 41t-16.5 51v204l-81 -36v-301l-21 20q0 15 -21 25.5t-51 10.5q-23 0 -67.5 -8
t-67.5 -8q-55 0 -94 31.5t-39 75.5q0 27 4.5 49t13.5 37l18 -10q-4 -5 -6 -17t-2 -29q0 -34 22.5 -57.5t54.5 -23.5q21 0 63 5.5t63 5.5t41.5 -6t38.5 -17q-26 37 -67 58t-87 21l-41 41q35 29 86 63t118 73v37zM238 163q41 -15 71.5 -41.5t46.5 -60.5v179q-51 -29 -78.5 -47
t-39.5 -30z" />
    <glyph glyph-name="uni0997_uni09CD_uni09A8" horiz-adv-x="435" 
d="M324 336q0 47 -47.5 95t-94.5 48q-42 0 -72 -21t-30 -50q14 12 30 18.5t31 6.5q30 0 61 -29t31 -57q0 -31 -21.5 -63.5t-60.5 -59.5l-77 41q54 25 86 54t32 53q0 11 -9 18.5t-22 7.5q-21 0 -53.5 -28t-53.5 -28q-15 0 -25.5 19.5t-10.5 46.5q0 51 39 86.5t94 35.5
t103 -37.5t70 -99.5v188h9l32 -51v-10h45l35 -41h-80v-530l-20 25q0 57 -43 115.5t-85 58.5q-7 0 -12 -1.5t-8 -3.5q7 -6 11 -15.5t4 -20.5q0 -27 -19.5 -46.5t-46.5 -19.5t-46.5 21t-19.5 50q0 34 27 58t65 24q48 0 89 -27.5t63 -74.5v244z" />
    <glyph glyph-name="uni0997_uni09CD_uni09AE" horiz-adv-x="577" 
d="M323 336q0 47 -47.5 95t-94.5 48q-42 0 -72 -19.5t-30 -46.5q12 10 27.5 15t33.5 5q30 0 61 -29t31 -57q0 -31 -21.5 -63.5t-60.5 -59.5l-77 41q54 25 86 54t32 53q0 11 -9 18.5t-22 7.5q-21 0 -53.5 -28t-53.5 -28q-15 0 -25.5 19.5t-10.5 46.5q0 51 39 86.5t94 35.5
t103 -37.5t70 -99.5v188h11l30 -41v-20h188l35 -41h-80v-525l-20 25q-4 51 -37.5 92.5t-85.5 60.5q0 -29 -21 -50t-50 -21q-30 0 -51 21t-21 50q0 30 21 51t51 21q8 0 15.5 -1.5t14.5 -3.5v137zM364 479v-296q32 -15 58.5 -42.5t43.5 -64.5v403h-102z" />
    <glyph glyph-name="uni0997_uni09F0_uni09CD" horiz-adv-x="495" 
d="M385 336q-8 47 -56 95t-87 48q-42 0 -72 -21t-30 -50q12 10 27.5 15t33.5 5q30 0 61 -27t31 -54q0 -31 -21.5 -63.5t-60.5 -59.5l-76 41q51 24 81.5 51.5t30.5 50.5q0 11 -7.5 18.5t-18.5 7.5q-21 0 -53.5 -25.5t-53.5 -25.5q-14 0 -24.5 19.5t-10.5 46.5q0 51 38.5 86.5
t93.5 35.5t103 -39.5t71 -103.5v194h10l30 -51v-10h45l35 -41h-80v-489l-20 20q0 38 -27 65t-65 27q-30 0 -89 -5t-89 -5q-44 0 -75.5 38.5t-31.5 93.5q0 20 4 38t11 34l15 -11q-2 -5 -3.5 -16.5t-1.5 -28.5q0 -36 21 -61.5t50 -25.5q28 0 84.5 5t84.5 5q27 0 52 -18t40 -48
v239z" />
    <glyph glyph-name="uni0997_uni09F0_uni09CD_uni09C1" horiz-adv-x="635" 
d="M384 336q-5 61 -46.5 102t-96.5 41q-42 0 -72 -21t-30 -50q12 10 27.5 15t33.5 5q30 0 61 -27t31 -54q0 -31 -21.5 -63.5t-60.5 -59.5l-76 41q54 25 85.5 54t31.5 53q0 11 -9 18.5t-22 7.5q-21 0 -53.5 -28t-53.5 -28q-14 0 -24.5 19.5t-10.5 46.5q0 51 38.5 86.5
t93.5 35.5q62 0 110.5 -35.5t63.5 -91.5v178h10l30 -51v-10h186l35 -41h-221v-163q14 -24 36 -37.5t46 -13.5q29 0 50 19.5t21 46.5q0 19 -8.5 33.5t-22.5 17.5l-1 -3q6 -4 9 -10t3 -12q0 -19 -13.5 -33t-32.5 -14t-32.5 14t-13.5 33q0 21 16.5 36t39.5 15q34 0 58 -31.5
t24 -75.5q0 -36 -25.5 -61.5t-61.5 -25.5q-29 0 -54 21t-38 56v-322l-20 26q0 44 -27 75.5t-65 31.5q-26 0 -76.5 -5t-76.5 -5q-55 0 -93.5 38.5t-38.5 93.5q0 20 4 38t11 34l17 -7q-3 -13 -5 -27t-2 -28q0 -34 27 -57.5t65 -23.5q25 0 74 5t74 5q28 0 53 -21t39 -55v249z
" />
    <glyph glyph-name="uni0997_uni09F0_uni09CD_uni09C2" horiz-adv-x="634" 
d="M383 336q-4 47 -52 95t-91 48q-42 0 -72 -21t-30 -50q14 12 29.5 18t31.5 6q30 0 61 -28.5t31 -56.5q0 -31 -21.5 -63.5t-60.5 -59.5l-76 41q54 25 85.5 54t31.5 53q0 11 -9 18.5t-22 7.5q-21 0 -53.5 -28t-53.5 -28q-14 0 -24.5 19.5t-10.5 46.5q0 51 38.5 86.5
t93.5 35.5q51 0 98.5 -36t75.5 -96v183h10l30 -51v-10h186l35 -41h-221v-102q27 16 44.5 23.5t27.5 7.5q29 0 50 -19.5t21 -46.5t-10 -79.5t-10 -79.5q0 -49 5 -92.5t15 -80.5q-28 16 -44.5 35t-16.5 36q0 44 5 133t5 133q-21 0 -44.5 -10.5t-47.5 -30.5v-337l-20 21
q0 46 -27 79t-65 33q-24 0 -71 -5t-71 -5q-59 0 -101 41.5t-42 100.5q0 15 4 30.5t11 31.5l15 -11q-2 -9 -3.5 -22t-1.5 -29q0 -34 30 -57.5t73 -23.5q23 0 68.5 5t68.5 5q26 0 50.5 -19t41.5 -52v244z" />
    <glyph glyph-name="uni0997_uni09CD_uni09B2" horiz-adv-x="456" 
d="M345 336q0 47 -48 95t-95 48q-40 0 -68.5 -19.5t-28.5 -46.5q12 10 26 15t30 5q30 0 61 -29t31 -57q0 -31 -21.5 -63.5t-60.5 -59.5l-76 41q54 25 85.5 54t31.5 53q0 11 -9 18.5t-21 7.5q-21 0 -54 -28t-54 -28q-14 0 -24.5 19.5t-10.5 46.5q0 51 38.5 86.5t93.5 35.5
q51 0 98.5 -36t75.5 -96v183h10l31 -51v-10h45l35 -41h-80v-510l-21 26q0 45 -29 91t-58 46q-12 0 -21 -21t-9 -50h-15q-15 32 -40 51.5t-52 19.5q-21 0 -36 -18t-15 -43q0 -16 8 -28.5t22 -17.5q-5 6 -7.5 12.5t-2.5 13.5q0 17 12 29t29 12t29 -12t12 -29q0 -21 -18 -36
t-43 -15q-38 0 -65 27t-27 65q0 42 27 72t65 30q28 0 53 -21t38 -56q0 32 13.5 54.5t32.5 22.5q22 0 43 -25.5t34 -66.5v234z" />
    <glyph glyph-name="uni0997_uni09AC_uni09CD" horiz-adv-x="434" 
d="M323 336q-2 47 -49 95t-91 48q-43 0 -73.5 -21t-30.5 -50q14 12 30 18.5t31 6.5q30 0 61 -29t31 -57q0 -31 -21.5 -63.5t-60.5 -59.5l-77 41q54 25 86 54t32 53q0 11 -9 18.5t-22 7.5q-21 0 -53.5 -28t-53.5 -28q-15 0 -25.5 19.5t-10.5 46.5q0 51 39 86.5t94 35.5
t103 -37.5t70 -99.5v188h9l32 -51v-10h45l35 -41h-80v-525l-20 25q-11 62 -63 102.5t-121 40.5l-41 41q55 55 106.5 89.5t97.5 46.5v37zM206 163q42 -15 72 -40.5t45 -56.5v174q-30 -5 -60 -25t-57 -52z" />
    <glyph glyph-name="uni0998_uni09CD_uni09A8" horiz-adv-x="432" 
d="M87 433q0 -29 29 -43.5t63 -2.5l51 41l33 -46l-125 -107q56 -10 104 -45t79 -88v337h-193q-18 -5 -29.5 -18t-11.5 -28zM-10 479l-35 41h452l35 -41h-80v-525l-20 20q-4 49 -52 95.5t-91 42.5q9 -7 14.5 -17.5t5.5 -23.5q0 -25 -16.5 -43t-39.5 -18q-27 0 -46.5 21
t-19.5 50q0 30 27 51t65 21q45 0 84.5 -32t58.5 -85h5q-7 80 -71.5 134t-153.5 54l-61 61l87 72q-48 -8 -85.5 16.5t-37.5 64.5q0 8 5.5 18.5t15.5 22.5h-46z" />
    <glyph glyph-name="uni0998_uni09F0_uni09CD" horiz-adv-x="451" 
d="M105 433q0 -29 29 -43.5t63 -2.5l46 41l39 -46l-121 -102q45 -4 92.5 -44.5t86.5 -108.5v352h-194q-19 -9 -30 -21.5t-11 -24.5zM-10 479l-35 41h471l35 -41h-80v-525l-21 25q0 28 -21 47.5t-50 19.5q-22 0 -66.5 -2.5t-66.5 -2.5q-51 0 -86.5 33t-35.5 79q0 11 3.5 24
t9.5 27l17 -10q-2 -5 -3.5 -11.5t-1.5 -14.5q0 -25 22.5 -43t54.5 -18q19 0 56 2.5t56 2.5q30 0 58 -17.5t46 -48.5h3q-11 64 -93 129t-152 65l-41 45l87 72q-48 -8 -85 16.5t-37 64.5q0 8 5 18.5t15 22.5h-64z" />
    <glyph glyph-name="uni0998_uni09AC_uni09CD" horiz-adv-x="425" 
d="M-45 520h445l35 -41h-80l-1 -592l-20 16q-16 48 -69.5 77t-124.5 29l-46 65l64 47t56 36q-26 16 -55 25t-59 12l-51 61l92 81q-51 0 -87 27t-36 65q0 16 5.5 29.5t15.5 21.5h-49zM314 136q-44 -18 -80 -39t-64 -45q49 -9 86.5 -32.5t56.5 -58.5zM136 479q-20 -4 -33 -18
t-13 -33q0 -25 23.5 -43t57.5 -18l51 46l41 -44l-132 -129q31 -8 60 -25t55 -41q19 10 36 17t32 12v276h-178z" />
    <glyph glyph-name="uni0999_uni09CD_uni0995" horiz-adv-x="507" 
d="M-45 520h527l35 -41h-113q13 -35 -3.5 -66t-47.5 -31q-28 0 -62 25.5t-66 71.5h-112q6 -8 9.5 -15.5t3.5 -14.5q63 0 117 -38.5t54 -84.5q63 0 108 -40t45 -97q0 -38 -19.5 -65t-46.5 -27q-19 0 -32.5 13.5t-13.5 32.5q0 17 12 28.5t29 11.5q12 0 21.5 -7t13.5 -18
q7 1 11 10t4 21q0 31 -38.5 53.5t-93.5 22.5v-291l-21 16q-21 77 -72 125t-111 48l-36 56q64 52 115.5 79.5t83.5 27.5q0 34 -21 58t-50 24q-19 0 -28 -1t-13 -4q7 -6 10.5 -14t3.5 -18q0 -29 -20 -49.5t-49 -20.5q-28 0 -48 21t-20 50q0 32 21 54.5t51 22.5q-5 14 -16 22
t-25 8h-62zM118 199q43 -11 79 -45t59 -83h5l-5 56v138q-43 -8 -78 -24.5t-60 -41.5zM246 479q20 -24 47 -37.5t55 -13.5q20 0 31.5 16t4.5 35h-138z" />
    <glyph glyph-name="uni0999_uni09CD_uni0995_uni09F0_uni09CD" horiz-adv-x="526" 
d="M-45 520h546l35 -41h-83q13 -35 -3.5 -66t-47.5 -31q-28 0 -62 25.5t-66 71.5h-112q6 -8 9.5 -15.5t3.5 -14.5q63 0 117 -38.5t54 -84.5q63 0 108 -40t45 -97q0 -38 -21 -65t-51 -27q-19 0 -33 12.5t-14 30.5t13.5 30.5t32.5 12.5q13 0 23 -7t14 -18q4 0 7 9t3 22
q0 31 -37 53.5t-90 22.5v-291l-21 16q0 17 -19 28.5t-46 11.5q-29 0 -81 -23t-81 -23q-31 0 -53.5 28.5t-22.5 68.5q0 15 4.5 30.5t12.5 31.5l21 -11q-5 -7 -8 -18.5t-3 -26.5q0 -17 9.5 -29t23.5 -12q24 0 70 17.5t70 17.5q18 0 37 -7t37 -21q-28 51 -69.5 80.5t-84.5 29.5
l-36 56q64 52 115.5 79.5t83.5 27.5q0 34 -21 58t-50 24q-6 0 -14 -4t-17 -11q2 -5 3 -12t1 -15q0 -27 -20.5 -46t-49.5 -19q-28 0 -47.5 21t-19.5 50q0 32 21 54.5t51 22.5q-5 14 -16 22t-25 8h-111zM176 199q38 -10 71.5 -43.5t57.5 -84.5v198q-35 -6 -68 -24t-61 -46z
M300 479q20 -24 45.5 -37.5t51.5 -13.5q20 0 31 16t4 35h-132z" />
    <glyph glyph-name="uni0999_uni09CD_uni0995_uni09CD_uni09B7" horiz-adv-x="988" 
d="M40 498l46 18q8 -29 28 -52.5t49 -36.5q20 43 50 68t61 25h689l35 -41h-226v-71h72q46 0 79 -42t33 -101q0 -38 -24 -65t-58 -27q-25 0 -43 18t-18 43q0 21 16.5 36t39.5 15q15 0 27.5 -9.5t18.5 -25.5q7 4 11 9.5t4 10.5q0 30 -25 51t-61 21q-15 0 -33.5 -3t-38.5 -8
v-362l-20 26q0 56 -34.5 106t-93.5 77q-5 -20 -23.5 -33t-42.5 -13q-27 0 -46.5 19.5t-19.5 47.5q0 27 19.5 46.5t46.5 19.5q6 0 11 -1.5t9 -3.5q5 8 8 16t3 15q0 31 -30 53.5t-72 22.5q0 -27 -19.5 -46.5t-47.5 -19.5q-25 0 -43 19.5t-18 46.5q0 25 18 43t43 18
q0 12 -12 25.5t-32 25.5h-38q2 -2 3.5 -9t1.5 -18q0 -34 -32 -58.5t-78 -24.5q-13 0 -26 2.5t-25 6.5q-1 6 -3 -11.5t-2 -34.5q0 -30 11 -51.5t26 -21.5q18 0 38.5 25.5t35.5 66.5q46 -22 73.5 -61.5t27.5 -85.5q0 -58 -37.5 -98.5t-90.5 -40.5q-76 0 -144 103t-96 260
l24 -5q22 -127 81 -210t126 -83q45 0 77 28t32 68q0 20 -10.5 37t-27.5 25q-18 -38 -42.5 -61t-47.5 -23q-36 0 -61.5 37.5t-25.5 90.5q0 16 2 31t6 30q-36 17 -65 43.5t-49 61.5zM187 415q12 -4 21 -6.5t15 -2.5q34 0 58.5 14.5t24.5 35.5q0 10 -11 16.5t-26 6.5
q-26 0 -49 -17.5t-33 -46.5zM456 479q0 -19 2.5 -32t7.5 -19q68 0 115.5 -60t47.5 -144q26 -9 52.5 -41t49.5 -81v224q-54 0 -108.5 51.5t-54.5 101.5h-112zM619 479q-2 -7 -3.5 -13.5t-1.5 -12.5q0 -23 19.5 -39t46.5 -16q14 0 26.5 1.5t24.5 3.5v76h-112z" />
    <glyph glyph-name="uni0999_uni09CD_uni0995_uni09CD_uni09B7_uni09F0_uni09CD" horiz-adv-x="987" 
d="M39 498l46 18q8 -29 28 -52.5t49 -36.5q20 43 50 68t61 25h689l35 -41h-226v-71l72 6q46 0 79 -43.5t33 -105.5q0 -38 -24 -65t-58 -27q-25 0 -43 16.5t-18 39.5t16.5 39.5t39.5 16.5q15 0 27.5 -9.5t18.5 -25.5q7 4 11 9.5t4 10.5q0 30 -25 51t-61 21q-15 0 -33.5 -3
t-38.5 -8v-362l-20 26q0 14 -22.5 24.5t-54.5 10.5q-33 0 -94.5 -23t-94.5 -23q-36 0 -61.5 28.5t-25.5 68.5q0 15 5 30.5t14 31.5l20 -11q-5 -6 -7.5 -17.5t-2.5 -27.5q0 -17 11.5 -29t27.5 -12q28 0 82 17.5t82 17.5q32 0 62.5 -11.5t54.5 -33.5q-10 45 -43 82t-81 60
q-5 -20 -23.5 -33t-42.5 -13q-27 0 -46.5 19.5t-19.5 47.5q0 27 19.5 46.5t46.5 19.5q6 0 11 -1.5t9 -3.5q3 5 5 13t2 18q0 31 -28.5 53.5t-69.5 22.5q0 -27 -19.5 -46.5t-47.5 -19.5q-25 0 -43 19.5t-18 46.5q0 25 18 43t43 18q7 6 -7 22t-37 29h-38q2 -2 3.5 -9t1.5 -18
q0 -34 -32 -58.5t-78 -24.5q-13 0 -26 2.5t-25 6.5q-1 6 -3 -11.5t-2 -34.5q0 -30 11 -51.5t26 -21.5q18 0 38.5 25.5t35.5 66.5q46 -22 73.5 -61.5t27.5 -85.5q0 -53 -37.5 -91t-90.5 -38q-77 0 -145 100t-95 253l24 -5q22 -127 81 -210t126 -83q45 0 77 28t32 68
q0 20 -10 36t-27 24h-5q-17 -38 -40.5 -60t-45.5 -22q-36 0 -61.5 37.5t-25.5 90.5q0 16 2 31t6 30q-36 17 -65 43.5t-49 61.5zM186 415q12 -4 21 -6.5t15 -2.5q34 0 58.5 14.5t24.5 35.5q0 10 -11 16.5t-26 6.5q-26 0 -49 -17.5t-33 -46.5zM455 479q0 -19 2.5 -32t7.5 -19
q54 0 108.5 -68.5t54.5 -135.5q26 -9 52.5 -41t49.5 -81h5l-5 56v168q-54 0 -108.5 51.5t-54.5 101.5h-112zM618 479q-2 -7 -3.5 -15.5t-1.5 -19.5q0 -19 19.5 -32.5t46.5 -13.5q14 0 26.5 1.5t24.5 3.5v76h-112z" />
    <glyph glyph-name="uni0999_uni09CD_uni0996" horiz-adv-x="614" 
d="M-55 520h349q34 0 57.5 -24t23.5 -58q0 -29 -18 -50t-43 -21q-22 0 -48.5 14.5t-53.5 41.5q-29 -29 -45 -53t-16 -39q0 -12 6 -21t14 -9q20 0 44 13.5t48 37.5q23 -8 40.5 -30t25.5 -52l41 36q44 -31 63 -59.5t19 -63.5q0 -29 -23.5 -59t-63.5 -53q42 -7 78 -34t60 -68
v612h10l31 -51v-10h45l35 -41h-80v-591l-21 10q-16 58 -81 95t-153 37l-51 62q64 0 123.5 43t59.5 89q0 7 -6 11.5t-14 4.5q-21 0 -44 -15.5t-43 -43.5q-17 -23 -40 -36t-47 -13q-69 0 -128.5 79.5t-80.5 201.5l26 -15q16 -91 62 -150t101 -59q38 0 65 18t27 43q0 16 -5 29
t-15 21q-22 -22 -44.5 -33.5t-42.5 -11.5q-24 0 -53 34.5t-29 62.5q0 21 32.5 63.5t64.5 63.5h-216zM233 444q18 -13 35 -19.5t31 -6.5q17 0 29 9t12 22q0 12 -12 21t-29 9q-12 0 -29 -9t-37 -26z" />
    <glyph glyph-name="uni0999_uni09CD_uni0997" horiz-adv-x="470" 
d="M-45 520h490l35 -41h-97q14 -37 -4.5 -69.5t-52.5 -32.5q-27 0 -58.5 27.5t-58.5 74.5h-102q10 -8 15.5 -19t5.5 -22q51 0 86.5 -37t35.5 -89q0 -9 -1.5 -18.5t-3.5 -18.5q36 36 78.5 62t89.5 40l46 -56q-53 -46 -82.5 -101t-29.5 -108q0 -43 12 -82t34 -71l-31 10
q-25 36 -38 80.5t-13 93.5q0 35 8 68.5t23 63.5l-102.5 -88.5t-106.5 -64.5q-36 0 -61.5 34.5t-25.5 83.5l20 5q4 -20 15.5 -33t25.5 -13q28 0 70 48t42 79q0 21 -19.5 36t-46.5 15q6 -32 -13 -56.5t-48 -24.5q-27 0 -46.5 21t-19.5 50q0 25 20 45.5t51 25.5q0 7 -11.5 16
t-39.5 25h-56zM224 479q18 -26 42.5 -41t49.5 -15q21 0 32 18t4 38h-128z" />
    <glyph glyph-name="uni0999_uni09CD_uni0998" horiz-adv-x="799" 
d="M423 255l92 81q-51 0 -86.5 27t-35.5 65q0 16 5 29.5t15 21.5h-71q5 -6 7.5 -14.5t2.5 -18.5q0 -34 -33.5 -58.5t-81.5 -24.5q-13 0 -26 2.5t-25 6.5q-1 6 -2.5 -11.5t-1.5 -34.5q0 -30 10.5 -51.5t25.5 -21.5q18 0 38.5 25.5t35.5 66.5q46 -22 73.5 -61.5t27.5 -85.5
q0 -53 -40.5 -91t-97.5 -38q-84 0 -150 102t-79 253l23 3q14 -129 72 -216t131 -87q47 0 80 29.5t33 71.5q0 16 -11.5 31t-30.5 24q-17 -38 -40.5 -60t-45.5 -22q-36 0 -61.5 37.5t-25.5 90.5q0 22 1 37.5t3 22.5q-35 13 -63.5 40t-46.5 65l46 19q9 -33 28 -57.5t45 -36.5
q17 47 52 75.5t76 28.5h483l35 -41h-80v-500l-20 21q-30 82 -93.5 134.5t-141.5 59.5zM191 409q12 -4 21 -6.5t15 -2.5q34 0 58.5 14.5t24.5 35.5q0 10 -11 16.5t-26 6.5q-26 0 -49 -17.5t-33 -46.5zM515 479q-22 -4 -36.5 -18.5t-14.5 -32.5q0 -25 24 -43t58 -18l51 46
l46 -44l-138 -124q52 -14 100 -55.5t84 -103.5v393h-174z" />
    <glyph glyph-name="uni0999_uni09CD_uni0998_uni09F0_uni09CD" horiz-adv-x="789" 
d="M90 352q0 14 25.5 48t50.5 54l-30 25h-145l-46 41h170l-5 20l51 11q2 -21 10 -40.5t21 -36.5q25 22 46 34t35 12q34 0 58 -24t24 -58q0 -29 -18 -50t-43 -21q-22 0 -48.5 14.5t-53.5 41.5q-29 -29 -45 -53t-16 -39q0 -12 6 -21t14 -9q17 0 45.5 9t92.5 32q30 -11 48 -41
t18 -69q0 -50 -37.5 -85t-90.5 -35q-69 0 -128.5 79.5t-80.5 201.5l26 -16q16 -91 68 -150t115 -59q40 0 68.5 24t28.5 58q0 13 -5 25t-15 20q-34 -20 -68 -30t-65 -10q-23 0 -52 34.5t-29 62.5zM212 444q18 -13 35 -19.5t31 -6.5q17 0 29 9t12 22q0 12 -12 21t-29 9
q-12 0 -29 -9t-37 -26zM444 433q0 -29 29 -43.5t62 -2.5l46 41l39 -46l-121 -102q43 -4 90.5 -46t88.5 -112v357h-194q-18 -9 -29 -21t-11 -25zM449 240l-41 45l87 72q-48 -8 -85.5 16.5t-37.5 64.5q0 8 5.5 18.5t15.5 22.5h-26l-36 41h433l35 -41h-80v-525l-20 25
q0 32 -21 54.5t-51 22.5q-22 0 -66 -7.5t-66 -7.5q-51 0 -87 33t-36 79q0 10 3.5 23t10.5 28l17 -10q-2 -5 -3.5 -11.5t-1.5 -14.5q0 -25 22.5 -43t53.5 -18q19 0 56 2.5t56 2.5q30 0 58 -17.5t47 -48.5h3q-11 64 -93 129t-152 65z" />
    <glyph glyph-name="uni0999_uni09CD_uni09AE" horiz-adv-x="534" 
d="M-56 520h565l35 -41h-80v-556l-20 21q-6 35 -34.5 59t-67.5 27q0 -29 -19.5 -50t-47.5 -21q-27 0 -46.5 18t-19.5 43q0 28 21 47.5t51 19.5q0 8 -5.5 18t-15.5 20l-15 -3q-67 0 -131.5 81t-98.5 210l21 -5q30 -104 88 -169.5t121 -65.5q38 0 65 27t27 65q0 14 -9.5 27.5
t-26.5 23.5q-16 -35 -39.5 -55.5t-47.5 -20.5q-25 0 -55.5 36.5t-30.5 65.5t20 65t56 72h-214zM219 428q11 -5 23.5 -7.5t27.5 -2.5q17 0 29 12t12 29q0 8 -9 14t-21 6t-28.5 -13.5t-33.5 -37.5zM332 479q7 -6 11 -14t4 -16q0 -30 -19.5 -51t-46.5 -21q-20 0 -39.5 8
t-35.5 23q-19 -32 -28.5 -55.5t-9.5 -36.5t7.5 -22t18.5 -9q13 0 32.5 18.5t43.5 53.5q44 -16 70.5 -48t26.5 -69q0 -38 -21 -68t-55 -40q16 -9 27.5 -23.5t18.5 -32.5q31 -11 53 -25.5t33 -30.5v459h-91z" />
    <glyph glyph-name="uni0999_uni09F0_uni09CD" horiz-adv-x="477" 
d="M52 500l51 20q8 -30 32 -56t60 -43q22 48 54 76t63 28q32 0 54.5 -22.5t22.5 -53.5q0 -38 -36 -65t-87 -27q-17 0 -32.5 2.5t-29.5 7.5q-2 9 -5.5 -12.5t-3.5 -38.5q0 -34 15 -58t36 -24q20 0 42 28t39 74q52 -24 82.5 -68.5t30.5 -94.5q0 -17 -5 -33.5t-14 -32.5v-255
l-20 10q-4 20 -19.5 33t-36.5 13q-28 0 -81.5 -15.5t-81.5 -15.5q-42 0 -72 30t-30 72h20q0 -17 21 -28.5t50 -11.5q21 0 61.5 12.5t61.5 12.5q25 0 48 -12t38 -34v145q-22 -16 -48.5 -24.5t-55.5 -8.5q-101 0 -172.5 121.5t-71.5 292.5l20 -26q0 -135 65.5 -230.5
t158.5 -95.5q55 0 94 31.5t39 75.5q0 22 -12.5 40t-33.5 26q-20 -42 -46 -67t-51 -25q-40 0 -68.5 42t-28.5 101q0 13 3 30t8 37q-40 19 -73 49t-55 68zM215 408q14 -5 24 -7.5t17 -2.5q38 0 65 16.5t27 39.5q0 10 -12 17.5t-29 7.5q-30 0 -55 -19.5t-37 -51.5z" />
    <glyph glyph-name="uni099A_uni09CD_uni099A" horiz-adv-x="592" 
d="M-45 520h612l35 -41h-261q0 -43 43.5 -79t109.5 -48q31 -5 51 -30t20 -57q0 -71 -63.5 -158t-114.5 -87q-22 0 -54.5 46.5t-32.5 76.5v152q-11 -65 -71 -144.5t-97 -79.5q-19 0 -48 38.5t-29 63.5v306h-65zM96 148q0 -9 4.5 -15t10.5 -6q33 0 83 67.5t50 111.5
q-42 11 -80.5 44t-67.5 83v-285zM341 148q0 -30 10.5 -51t24.5 -21q53 0 90.5 54t37.5 130q0 7 -5.5 12.5t-14.5 7.5q-36 6 -74 44t-69 99v-275zM96 479q0 -22 25 -47t67 -45q14 -6 60 -27.5t52 -38.5v158h-204z" />
    <glyph glyph-name="uni099A_uni09CD_uni099B" horiz-adv-x="670" 
d="M323 285q0 -6 7.5 -13t13.5 -7q27 0 59.5 34.5t32.5 62.5q-37 0 -68.5 22.5t-44.5 59.5v-159zM89 194q0 -6 9.5 -16t15.5 -10q29 0 73.5 54t44.5 89q0 4 -6 8.5t-15 6.5q-38 10 -70 39.5t-52 72.5v-244zM89 479q0 -30 37.5 -56t94.5 -36q25 -4 42.5 -24t19.5 -47v163
h-194zM-10 479l-35 41h690l35 -41h-357q5 -31 37 -51t76 -20h40q57 0 97.5 -33t40.5 -79q0 -51 -35 -94.5t-93 -64.5q64 -19 124.5 -76t110.5 -143h-20q-66 95 -164.5 144t-202.5 40l-46 81q16 -7 37.5 -11t48.5 -4q68 0 131 46.5t63 96.5q0 23 -21 39.5t-50 16.5
q0 -44 -52.5 -98.5t-95.5 -54.5q-15 0 -38.5 25t-27.5 46q0 -43 -60 -108t-99 -65q-19 0 -47.5 40.5t-28.5 66.5v260h-58z" />
    <glyph glyph-name="uni099A_uni09CD_uni099B_uni09F0_uni09CD" horiz-adv-x="655" 
d="M324 285q0 -8 6 -14t15 -6q27 0 59.5 34.5t32.5 62.5q-37 0 -68.5 22.5t-44.5 59.5v-159zM90 194q0 -6 9.5 -16t15.5 -10q34 0 76 51t42 92q0 4 -6 8.5t-15 6.5q-40 11 -72 38.5t-50 66.5v-237zM90 479q0 -30 37.5 -56t94.5 -36q24 -4 40.5 -21t18.5 -40h3v153h-194z
M-10 479l-35 41h675l35 -41h-341q5 -31 37 -51t76 -20h40q57 0 97.5 -33t40.5 -79q0 -54 -48.5 -100.5t-124.5 -65.5q79 -32 150 -84.5t130 -122.5h-20q-10 14 -37 36.5t-75 55.5v-168l-21 10q-4 25 -24.5 41.5t-46.5 16.5q-34 0 -102 -8.5t-102 -8.5q-68 0 -115.5 47.5
t-47.5 115.5h15q0 -38 34.5 -65t82.5 -27q29 0 87 5t87 5q33 0 62.5 -16t49.5 -45v115q-54 25 -107.5 42.5t-106.5 26.5l-46 87q17 -8 37.5 -12t43.5 -4q57 0 128 51t71 92q0 21 -21 36t-50 15q0 -44 -52.5 -98.5t-95.5 -54.5q-17 0 -40.5 25t-25.5 46h-3q0 -46 -57 -109.5
t-99 -63.5q-19 0 -47.5 38.5t-28.5 63.5v265h-59z" />
    <glyph glyph-name="uni099A_uni09CD_uni099B_uni09AC_uni09CD" horiz-adv-x="665" 
d="M324 285q0 -8 6 -14t15 -6q27 0 59.5 34.5t32.5 62.5q-37 0 -68.5 22.5t-44.5 59.5v-159zM90 194q0 -6 9.5 -16t15.5 -10q32 0 75 52.5t43 90.5q0 4 -6 8.5t-15 6.5q-38 10 -70 39.5t-52 72.5v-244zM90 479q0 -30 37.5 -56t94.5 -36q25 -4 42.5 -21.5t19.5 -39.5v153
h-194zM-10 479l-35 41h685l35 -41h-351q5 -31 37 -51t76 -20h40q57 0 97.5 -33t40.5 -79q0 -59 -43.5 -105.5t-109.5 -58.5q71 -22 139 -77t126 -137h-25q-34 40 -62.5 66t-49.5 36v-178l-21 15q-20 42 -61.5 67t-91.5 25l-30 51q47 27 76.5 42t45.5 19q-32 20 -76 30.5
t-97 10.5l-46 82q12 -5 33.5 -8t52.5 -3q68 0 131 45t63 93q0 23 -21 39.5t-50 16.5q0 -44 -52.5 -98.5t-95.5 -54.5q-14 0 -35.5 25t-25.5 46q0 -46 -60 -109.5t-104 -63.5q-19 0 -47.5 38.5t-28.5 63.5v265h-59zM457 -21q32 -12 55.5 -30t36.5 -40v121q-29 -13 -52 -26
t-40 -25z" />
    <glyph glyph-name="uni099A_uni09CD_uni099E" horiz-adv-x="694" 
d="M-45 520h714l35 -41h-563q0 -19 20 -36t51 -25q28 -7 47 -20.5t25 -30.5q25 22 46 34t35 12q24 0 53 -38t29 -69v-51q28 60 61 96t61 36q34 0 58 -21t24 -50t-10.5 -55.5t-30.5 -46.5q19 -16 30 -43t11 -59q0 -29 -24 -50t-58 -21q-30 0 -63 33t-59 89v-224l-21 20
q-6 36 -35 59t-67 23q-28 0 -84 -5.5t-84 -5.5q-53 0 -90 42t-37 101q0 33 5 59t15 43l15 -10q-5 -14 -7.5 -31.5t-2.5 -39.5q0 -38 27 -65t65 -27q23 0 69 5t69 5q30 0 62.5 -21.5t59.5 -60.5v317q0 8 -6 14t-14 6q-30 0 -76.5 -52t-46.5 -86q6 5 14 8t17 3q21 0 36 -13.5
t15 -32.5q0 -21 -15 -36t-36 -15q-30 0 -51 22.5t-21 53.5q-17 -15 -34 -22.5t-32 -7.5q-14 0 -35 32.5t-21 53.5v204h-110zM141 250q0 -7 3 -11.5t7 -4.5q23 0 57.5 39t34.5 64q0 9 -6 16t-15 9q-21 4 -42.5 27t-38.5 60v-199zM447 214q0 -28 46 -70t76 -42q21 0 36 13.5
t15 32.5q0 7 -8 16t-22 19q-8 -10 -17.5 -15t-18.5 -5q-19 0 -32.5 15t-13.5 36t13.5 36t32.5 15q9 0 18.5 -5t17.5 -15q14 10 22 19t8 16q0 19 -15 32.5t-36 13.5q-30 0 -76 -42t-46 -70z" />
    <glyph glyph-name="uni099A_uni09CD_uni09A8" horiz-adv-x="371" 
d="M-45 520h391l35 -41h-280q3 -36 34 -65t78 -42q54 -15 88.5 -43t34.5 -59q0 -17 -8 -40t-23 -49v-331l-19 18q-10 34 -45.5 58t-85.5 29q6 -32 -14.5 -57t-53.5 -25q-30 0 -51.5 20t-21.5 49q0 32 27 55t65 23q42 0 84.5 -25.5t75.5 -71.5v199q-31 -41 -61 -63.5
t-53 -22.5q-27 0 -59.5 45t-32.5 82v316h-70zM101 132q0 -25 12 -43t29 -18q38 0 95.5 80.5t57.5 133.5q-69 18 -119.5 53t-74.5 80v-286z" />
    <glyph glyph-name="uni099A_uni09F0_uni09CD" horiz-adv-x="404" 
d="M-45 520h424l35 -41h-284q3 -36 34 -65t78 -42q54 -15 88.5 -43t34.5 -59q0 -13 -5.5 -30.5t-15.5 -38.5v-324l-20 11q-3 20 -19 32.5t-37 12.5q-26 0 -76 -7.5t-76 -7.5q-42 0 -72 34.5t-30 82.5q0 16 4 34.5t11 38.5l15 -5q-4 -12 -6.5 -24t-2.5 -24q0 -31 21 -53.5
t50 -22.5q19 0 55.5 5.5t55.5 5.5q25 0 48 -12t38 -34v186q-30 -44 -62.5 -69t-59.5 -25t-59.5 45t-32.5 82v316h-99zM130 132q0 -25 12 -43t29 -18q38 0 95.5 80.5t57.5 133.5q-69 18 -119.5 53t-74.5 80v-286z" />
    <glyph glyph-name="uni099A_uni09AC_uni09CD" horiz-adv-x="370" 
d="M-45 520h390l35 -41h-277q3 -36 34 -65t78 -42q54 -15 88.5 -43t34.5 -59q0 -20 -10 -46t-29 -57v-367l-21 16q-16 48 -72.5 77t-131.5 29l-35 66l44.5 33.5t41.5 27.5q-30 23 -46.5 53t-16.5 61v316h-72zM103 132q0 -25 12 -43t29 -18q38 0 95.5 80.5t57.5 133.5
q-69 18 -119.5 53t-74.5 80v-286zM115 -35q49 -9 86.5 -32t56.5 -57v175q-32 -9 -68.5 -31t-74.5 -55z" />
    <glyph glyph-name="uni099B_uni09F0_uni09CD" horiz-adv-x="444" 
d="M-45 520h464l35 -41h-338q5 -31 37 -51t75 -20h31q53 0 90.5 -33t37.5 -79q0 -45 -40.5 -87t-107.5 -66q69 -21 137 -77.5t128 -142.5l-21 -5l-39 47t-42 45v-117l-21 15q-5 26 -25 43.5t-46 17.5q-30 0 -89 -5t-89 -5q-42 0 -72 28.5t-30 68.5q0 26 4.5 47t12.5 35
l18 -6q-5 -11 -7.5 -22t-2.5 -23q0 -28 24 -47.5t58 -19.5q20 0 61 5t61 5q33 0 63 -19t49 -52v69q-56 41 -121.5 62.5t-133.5 21.5l-35 87q17 -8 36 -12t40 -4q53 0 118.5 49t65.5 89q0 17 -19.5 29t-47.5 12q0 -57 -38.5 -97.5t-93.5 -40.5q-19 0 -43 29t-24 53v173h-85z
M116 296q0 -9 7.5 -20t13.5 -11q26 0 58.5 34.5t32.5 62.5q-38 0 -68.5 21.5t-43.5 56.5v-144z" />
    <glyph glyph-name="uni099B_uni09AC_uni09CD" horiz-adv-x="419" 
d="M-45 520h439l35 -41h-346q5 -31 37 -51t75 -20h41q57 0 97 -33t40 -79q0 -62 -43.5 -109.5t-109.5 -59.5q70 -21 137 -75t123 -134l-20 -5q-27 32 -56.5 59t-62.5 49v-169l-16 15q-21 30 -62 51t-96 31l-25 41q40 28 78.5 43.5t71.5 17.5q-47 25 -97.5 38t-101.5 13
l-46 81q14 -10 36 -15t51 -5q68 0 130.5 46.5t62.5 96.5q0 27 -21 46.5t-50 19.5q0 -46 -51 -102t-92 -56q-21 0 -46 29t-25 53v183h-52zM83 285q0 -6 7 -13t13 -7q27 5 59.5 39.5t32.5 57.5q-37 0 -67.5 23t-44.5 61v-161zM300 -90v102q-26 -2 -52 -10.5t-50 -22.5
q38 -14 64.5 -31.5t37.5 -37.5z" />
    <glyph glyph-name="uni099C_uni09CD_uni099C" horiz-adv-x="809" 
d="M152 326q0 -8 6 -14t14 -6q20 0 46.5 13t55.5 38q34 -24 53 -59t19 -74q24 -51 65.5 -81.5t87.5 -30.5q40 0 68.5 24t28.5 58q0 6 -5.5 14t-15.5 16q-27 -17 -52 -26t-45 -9q-23 0 -57 38.5t-34 63.5q0 19 7.5 39t22.5 37q-60 0 -109 24.5t-74 67.5q-39 -38 -60.5 -72.5
t-21.5 -60.5zM667 153q0 34 13 74.5t38 83.5q-14 -2 -29 -5.5t-19 -3.5q-44 0 -86 19.5t-75 55.5q-39 -33 -60.5 -62t-21.5 -50q0 -10 9 -17.5t22 -7.5q14 0 38.5 11.5t58.5 33.5q36 -30 56 -62t20 -60q0 -51 -37 -86.5t-90 -35.5q-46 0 -90.5 42t-72.5 111
q-9 -34 -40.5 -55.5t-71.5 -21.5q-67 0 -126.5 88t-83.5 223l26 -15q17 -97 67.5 -160.5t110.5 -63.5q38 0 65 19.5t27 46.5q0 9 -6.5 18.5t-18.5 17.5q-25 -18 -48.5 -27t-43.5 -9q-22 0 -54.5 40.5t-32.5 66.5q0 24 17 54.5t49 62.5h-187l-35 41h829l35 -41h-565
q19 -33 49 -52t63 -19q32 0 61 10.5t51 30.5q25 -43 66 -67.5t87 -24.5q20 0 42 7.5t45 22.5l77 -71q-45 -64 -68.5 -119t-23.5 -95q0 -39 6.5 -76.5t18.5 -71.5l-25 15q-18 31 -27 77.5t-9 106.5z" />
    <glyph glyph-name="uni099C_uni09CD_uni099C_uni09AC_uni09CD" horiz-adv-x="809" 
d="M152 326q0 -8 6 -14t14 -6q20 0 46.5 13t55.5 38q31 -22 49 -54.5t18 -68.5q26 -56 69 -89t89 -33q40 0 68.5 24t28.5 58q0 6 -5.5 14t-15.5 16q-27 -17 -52 -26t-45 -9q-23 0 -57 38.5t-34 63.5q0 19 7.5 39t22.5 37q-6 -1 -12 -1.5t-12 -0.5q-49 0 -91.5 25t-67.5 69
q-39 -38 -60.5 -72.5t-21.5 -60.5zM667 153q0 36 11.5 75t34.5 78l-16.5 -2t-16.5 -1q-49 0 -93.5 19.5t-77.5 54.5q-39 -33 -60.5 -62t-21.5 -50q0 -10 9 -17.5t22 -7.5q14 0 38.5 11.5t58.5 33.5q36 -30 56 -62t20 -60q0 -51 -35.5 -86.5t-86.5 -35.5q-47 0 -93 43
t-75 115q-10 -38 -43 -62.5t-74 -24.5q-65 0 -123 89.5t-82 226.5l26 -15q18 -100 68 -165t110 -65q38 0 65 21t27 51q0 9 -6.5 18.5t-18.5 17.5q-25 -18 -48.5 -27t-43.5 -9q-22 0 -54.5 40.5t-32.5 66.5q0 16 15 44.5t46 72.5h-182l-35 41h829l35 -41h-565q19 -33 49 -52
t63 -19q32 0 61 10.5t51 30.5q25 -43 66 -67.5t87 -24.5q20 0 42 7.5t45 22.5l77 -71q-42 -61 -64.5 -115.5t-22.5 -98.5q0 -60 7.5 -111.5t22.5 -92.5l-20 10q-27 27 -64 41.5t-79 14.5l-41 46q24 24 59 46t79 41q-2 12 -3.5 26t-1.5 30zM585 -5q36 -6 67.5 -22t55.5 -40h5
q-15 32 -23.5 60.5t-9.5 52.5q-21 -4 -45.5 -17t-49.5 -34z" />
    <glyph glyph-name="uni099C_uni09CD_uni099D" horiz-adv-x="608" 
d="M-45 520h628l35 -41h-80v-566l-20 15q-10 36 -38.5 59t-63.5 23v-117l-20 15q-12 45 -52 73.5t-91 28.5l-41 46q35 29 76 54.5t87 47.5v219q-37 0 -72 20.5t-60 56.5q-45 -38 -68.5 -66t-23.5 -46q0 -15 9 -25.5t21 -10.5q13 0 35.5 12.5t56.5 38.5q31 -26 48.5 -57
t17.5 -60q0 -45 -33 -76.5t-79 -31.5q-69 0 -128.5 79.5t-80.5 201.5l21 -10q16 -91 69 -150t119 -59q36 0 61.5 19.5t25.5 46.5q0 9 -5 18.5t-15 17.5q-27 -18 -50.5 -27t-41.5 -9q-25 0 -53.5 40.5t-28.5 76.5q0 20 16 46.5t45 55.5h-191zM253 479q21 -30 52 -47t64 -17
q12 0 24 2t23 6v-362q25 -9 46 -27.5t36 -43.5v489h-245zM278 46q28 -10 53 -30t44 -47h5l-5 46v87q-40 -19 -64 -32.5t-33 -23.5z" />
    <glyph glyph-name="uni099C_uni09CD_uni099E" horiz-adv-x="646" 
d="M-45 520h666l35 -41h-391l102 -173q22 68 63 110.5t85 42.5q34 0 57.5 -27t23.5 -65q0 -23 -13.5 -47.5t-37.5 -44.5q29 -20 45.5 -50t16.5 -62q0 -31 -22.5 -53.5t-54.5 -22.5q-29 0 -64 27t-69 75q0 -57 -35.5 -97.5t-86.5 -40.5q-82 0 -154 106.5t-101 270.5l24 -15
q22 -126 87.5 -208.5t143.5 -82.5q40 0 68.5 30t28.5 72q0 7 -4 17.5t-11 23.5q-29 -20 -61.5 -30.5t-66.5 -10.5q-24 0 -60.5 46.5t-36.5 76.5q0 19 20 53.5t57 78.5h-219zM173 311q0 -15 16.5 -25.5t39.5 -10.5t48 10.5t49 30.5l-68 117q-40 -28 -62.5 -60.5t-22.5 -61.5z
M382 270q0 -39 44.5 -78t88.5 -39q21 0 36 15t15 36q0 7 -8 18t-23 23q-8 -10 -19 -15.5t-22 -5.5q-21 0 -36 13.5t-15 32.5q0 23 16.5 39.5t39.5 16.5q9 0 18.5 -5t17.5 -15q15 12 23 25.5t8 25.5q0 17 -15 29t-36 12q-44 0 -88.5 -43t-44.5 -85z" />
    <glyph glyph-name="uni099C_uni09F0_uni09CD" horiz-adv-x="563" 
d="M-10 479l-35 41h583l35 -41h-301q22 -47 53 -74.5t62 -27.5q23 0 46 8t45 23l72 -61q-42 -50 -64.5 -108t-22.5 -117q0 -46 6.5 -93.5t19.5 -95.5l-21 6q-8 31 -29.5 51t-46.5 20l-220 -10q-51 0 -86.5 38.5t-35.5 93.5q0 12 2.5 24.5t7.5 26.5l15 -5l-3.5 -15.5
t-1.5 -9.5q0 -38 30 -65t72 -27l179 5q23 0 50.5 -17.5t53.5 -48.5h3q-15 58 -23 98.5t-8 64.5q0 51 11.5 97t33.5 84q-11 -4 -25 -6t-30 -2q-48 0 -90.5 31t-66.5 83q-42 -35 -65 -66.5t-23 -52.5q0 -14 13.5 -24.5t32.5 -10.5q17 0 40.5 10t51.5 30q36 -21 56.5 -53.5
t20.5 -68.5q0 -48 -36 -82.5t-87 -34.5q-83 0 -147.5 95.5t-76.5 235.5l25 -10q10 -112 67 -188.5t132 -76.5q38 0 65 21t27 50q0 16 -5.5 28.5t-14.5 17.5q-21 -17 -46 -26.5t-51 -9.5q-31 0 -69 47.5t-38 85.5q0 23 20 52.5t56 59.5h-218z" />
    <glyph glyph-name="uni099C_uni09AC_uni09CD" horiz-adv-x="498" 
d="M265 76l-30 31q37 37 72 60.5t65 31.5q-1 5 -0.5 21t0.5 30q0 34 9 65.5t27 56.5q-56 0 -107.5 28.5t-86.5 78.5q-38 -22 -59.5 -52t-21.5 -60q0 -8 7.5 -14t17.5 -6q21 0 47 10.5t55 30.5q29 -20 45 -50t16 -63q0 -48 -31.5 -82.5t-75.5 -34.5q-56 0 -111.5 75.5
t-87.5 194.5l26 -10q23 -86 68.5 -140t94.5 -54q38 0 65 22.5t27 54.5q0 14 -6 24.5t-15 10.5q-21 -15 -41.5 -22.5t-39.5 -7.5q-38 0 -65 23.5t-27 57.5q0 28 15 52.5t41 39.5h-168l-35 41h518l35 -41h-273q24 -29 59 -45t73 -16q21 0 35.5 2.5t20.5 7.5l56 -46
q-32 -32 -49 -90t-17 -134q0 -27 5 -69t15 -99l-15 10q-30 36 -70.5 56t-82.5 20zM301 110q26 -5 53.5 -24t53.5 -50q-13 36 -21 68t-10 59q-22 -8 -41.5 -21.5t-34.5 -31.5z" />
    <glyph glyph-name="uni099D_uni09F0_uni09CD" horiz-adv-x="590" 
d="M461 581h10l31 -51v-10h63l35 -41h-98v-438l-21 20q0 44 -27.5 85t-74.5 68v-245l-20 15q0 19 -21 32.5t-50 13.5q-24 0 -72.5 -8t-72.5 -8q-49 0 -84 35.5t-35 86.5q0 14 5 30t14 32l18 -11q-6 -8 -9.5 -21t-3.5 -29q0 -27 16.5 -46.5t40.5 -19.5t70.5 5t70.5 5
q31 0 58 -12.5t43 -34.5q-18 80 -82.5 133.5t-150.5 61.5l-51 77q70 53 140 89t136 54v30h-349l-35 41h424v-240q23 -16 43.5 -46t37.5 -71zM129 275q74 -20 129 -63t81 -102v282q-48 -16 -101 -45t-109 -72z" />
    <glyph glyph-name="uni099E_uni09CD_uni099A" horiz-adv-x="533" 
d="M21 398q0 51 36 86.5t87 35.5q33 0 70 -31.5t68 -85.5v178h10l30 -51v-148q29 63 68 100.5t75 37.5q34 0 58 -24t24 -58q0 -29 -13.5 -58.5t-37.5 -53.5q24 -24 37.5 -53.5t13.5 -58.5q0 -34 -24 -58t-58 -24q-29 0 -67.5 37t-75.5 101v-306l-20 31q-7 79 -66.5 139
t-147.5 75l-31 46l209 138q-25 36 -57.5 56t-64.5 20q-25 0 -43 -19.5t-18 -46.5l6 2t6 1q14 0 24 -11.5t10 -27.5q0 -17 -13.5 -29t-32.5 -12q-26 0 -44 21t-18 51zM134 234q42 -11 80.5 -44t67.5 -83v225zM322 326q0 -38 47.5 -85t85.5 -47q25 0 43 15t18 36q0 12 -8 25.5
t-22 25.5q-8 -10 -19 -15.5t-22 -5.5q-21 0 -36 15t-15 36t15 36t36 15q12 0 22.5 -5t18.5 -15q14 12 22 25.5t8 25.5q0 21 -18 36t-43 15q-33 0 -83 -50t-50 -83z" />
    <glyph glyph-name="uni099E_uni09CD_uni099A_uni09AC_uni09CD" horiz-adv-x="535" 
d="M23 401q0 51 36 87.5t87 36.5q31 0 68 -32.5t70 -89.5v178h10l30 -51v-148q31 65 69.5 104t73.5 39q34 0 58 -25.5t24 -61.5q0 -29 -13.5 -58.5t-37.5 -53.5q24 -24 37.5 -53.5t13.5 -58.5q0 -34 -24 -58t-58 -24q-29 0 -67.5 37t-75.5 101v-363l-20 16q-16 48 -72.5 77
t-131.5 29l-36 66q30 23 60 43.5t61 38.5q-13 13 -37.5 21t-57.5 11l-31 46l209 138q-25 36 -57.5 56t-64.5 20q-25 0 -43 -19.5t-18 -46.5l6 2t6 1q14 0 24 -11.5t10 -27.5q0 -17 -13.5 -29t-32.5 -12q-26 0 -44 22t-18 53zM284 342l-151 -104q19 -5 39 -16t40 -28
q9 5 27 12.5t45 17.5v118zM324 326q0 -38 47.5 -85t85.5 -47q25 0 43 15t18 36q0 12 -8 25.5t-22 25.5q-8 -10 -19 -15.5t-22 -5.5q-21 0 -36 15t-15 36t15 36t36 15q12 0 22.5 -5t18.5 -15q14 12 22 25.5t8 25.5q0 21 -18 36t-43 15q-33 0 -83 -50t-50 -83zM284 162
q-43 -17 -79 -38.5t-65 -46.5q49 -9 86.5 -32.5t56.5 -57.5z" />
    <glyph glyph-name="uni099E_uni09CD_uni099B" horiz-adv-x="500" 
d="M35 387q0 44 46 88.5t91 44.5q39 0 70 -27.5t38 -69.5q21 44 52.5 70.5t64.5 26.5q29 0 50 -24t21 -58q0 -18 -12 -38t-34 -38q22 -15 34 -35.5t12 -41.5q0 -34 -21 -57.5t-50 -23.5q-41 0 -78 42.5t-55 110.5h-5q-9 -7 -14.5 -24.5t-5.5 -41.5q0 -16 16 -36.5t45 -40.5
q26 -18 41 -45t15 -57q0 -38 -35.5 -65t-86.5 -27q64 -23 124 -73t110 -121h-20q-65 78 -153.5 121t-183.5 43l-41 86q13 -7 36.5 -11t55.5 -4q63 0 108 25.5t45 61.5q0 18 -12 31t-29 15q0 -34 -26.5 -58t-64.5 -24q-53 0 -98 38.5t-45 83.5q0 16 11.5 30t29.5 21
q73 27 118 66t45 77q0 21 -12 36t-29 15q-28 0 -55 -16t-47 -45q14 -4 22.5 -14t8.5 -22q0 -19 -13.5 -32.5t-32.5 -13.5q-21 0 -36 15t-15 36zM81 199q0 -15 21 -25.5t50 -10.5q27 0 50 13.5t37 37.5q-11 13 -17 29t-6 32q0 18 2 32t5 24q-25 -29 -47.5 -47t-40.5 -23
q-24 -6 -39 -23.5t-15 -38.5zM280 367q0 -35 40.5 -73.5t76.5 -38.5q17 0 29 12t12 29q0 11 -5.5 21.5t-15.5 18.5q-5 -9 -15 -14.5t-21 -5.5q-19 0 -32 12t-13 29q0 19 13 32.5t32 13.5q12 0 22 -7t14 -19q10 8 15.5 21.5t5.5 29.5q0 17 -12 29t-29 12q-29 0 -73 -38.5
t-44 -63.5z" />
    <glyph glyph-name="uni099E_uni09CD_uni099C" horiz-adv-x="533" 
d="M53 382q0 40 54.5 89t98.5 49q31 -3 52 -33.5t21 -73.5q23 49 55.5 78t65.5 29q29 0 50 -21t21 -50q0 -25 -9.5 -45t-25.5 -32q23 -11 37 -31.5t14 -44.5q0 -15 -5.5 -29.5t-15.5 -26.5l31 -41q-31 -37 -47.5 -80.5t-16.5 -88.5q0 -38 6 -70.5t17 -56.5l-29 15
q-13 37 -20 80.5t-7 93.5q0 39 6.5 70t18.5 52q-34 0 -75.5 37t-78.5 102q-54 -46 -82.5 -79.5t-28.5 -54.5q0 -10 7.5 -17.5t18.5 -7.5q14 0 36.5 13t65.5 43q34 -26 52.5 -60t18.5 -68q0 -46 -35.5 -79t-86.5 -33q-67 0 -126.5 86.5t-82.5 219.5l25 -5q18 -104 70.5 -172
t113.5 -68q38 0 64.5 21t26.5 51q0 16 -5 30t-15 24q-23 -23 -45.5 -35t-41.5 -12q-29 0 -65.5 34t-36.5 61q0 18 18 43t50 51q31 25 48.5 52t17.5 51q0 15 -11 26t-26 11q-24 0 -48.5 -19t-43.5 -52q13 -2 22 -14t9 -27q0 -19 -15 -32.5t-36 -13.5t-36 18t-15 43zM283 377
q0 -28 44 -70t73 -42q21 0 36 12t15 29q0 13 -5.5 24t-15.5 17q-6 -10 -15 -15.5t-20 -5.5q-19 0 -32.5 13.5t-13.5 32.5t13.5 32.5t32.5 13.5q11 0 20.5 -5.5t14.5 -14.5q8 9 12 19.5t4 20.5q0 17 -13.5 29t-32.5 12q-29 0 -73 -38.5t-44 -63.5z" />
    <glyph glyph-name="uni099E_uni09CD_uni099D" horiz-adv-x="598" 
d="M152 367q0 38 54 95.5t89 57.5q19 0 47.5 -26.5t28.5 -44.5v-56q29 50 62 78.5t61 28.5q29 0 50 -21t21 -51q0 -21 -13.5 -42.5t-37.5 -38.5q24 -14 37.5 -36t13.5 -46q0 -29 -21 -50t-50 -21v-255l-21 20q0 43 -28 79.5t-74 53.5v-204l-20 20q-16 61 -66.5 97t-111.5 31
l-36 56q59 42 108 66.5t85 30.5q-11 6 -21.5 9.5t-20.5 3.5q-24 0 -70.5 -4t-70.5 -4q-51 0 -87 37t-36 90q0 22 5.5 43t15.5 39l20 -10q-7 -13 -11 -27.5t-4 -29.5q0 -34 28.5 -57.5t68.5 -23.5q12 0 35.5 2.5t35.5 2.5q34 0 64 -15t48 -41v255q0 8 -6 14t-14 6
q-25 0 -63.5 -44t-38.5 -73q6 7 14 11t17 4q19 0 32.5 -13.5t13.5 -32.5t-16.5 -32.5t-40.5 -13.5q-31 0 -53.5 24t-22.5 58zM213 81q37 -14 67.5 -39t49.5 -58v154q-24 -4 -53.5 -18.5t-63.5 -38.5zM371 143q19 -9 40 -32.5t42 -59.5v153q-17 10 -38 36t-44 66v-163z
M371 347q0 -25 42 -63.5t70 -38.5q21 0 36 11.5t15 28.5q0 8 -5.5 16t-14.5 15q-10 -10 -20.5 -15t-20.5 -5q-51 0 -51 51t51 51q13 0 25 -12.5t16 -8.5q9 7 14.5 15t5.5 16q0 17 -15 29t-36 12q-28 0 -70 -38.5t-42 -63.5z" />
    <glyph glyph-name="uni099E_uni09CD_uni09A7" horiz-adv-x="461" 
d="M245 -31l-31 21q-8 48 -53 84.5t-110 47.5l-31 41q31 26 77.5 50.5t106.5 46.5v240q0 13 -7.5 22.5t-17.5 9.5q-36 0 -66.5 -32.5t-30.5 -71.5q12 8 19 12t11 4q17 0 29 -12t12 -29q0 -21 -13.5 -36t-32.5 -15q-31 0 -53.5 25t-22.5 61q0 49 44.5 95t92.5 46q30 0 52 -20
t25 -49v-36q27 47 57 74.5t55 27.5q34 0 58 -19.5t24 -46.5q0 -22 -15 -45.5t-41 -41.5q21 -10 33 -32t12 -49q0 -28 -18 -47.5t-43 -19.5t-57.5 31.5t-64.5 86.5v-128q14 7 31 10.5t36 3.5q13 0 29 -16t16 -29q-7 -75 -5 -127.5t12 -80.5h-7q-21 16 -33 34t-12 34
q0 31 3 66t8 74q-23 0 -42.5 -4t-35.5 -11v-250zM204 71v138q-31 -11 -56.5 -25t-45.5 -31q28 -8 55 -36t47 -71h5zM352 326q17 0 29 12t12 29q0 9 -5.5 18.5t-15.5 17.5q-7 -10 -15 -15.5t-15 -5.5q-19 0 -32.5 12t-13.5 29q0 21 12 36t29 15q13 0 24 -5.5t16 -14.5
q12 6 19 18.5t7 27.5q0 12 -11 21t-27 9q-35 0 -67.5 -25t-52.5 -67v-20q25 -43 53.5 -67.5t53.5 -24.5z" />
    <glyph glyph-name="uni099F_uni09CD_uni099F" horiz-adv-x="439" 
d="M-10 479l-35 41h365q11 0 18.5 7.5t7.5 18.5q0 15 -19.5 26t-47.5 11l-183 -7q-38 0 -65 28.5t-27 68.5q0 19 9.5 36.5t26.5 29.5l20 -15q-12 -7 -19 -19.5t-7 -26.5q0 -18 15 -30.5t36 -12.5l174 7q46 0 79 -26.5t33 -64.5q0 -13 6 -22t15 -9h22l35 -41h-292v-259
q0 -22 12 -37.5t29 -15.5q37 0 82 40t45 73q-23 -6 -42 11.5t-19 44.5q0 24 18 40.5t43 16.5q32 0 54.5 -24t22.5 -58q0 -28 -15.5 -61.5t-45.5 -68.5q19 -15 29.5 -39t10.5 -53q0 -40 -38.5 -68t-93.5 -28q-80 0 -145.5 65t-89.5 167l21 -10q21 -77 74.5 -125.5
t118.5 -48.5q49 0 83.5 23t34.5 55q0 12 -7 25t-19 23q-28 -28 -58.5 -43t-58.5 -15q-22 0 -54.5 50.5t-32.5 83.5v236h-126z" />
    <glyph glyph-name="uni099F_uni09CD_uni099F_uni09F0_uni09CD" horiz-adv-x="444" 
d="M-10 479l-35 41h373q10 0 17.5 7.5t7.5 18.5q0 14 -19.5 24.5t-46.5 10.5q-31 0 -92 -5t-92 -5q-42 0 -72 30t-30 72q0 17 6.5 34t19.5 32l21 -10q-10 -7 -15.5 -19t-5.5 -27q0 -23 15 -39.5t36 -16.5q32 0 94.5 7.5t94.5 7.5q46 0 79 -26.5t33 -64.5q0 -13 8 -22t19 -9
h13l35 -41h-295v-301q0 -23 12 -39.5t29 -16.5q46 0 89 49.5t43 103.5q-26 -9 -48.5 7t-22.5 44t18 47.5t43 19.5q34 0 58 -27t24 -65q0 -44 -15.5 -86t-45.5 -77q19 -21 29.5 -46.5t10.5 -50.5q0 -11 -3 -21.5t-8 -19.5v-209l-20 10q-4 20 -19.5 33t-36.5 13
q-28 0 -81.5 -15.5t-81.5 -15.5q-42 0 -72 30t-30 72q0 29 5.5 52t15.5 38l22 -9q-7 -10 -11 -25t-4 -34q0 -26 18.5 -44.5t44.5 -18.5q21 0 61.5 13t61.5 13q25 0 48 -12t38 -34v102q-16 -10 -36.5 -15t-43.5 -5q-85 0 -151.5 69t-83.5 174l21 -9q22 -81 75.5 -132
t117.5 -51q49 0 83.5 23.5t34.5 57.5q0 14 -7 27.5t-19 23.5q-29 -29 -59.5 -45t-57.5 -16q-22 0 -54.5 54t-32.5 89v275h-128z" />
    <glyph glyph-name="uni099F_uni09CD_uni09AE" horiz-adv-x="677" 
d="M-10 479l-35 41h367q10 0 17.5 7.5t7.5 18.5q0 14 -19.5 24.5t-46.5 10.5q-31 0 -92 -5t-92 -5q-42 0 -72 30t-30 72q0 17 6.5 34t19.5 32l21 -10q-10 -7 -15.5 -19t-5.5 -27q0 -23 15 -39.5t36 -16.5q32 0 94.5 7.5t94.5 7.5q46 0 79 -26.5t33 -64.5q0 -13 8 -22t19 -9
h252l35 -41h-80v-510l-26 31q-13 49 -40 84t-62 48q-2 -26 -21 -43.5t-45 -17.5q-27 0 -46.5 19.5t-19.5 47.5q0 31 23 51t53 15q0 38 -23.5 67t-59.5 36q3 -10 5 -20.5t2 -21.5q0 -71 -69 -158t-125 -87q-23 0 -57.5 42t-34.5 70v347h-71zM102 479v-347q0 -23 13.5 -39.5
t32.5 -16.5q41 0 87 60t46 114q-30 -5 -53.5 13.5t-23.5 47.5q0 23 19.5 39.5t46.5 16.5q15 0 29.5 -8.5t25.5 -23.5q64 0 109 -47.5t45 -114.5q25 -2 48.5 -27t38.5 -65v398h-464z" />
    <glyph glyph-name="uni099F_uni09F0_uni09CD" horiz-adv-x="421" 
d="M-10 479l-35 41h345q10 0 17.5 7.5t7.5 18.5q0 14 -19.5 24.5t-46.5 10.5q-31 0 -92 -5t-92 -5q-42 0 -72 30t-30 72q0 17 6.5 34t19.5 32l21 -10q-10 -7 -15.5 -19t-5.5 -27q0 -23 15 -39.5t36 -16.5q32 0 94.5 7.5t94.5 7.5q46 0 79 -26.5t33 -64.5q0 -13 8 -22t19 -9
h18l35 -41h-290v-301q0 -27 12 -46.5t29 -19.5q35 0 88.5 61.5t53.5 101.5q-5 -2 -10.5 -3t-9.5 -1q-25 0 -43 17.5t-18 42.5q0 26 18 44t43 18q34 0 58 -28.5t24 -68.5t-13 -77t-38 -66v-260l-21 15q0 19 -21 32.5t-50 13.5q-17 0 -51 -2.5t-51 -2.5q-51 0 -86.5 38.5
t-35.5 93.5q0 15 2.5 29t7.5 28l20 -6q-3 -8 -4.5 -15.5t-1.5 -14.5q0 -38 26 -65t62 -27q14 0 43 1.5t43 1.5q26 0 49.5 -13t37.5 -36v158q-29 -29 -59.5 -45t-57.5 -16q-22 0 -54.5 54t-32.5 89v275h-110z" />
    <glyph glyph-name="uni099F_uni09AC_uni09CD" horiz-adv-x="386" 
d="M-10 479l-35 41h318q10 0 17.5 7.5t7.5 18.5q0 14 -19.5 24.5t-46.5 10.5q-31 0 -92 -5t-92 -5q-42 0 -72 30t-30 72q0 17 6.5 34t19.5 32l21 -10q-10 -7 -15.5 -19t-5.5 -27q0 -23 15 -39.5t36 -16.5q32 0 94.5 7.5t94.5 7.5q46 0 79 -26.5t33 -64.5q0 -13 8 -22t19 -9
h10l35 -41h-288v-296q0 -23 13.5 -39.5t32.5 -16.5q41 0 87 60t46 114q-30 -5 -53.5 13.5t-23.5 47.5q0 23 19.5 39.5t46.5 16.5q32 0 54.5 -30t22.5 -72q0 -33 -14.5 -70t-41.5 -75v-320l-21 16q-16 48 -72.5 77t-131.5 29l-35 66q20 16 40.5 30l40.5 27q-24 24 -37.5 46.5
t-13.5 40.5v296h-77zM113 16q47 -8 84.5 -33.5t58.5 -62.5h5l-5 64v118q-32 -9 -68.5 -31t-74.5 -55z" />
    <glyph glyph-name="uni09A0_uni09F0_uni09CD" horiz-adv-x="402" 
d="M-45 520h238q-52 57 -79.5 103.5t-27.5 75.5q0 22 11 42.5t30 33.5l61 -31q-30 -11 -48 -27.5t-18 -33.5q0 -24 25 -65.5t72 -97.5h158l35 -41h-163q49 -59 75.5 -118t26.5 -111q0 -24 -3.5 -46.5t-10.5 -42.5v-309l-20 10q-4 20 -20 33t-37 13q-23 0 -68.5 -8t-68.5 -8
q-44 0 -75.5 33t-31.5 79q0 23 5 42t15 33l15 -10q-5 -9 -7.5 -23t-2.5 -32q0 -25 15 -42.5t36 -17.5q20 0 58.5 5t58.5 5q26 0 49 -12t38 -34v166q-20 -23 -47 -35.5t-56 -12.5q-57 0 -97.5 55t-40.5 133q88 32 131.5 106.5t16.5 148.5h-213zM96 183q0 -42 24 -72t58 -30
q57 0 97.5 54t40.5 130q0 50 -17.5 97.5t-49.5 86.5h-5q16 -92 -26.5 -168.5t-121.5 -97.5z" />
    <glyph glyph-name="uni09A1_uni09CD_uni0997" horiz-adv-x="889" 
d="M-45 520h477l36 -41h-229v-173q0 -15 4.5 -25.5t10.5 -10.5q24 0 55.5 30t61.5 82q38 -22 60 -61.5t22 -86.5q0 -72 -51 -122.5t-123 -50.5q-94 0 -167.5 108.5t-87.5 268.5l24 -20q16 -129 82 -215t149 -86q61 0 104.5 39t43.5 94q0 26 -6.5 46t-18.5 30
q-29 -50 -64.5 -78.5t-68.5 -28.5q-21 0 -46 38t-25 69v153h-208zM442 367q0 61 50.5 104.5t122.5 43.5q47 0 91 -35.5t72 -95.5v197h10l31 -51v-10h45l35 -41h-80v-515l-41 46v306q-5 63 -52 105.5t-111 42.5q-47 0 -78 -29.5t-24 -67.5q24 14 42 21t29 7q32 0 64.5 -43.5
t32.5 -86.5q0 -35 -21 -74.5t-60 -78.5l-56 51q44 44 67.5 83.5t23.5 69.5q0 13 -11.5 22t-28.5 9q-22 0 -56.5 -25.5t-56.5 -25.5q-17 0 -28.5 21t-11.5 50z" />
    <glyph glyph-name="uni09A1_uni09CD_uni09A1" horiz-adv-x="756" 
d="M-45 520h776l35 -41h-247v-168q0 -11 6 -18.5t15 -7.5q29 0 57 28t45 74q38 -22 59.5 -60t21.5 -82q0 -80 -45 -137t-108 -57q-55 0 -105.5 51t-77.5 133q-5 -56 -47.5 -94.5t-100.5 -38.5q-71 0 -133 91t-87 230l26 -10q17 -106 73.5 -175.5t125.5 -69.5q46 0 79 33
t33 79q0 22 -5.5 39.5t-15.5 27.5q-25 -43 -55 -67.5t-57 -24.5q-18 0 -39.5 32.5t-21.5 59.5v132h-172zM203 479v-132q0 -13 4.5 -22t10.5 -9q25 0 51 25t46 67q34 -24 53 -58t19 -70q27 -73 76 -118t102 -45q55 0 94 40.5t39 97.5q0 17 -8 34t-23 32q-25 -43 -56 -67.5
t-61 -24.5q-21 0 -46.5 34.5t-25.5 62.5v153h-275z" />
    <glyph glyph-name="uni09A1_uni09CD_uni09AE" horiz-adv-x="788" 
d="M-56 520h810l46 -41h-82v-510l-25 31q-13 49 -40 84t-62 48q-2 -26 -21.5 -43.5t-45.5 -17.5q-27 0 -46.5 19.5t-19.5 47.5q0 31 23 51t53 15q0 42 -28 72.5t-69 32.5q8 -18 12 -37t4 -38q0 -72 -51 -122.5t-123 -50.5q-94 0 -167.5 108.5t-87.5 268.5l21 -20
q16 -129 83 -215t151 -86q61 0 104.5 39t43.5 94q0 26 -6.5 46t-18.5 30q-29 -50 -64.5 -78.5t-68.5 -28.5q-21 0 -46 38t-25 69v153h-208zM239 479v-173q0 -15 4.5 -25.5t10.5 -10.5q24 0 55.5 30t61.5 82q15 -9 27.5 -20.5t22.5 -25.5q71 -1 120.5 -48.5t49.5 -114.5
q22 -2 45.5 -31t40.5 -76v413h-438z" />
    <glyph glyph-name="uni09A1_uni09F0_uni09CD" horiz-adv-x="513" 
d="M-10 479l-35 41h533l35 -41h-265v-163q0 -10 4.5 -17.5t10.5 -7.5q27 0 60.5 27t67.5 75q39 -39 60 -80.5t21 -78.5q0 -36 -16 -69.5t-45 -57.5v-240l-20 15q-9 32 -36 52t-61 20q-22 0 -66.5 -7.5t-66.5 -7.5q-53 0 -90 35.5t-37 86.5q0 15 4 33t11 38l21 -10
q-5 -15 -8 -25.5t-3 -15.5q0 -29 22.5 -50t54.5 -21q22 0 66 5t66 5q27 0 54.5 -20.5t47.5 -55.5v137q-17 -10 -37.5 -15t-43.5 -5q-87 0 -162 104t-103 263l27 -10q22 -124 89.5 -205t148.5 -81q63 0 108 40.5t45 97.5q0 14 -7 27.5t-19 23.5q-39 -46 -79 -71.5t-74 -25.5
q-16 0 -36 29t-20 53v173h-227z" />
    <glyph glyph-name="uni09A1_uni09AC_uni09CD" horiz-adv-x="483" 
d="M-45 520h503l35 -41h-254v-173q0 -15 4.5 -25.5t10.5 -10.5q24 0 55.5 30t61.5 82q38 -22 60 -61.5t22 -86.5q0 -44 -22 -83.5t-61 -63.5v-189l-15 15q-21 30 -62 51t-96 31l-26 41q12 9 27 17.5t32 16.5q-82 30 -138 130t-68 238l21 -20q16 -129 83 -215t151 -86
q61 0 104.5 39t43.5 94q0 28 -7 49t-19 31q-29 -51 -64.5 -80t-67.5 -29q-21 0 -46 37.5t-25 67.5v153h-208zM329 -46v107q-23 -2 -49 -11t-53 -25q37 -14 63.5 -32t38.5 -39z" />
    <glyph glyph-name="uni09A2_uni09F0_uni09CD" horiz-adv-x="406" 
d="M318 -87l-15 15q-6 36 -25 59t-41 23q-19 0 -56.5 -5t-56.5 -5q-42 0 -72 35.5t-30 86.5q0 11 5.5 28t15.5 39l15 -11q-5 -14 -7.5 -25.5t-2.5 -20.5q0 -34 22.5 -57.5t53.5 -23.5q13 0 38.5 5t38.5 5q24 0 47.5 -16.5t39.5 -44.5v138q-20 -24 -45.5 -37.5t-51.5 -13.5
q-31 0 -59 44.5t-28 92.5v255h-114l-35 41h426l35 -41h-271v-250q0 -27 18 -51.5t38 -24.5q29 0 65.5 47t36.5 85q0 4 -0.5 8.5t-1.5 10.5q-4 -1 -7.5 -2t-5.5 -1q-21 0 -36 16t-15 38t17.5 37.5t41.5 15.5q36 0 54.5 -28.5t18.5 -83.5q0 -37 -13 -73t-38 -65v-245z" />
    <glyph glyph-name="uni09A3_uni09CD_uni099F" horiz-adv-x="574" 
d="M260 520h197q10 0 17.5 7.5t7.5 18.5q0 14 -19.5 24.5t-46.5 10.5q-31 0 -92 -5t-92 -5q-42 0 -72 30t-30 72q0 17 6.5 34t19.5 32l21 -10q-10 -7 -15.5 -19t-5.5 -27q0 -23 15 -39.5t36 -16.5q32 0 94.5 7.5t94.5 7.5q46 0 79 -26.5t33 -64.5q0 -13 8 -22t19 -9h14
l35 -41h-283v-347q0 -21 13.5 -36t32.5 -15q39 0 83 60t44 114q-25 0 -43 16.5t-18 39.5t16.5 39.5t39.5 16.5q32 0 54.5 -30t22.5 -72q0 -71 -69 -158t-125 -87q-23 0 -57.5 42t-34.5 70v204q-9 51 -40.5 84.5t-71.5 33.5q-36 0 -62 -22.5t-26 -53.5t17.5 -52.5t41.5 -21.5
q13 0 22 2t12 5q-12 3 -19.5 15t-7.5 28q0 18 12.5 31t29.5 13q19 0 32.5 -15t13.5 -36q0 -38 -25.5 -65t-61.5 -27q-42 0 -72 37t-30 90t36 90.5t87 37.5q36 0 67 -32.5t45 -84.5v127z" />
    <glyph glyph-name="uni09A3_uni09CD_uni099F_uni09F0_uni09CD" horiz-adv-x="613" 
d="M288 520h207q10 0 17.5 7.5t7.5 18.5q0 14 -19.5 24.5t-46.5 10.5q-31 0 -92 -5t-92 -5q-42 0 -72 30t-30 72q0 17 6.5 34t19.5 32l21 -10q-10 -7 -15.5 -19t-5.5 -27q0 -23 15 -39.5t36 -16.5q32 0 94.5 7.5t94.5 7.5q46 0 79 -26.5t33 -64.5q0 -13 8 -22t19 -9h15
l35 -41h-294v-347q0 -21 13.5 -36t32.5 -15q39 0 83 60t44 114q-25 0 -43 16.5t-18 39.5t16.5 39.5t39.5 16.5q32 0 54.5 -30t22.5 -72q0 -21 -8 -46t-23 -54v-313l-20 10q-4 20 -19.5 33t-36.5 13q-28 0 -82 -15.5t-82 -15.5q-42 0 -72 34.5t-30 82.5q0 24 4 42t11 28
l20 -5q-4 -10 -6.5 -25t-2.5 -35q0 -25 19.5 -42.5t46.5 -17.5q21 0 61.5 12.5t61.5 12.5q25 0 48 -12t38 -34v183q-30 -38 -62 -59.5t-60 -21.5q-23 0 -57.5 42t-34.5 70l1 215q-14 54 -48.5 88t-74.5 34q-36 0 -61 -27t-25 -65q0 -23 11 -41t29 -25q-8 29 6.5 52.5
t39.5 23.5q21 0 36 -16.5t15 -39.5q0 -29 -22.5 -50t-53.5 -21q-48 0 -82.5 34.5t-34.5 82.5q0 59 38.5 101t93.5 42q38 0 74.5 -33.5t58.5 -88.5z" />
    <glyph glyph-name="uni09A3_uni09CD_uni09A0" horiz-adv-x="429" 
d="M24 420q0 41 30 70.5t72 29.5q37 0 70.5 -31t51.5 -81q8 32 -52 141.5t-60 169.5q0 12 8 27t22 29l41 -51q-13 -13 -20 -23.5t-7 -17.5q0 -29 18.5 -70.5t54.5 -92.5h151l35 -41h-155q52 -69 79.5 -136t27.5 -124q0 -87 -57 -148t-137 -61q-66 0 -104 60.5t-18 133.5
q62 23 106.5 71.5t61.5 111.5q-19 40 -46.5 63.5t-55.5 23.5q-30 0 -51 -21t-21 -50q0 -23 14.5 -37.5t31.5 -8.5q-19 16 -9 38.5t35 22.5q19 0 32.5 -13.5t13.5 -32.5q0 -25 -19.5 -43t-47.5 -18q-40 0 -68 32t-28 77zM126 122q0 -29 21 -50t50 -21q59 0 101 61t42 148
q0 51 -13 95.5t-38 77.5q0 -74 -32.5 -139t-90.5 -105q-19 -13 -29.5 -31t-10.5 -36z" />
    <glyph glyph-name="uni09A3_uni09CD_uni09A0_uni09F0_uni09CD" horiz-adv-x="438" 
d="M24 418q0 46 30 79t72 33q35 0 68.5 -33.5t53.5 -88.5h5q9 32 -54 139.5t-63 166.5q0 12 8 27t22 29l41 -46q-13 -13 -20 -23.5t-7 -17.5q0 -29 18.5 -70.5t54.5 -92.5h160l35 -41h-164q52 -69 79.5 -136t27.5 -124q0 -22 -4.5 -44t-13.5 -43v-280l-20 10q-4 20 -19.5 33
t-36.5 13q-28 0 -81.5 -15.5t-81.5 -15.5q-42 0 -72 30t-30 72h20q0 -17 21 -28.5t50 -11.5q21 0 61.5 12.5t61.5 12.5q26 0 49 -12t38 -34v152q-28 -29 -63.5 -44.5t-72.5 -15.5q-66 0 -104 60.5t-18 133.5q62 23 106.5 71.5t61.5 111.5q-19 40 -46.5 63.5t-55.5 23.5
q-30 0 -51 -21t-21 -50q0 -28 18 -45.5t38 -10.5q-10 2 -16 11.5t-6 22.5q0 15 12.5 26t29.5 11t29.5 -13.5t12.5 -32.5q0 -25 -19.5 -43t-47.5 -18q-40 0 -68 31.5t-28 75.5zM126 122q0 -29 21 -50t50 -21q59 0 101 61t42 148q0 54 -13 99.5t-38 78.5v-10
q0 -72 -32.5 -135.5t-90.5 -103.5q-19 -13 -29.5 -31t-10.5 -36z" />
    <glyph glyph-name="uni09A3_uni09CD_uni09A1" horiz-adv-x="557" 
d="M118 402q0 49 30 83.5t72 34.5q41 0 78 -35t55 -92l50 122q58 -94 83 -142t25 -77q0 -33 -9.5 -58t-26.5 -37q15 -12 23 -31.5t8 -41.5q0 -49 -42 -83.5t-101 -34.5q-101 0 -197.5 124t-149.5 320l26 -10q42 -158 130.5 -257.5t185.5 -99.5q44 0 75 21.5t31 51.5
q0 10 -2.5 18t-6.5 13q-13 -9 -26 -13.5t-25 -4.5q-25 0 -43 18t-18 43q0 26 18 44t43 18q12 0 23 -5.5t18 -15.5q12 10 18.5 23.5t6.5 27.5t-11.5 40t-34.5 62l-45 -102h-16q-21 58 -53 93t-64 35t-54.5 -21t-22.5 -51q0 -23 12.5 -38.5t28.5 -12.5q-3 5 -5 11t-2 12
q0 18 14 31t34 13q19 0 32.5 -15t13.5 -36q0 -26 -21 -44t-51 -18q-44 0 -75.5 34.5t-31.5 82.5z" />
    <glyph glyph-name="uni09A3_uni09CD_uni09A1_uni09F0_uni09CD" horiz-adv-x="592" 
d="M567 520l35 -41h-269v-183q0 -13 7.5 -22t17.5 -9q28 0 60.5 28.5t61.5 78.5q36 -28 56.5 -66t20.5 -77q0 -69 -25 -121t-67 -72v-199l-20 15q-7 27 -27 44t-45 17q-24 0 -71 -7.5t-71 -7.5q-71 0 -114 57t-24 126l18 -7q-8 -45 16 -80t63 -35q22 0 66 5t66 5
q32 0 59.5 -15t42.5 -41v107q-14 -5 -29 -7.5t-32 -2.5q-103 0 -200 118t-147 305l26 -10q41 -154 130.5 -250.5t190.5 -96.5q68 0 115.5 46.5t47.5 111.5q0 19 -5 35t-15 27q-44 -44 -80 -68t-58 -24t-49 29t-27 52v62q-9 51 -38.5 84t-66.5 33q-33 0 -56.5 -21t-23.5 -50
q0 -33 19 -56t46 -23q11 0 19 2t10 5q-17 2 -29 14t-12 29q0 18 13.5 31t32.5 13t32.5 -15t13.5 -36q0 -32 -21 -54.5t-50 -22.5q-43 0 -73.5 34.5t-30.5 83.5q0 51 32 86.5t78 35.5q33 0 62 -32.5t43 -84.5v117h275z" />
    <glyph glyph-name="uni09A3_uni09CD_uni09A2" horiz-adv-x="602" 
d="M288 520h289l35 -41h-283v-347q0 -21 13.5 -36t32.5 -15q39 0 83 60t44 114q-25 0 -43 16.5t-18 39.5t16.5 39.5t39.5 16.5q32 0 54.5 -30t22.5 -72q0 -71 -69 -158t-125 -87q-23 0 -57.5 42t-34.5 70l1 215q-14 54 -48.5 88t-74.5 34q-36 0 -61 -27t-25 -65
q0 -23 11 -41t29 -25q-8 29 6.5 52.5t39.5 23.5q21 0 36 -16.5t15 -39.5q0 -29 -22.5 -50t-53.5 -21q-48 0 -82.5 34.5t-34.5 82.5q0 59 38.5 101t93.5 42q38 0 74.5 -33.5t58.5 -88.5z" />
    <glyph glyph-name="uni09A3_uni09CD_uni09A2_uni09F0_uni09CD" horiz-adv-x="583" 
d="M258 520h300l35 -41h-294v-347q0 -21 13.5 -36t32.5 -15q39 0 83 60t44 114q-25 0 -43 16.5t-18 39.5t16.5 39.5t39.5 16.5q32 0 54.5 -30t22.5 -72q0 -20 -7.5 -45t-22.5 -53v-308l-20 13q-4 20 -21.5 33t-40.5 13q-27 0 -79 -15t-79 -15q-42 0 -72 27t-30 66q0 27 5 51
t15 43l20 -15q-7 -10 -10.5 -24.5t-3.5 -31.5q0 -23 19.5 -39t46.5 -16q21 0 61.5 12.5t61.5 12.5q25 0 48 -12t38 -34v175q-30 -39 -62 -61t-61 -22q-23 0 -57.5 42t-34.5 70v204q-9 51 -40.5 84.5t-71.5 33.5q-36 0 -61.5 -25t-25.5 -60q0 -27 17 -46t41 -19q13 0 22 2
t12 5q-12 3 -19.5 15t-7.5 28q0 18 12.5 31t29.5 13q19 0 32.5 -15t13.5 -36q0 -32 -25.5 -54.5t-61.5 -22.5q-42 0 -72 34.5t-30 82.5q0 51 36 87t87 36q36 0 67 -32.5t45 -84.5v127z" />
    <glyph glyph-name="uni09A3_uni09CD_uni09A3" horiz-adv-x="418" 
d="M348 -37l-43 37v107q-8 43 -43 71t-80 28q-34 0 -57.5 -23t-23.5 -56q0 -26 14.5 -44.5t34.5 -18.5q-6 9 -9.5 17.5t-4.5 15.5q0 19 13 32.5t32 13.5q21 0 36 -17.5t15 -42.5q0 -26 -23 -44.5t-55 -18.5q-44 0 -75 33.5t-31 81.5q0 56 36.5 95.5t88.5 39.5
q33 0 68.5 -30.5t63.5 -82.5v203q-20 52 -52 83.5t-64 31.5q-36 0 -62 -28t-26 -67q0 -26 13 -44.5t31 -18.5q-2 4 -4 12.5l-5 20.5q0 19 13 32.5t32 13.5q21 0 36 -17.5t15 -42.5q0 -26 -22.5 -44.5t-54.5 -18.5q-44 0 -75.5 33.5t-31.5 81.5q0 59 36.5 100.5t88.5 41.5
q35 0 71 -35t61 -94v180h12l31 -45v-16h45l35 -41h-80v-516z" />
    <glyph glyph-name="uni09A3_uni09CD_uni09AE" horiz-adv-x="542" 
d="M289 347q-14 54 -48.5 88t-74.5 34q-36 0 -61 -30t-25 -72q0 -19 11 -34t29 -22q-8 29 6.5 52.5t39.5 23.5q22 0 37.5 -17.5t15.5 -42.5q0 -28 -23 -47.5t-55 -19.5q-49 0 -83.5 34.5t-34.5 82.5q0 59 39 101t94 42q41 0 78 -37t55 -96v194h10l30 -51v-10h188l35 -41h-80
v-525l-20 30q-13 47 -47 81t-81 47q-2 -22 -21 -36.5t-45 -14.5q-28 0 -48 20t-20 49t20 49t48 20q9 0 17 -1.5t14 -4.5v154zM329 479v-306q34 -20 60 -48t42 -62v416h-102z" />
    <glyph glyph-name="uni09A3_uni09F0_uni09CD" horiz-adv-x="464" 
d="M353 581h10l31 -51v-10h45l35 -41h-80v-510l-41 41q0 15 -15.5 25.5t-37.5 10.5q-28 0 -85 -5.5t-85 -5.5q-43 0 -73 27t-30 65q0 27 4.5 49t13.5 37l23 -10q-6 -8 -9.5 -20t-3.5 -26q0 -25 15 -43t37 -18q26 0 78 3t78 3q27 0 51 -14t39 -38v256q0 63 -36 108t-87 45
q-48 0 -82.5 -27t-34.5 -65q0 -28 17.5 -48.5t43.5 -22.5q-2 4 -3.5 9.5t-1.5 10.5q0 21 13.5 36t32.5 15q23 0 39.5 -18t16.5 -43q0 -30 -23.5 -51t-57.5 -21q-47 0 -80 39t-33 94q0 65 40.5 111.5t97.5 46.5q45 0 83.5 -38t54.5 -98v192z" />
    <glyph glyph-name="uni09A3_uni09AC_uni09CD" horiz-adv-x="402" 
d="M61 153q52 44 110.5 75t119.5 47v72q-14 54 -48.5 88t-74.5 34q-36 0 -61 -27t-25 -65q0 -23 11 -41t29 -25q-8 29 6.5 52.5t39.5 23.5q21 0 36 -16.5t15 -39.5q0 -29 -22.5 -50t-53.5 -21q-48 0 -82.5 34.5t-34.5 82.5q0 59 38.5 101t93.5 42q38 0 74.5 -33.5
t58.5 -88.5v183h5l36 -51v-10h45l35 -41h-80v-510l-26 26q-17 46 -71.5 74t-127.5 28zM148 138q48 -8 85.5 -32t57.5 -58v166q-40 -7 -76.5 -26.5t-66.5 -49.5z" />
    <glyph glyph-name="uni09CE_uni09A4" horiz-adv-x="535" 
d="M-45 520h555l35 -41h-555zM448 250q24 -20 37.5 -48t13.5 -59q0 -47 -37.5 -80t-90.5 -33q-101 0 -199.5 111.5t-157.5 291.5l31 -15q47 -144 134 -232.5t182 -88.5q42 0 72 21t30 50q0 19 -7.5 36t-20.5 28q-6 -17 -21 -27.5t-33 -10.5q-23 0 -39.5 16.5t-16.5 39.5
t16.5 39.5t39.5 16.5q13 0 24.5 -5.5t18.5 -15.5q7 8 10.5 22t3.5 33q0 32 -21 55t-51 23q-38 0 -74 -25t-61 -68q20 0 34 -12.5t14 -30.5q0 -20 -15 -34t-36 -14q-27 0 -46.5 19.5t-19.5 47.5q0 46 65.5 97t123.5 51q51 0 86.5 -37.5t35.5 -90.5q0 -17 -6.5 -35.5
t-18.5 -35.5z" />
    <glyph glyph-name="uni09CE_uni09A4_uni09AC_uni09CD" horiz-adv-x="504" 
d="M-45 520h524l35 -41h-524zM158 311q0 46 61.5 92t122.5 46q44 0 75.5 -33t31.5 -80q0 -11 -10.5 -29t-30.5 -42q23 -11 37 -38.5t14 -63.5q0 -23 -10 -40.5t-26 -25.5v-235l-20 15q-19 51 -69 82t-114 31l-36 46q20 14 41.5 25.5t44.5 19.5q-82 22 -150 113.5t-105 228.5
l31 -10q33 -124 113 -202.5t173 -78.5q40 0 68 19.5t28 47.5q0 12 -6.5 23t-18.5 18q-6 -12 -17 -19t-24 -7q-23 0 -39.5 16.5t-16.5 39.5t16.5 39.5t39.5 16.5q7 0 13.5 -2.5t12.5 -7.5q12 14 18.5 31t6.5 35q0 13 -9 22t-21 9q-55 0 -97.5 -19t-61.5 -52q17 0 29 -13.5
t12 -32.5q0 -21 -15 -36t-36 -15q-23 0 -39.5 19.5t-16.5 46.5zM265 30q34 -6 65 -30t53 -62v143q-28 -7 -57.5 -20t-60.5 -31z" />
    <glyph glyph-name="uni09CE_uni09A5" horiz-adv-x="537" 
d="M17 428q0 42 27 72t66 30q28 0 54.5 -24t40.5 -64l63 98l67 -76q17 -19 26 -43t9 -49q0 -45 -45.5 -79t-112.5 -40q74 -27 129.5 -68.5t84.5 -92.5v489h11l30 -51v-10h45l35 -41h-80v-479l-20 15q-40 86 -120.5 137.5t-175.5 51.5l-82 81q22 -5 47.5 -7.5t54.5 -2.5
q63 0 108 36t45 87q0 21 -8.5 42t-24.5 40l-69 -113h-13q-9 49 -34 80.5t-55 31.5q-21 0 -35.5 -15t-14.5 -36q0 -6 2.5 -12.5t7.5 -12.5q6 6 14 9t17 3q17 0 28.5 -12.5t11.5 -30.5q0 -19 -15 -32.5t-36 -13.5q-34 0 -58.5 30t-24.5 72z" />
    <glyph glyph-name="uni09CE_uni09A8" horiz-adv-x="508" 
d="M-45 520h528l35 -41h-528zM193 347q0 42 33 72t79 30q65 0 111.5 -49.5t46.5 -119.5q0 -39 -8 -69t-23 -48v-275l-20 20q-15 56 -56.5 91.5t-91.5 35.5q12 -9 19 -23.5t7 -32.5q0 -25 -18 -43t-44 -18q-25 0 -43 19.5t-18 46.5q0 36 25.5 61.5t61.5 25.5t72.5 -23
t65.5 -64v143q-21 -12 -42 -18.5t-40 -6.5q-84 0 -166 91.5t-130 239.5l26 -10q41 -113 111 -181.5t144 -68.5q55 0 93.5 30t38.5 72q0 54 -32.5 89.5t-74.5 28.5q10 -8 15.5 -21.5t5.5 -29.5q0 -32 -21 -54.5t-51 -22.5q-31 0 -53.5 24t-22.5 58z" />
    <glyph glyph-name="uni09CE_uni09AE" horiz-adv-x="566" 
d="M-45 520h586l35 -41h-80v-546l-26 26q-5 31 -33 56t-69 36q-2 -26 -21 -43.5t-45 -17.5q-29 0 -50 19.5t-21 46.5q0 31 24.5 51.5t56.5 14.5q-5 15 -11.5 25t-13.5 14h-31q-60 -2 -127 70t-118 192l31 -15q38 -82 96 -130.5t118 -48.5q40 0 68.5 27t28.5 65
q0 37 -21.5 62t-49.5 20q7 -9 11 -19.5t4 -21.5q0 -27 -18 -46.5t-43 -19.5q-30 0 -51 21t-21 50q0 34 28.5 58t68.5 24q51 0 87 -42t36 -101q0 -47 -18 -83t-49 -50q20 -14 33 -36t18 -50q26 -2 49 -21.5t38 -50.5v464h-465z" />
    <glyph glyph-name="uni09A4_uni09F0_uni09CD" horiz-adv-x="506" 
d="M-45 520h526l35 -41h-526zM175 234q0 68 63.5 144t120.5 76q24 0 53 -31t29 -56v-434l-21 21q-7 40 -33 66t-59 26q-22 0 -66 -8t-66 -8q-70 0 -119 48t-49 116q0 27 5 51.5t15 45.5l20 -11q-7 -13 -11 -33.5t-4 -47.5q0 -42 33 -72t79 -30q19 0 56 7.5t56 7.5
q37 0 70 -25t53 -67v347q0 17 -9 29t-22 12q-30 0 -76 -50t-46 -83q6 5 12.5 7.5t13.5 2.5q23 0 39 -18t16 -43q0 -27 -22.5 -46.5t-53.5 -19.5q-32 0 -54.5 22.5t-22.5 53.5z" />
    <glyph glyph-name="uni09A4_uni09F0_uni09CD_uni09C1" horiz-adv-x="659" 
d="M-45 520h679l35 -41h-679zM184 234q0 54 69 137t114 83q24 0 53 -31t29 -56v-51q14 -24 35.5 -37.5t45.5 -13.5q30 0 51 19.5t21 46.5q0 11 -7 20.5t-19 15.5q0 -21 -11.5 -36t-28.5 -15q-19 0 -32.5 12t-13.5 29q0 21 16.5 36t39.5 15q34 0 57.5 -31.5t23.5 -75.5
q0 -36 -25 -61.5t-61 -25.5q-30 0 -55 19.5t-37 51.5v-346l-21 20q-7 38 -32.5 62.5t-58.5 24.5q-30 0 -89.5 -8t-89.5 -8q-53 0 -90 39t-37 94q0 29 6.5 61.5t18.5 66.5l21 -11q-8 -22 -12 -46.5t-4 -50.5q0 -34 25.5 -57.5t61.5 -23.5q29 0 86.5 5t86.5 5q25 0 48.5 -19.5
t38.5 -51.5v326q0 17 -9 29t-22 12q-24 0 -70 -50t-52 -83q2 2 7.5 3t13.5 1q23 0 39.5 -17.5t16.5 -42.5t-21 -43t-51 -18q-31 0 -53.5 22.5t-22.5 53.5z" />
    <glyph glyph-name="uni09A4_uni09F0_uni09CD_uni09C2" horiz-adv-x="651" 
d="M-45 520h671l35 -41h-671zM175 234q0 54 69 137t115 83q24 0 53 -31t29 -56v-25l34.5 20t36.5 15q29 0 50 -19.5t21 -46.5t-10 -79t-10 -79q0 -49 5 -93t15 -81q-28 16 -44.5 35.5t-16.5 36.5q0 44 5 132.5t5 132.5q-20 0 -43.5 -10.5t-47.5 -30.5v-336l-21 20
q-7 38 -33 62.5t-59 24.5q-22 0 -66 -8t-66 -8q-70 0 -119 48t-49 116q0 21 6.5 46t18.5 51l20 -11q-7 -13 -11 -33.5t-4 -47.5q0 -42 31.5 -72t75.5 -30q19 0 56 7.5t56 7.5q39 0 72.5 -22t50.5 -60v337q0 17 -9 29t-22 12q-30 0 -76 -50t-46 -83q24 20 52.5 2t28.5 -53
q0 -27 -22.5 -46.5t-53.5 -19.5q-32 0 -54.5 22.5t-22.5 53.5z" />
    <glyph glyph-name="uni09CE_uni09B2" horiz-adv-x="530" 
d="M-45 520h550l35 -41h-550zM209 367q0 36 35.5 61.5t86.5 25.5q65 0 111.5 -41.5t46.5 -100.5q0 -22 -9 -43.5t-26 -38.5v-291l-23 20q-8 57 -33 95t-55 38q-17 0 -28.5 -21t-11.5 -51h-15q-14 33 -43.5 52.5t-64.5 19.5q-36 0 -61 -18t-25 -44q0 -23 21 -39.5t50 -16.5
q-12 3 -19.5 13.5t-7.5 23.5q0 17 13 28.5t32 11.5q17 0 29.5 -13.5t12.5 -32.5q0 -25 -19.5 -43t-47.5 -18q-43 0 -73 30t-30 72q0 48 30 82.5t73 34.5q33 0 63.5 -22t47.5 -60q7 31 21 51.5t30 20.5q30 0 56 -25.5t37 -66.5v140q-21 -11 -44.5 -16.5t-47.5 -5.5
q-95 0 -178 75t-123 197l31 -9q40 -93 110.5 -149t149.5 -56q59 0 101 28.5t42 69.5q0 30 -27 51t-65 21q-7 0 -12.5 -1t-7.5 -2q9 -6 14.5 -16t5.5 -21q0 -30 -22.5 -51.5t-54.5 -21.5q-31 0 -53.5 21.5t-22.5 51.5z" />
    <glyph glyph-name="uni09A4_uni09AC_uni09CD" horiz-adv-x="491" 
d="M-45 520h511l35 -41h-511zM189 347q0 42 31.5 72t75.5 30q65 0 111.5 -48t46.5 -116q0 -44 -13.5 -78.5t-37.5 -53.5v-265l-20 20q-24 51 -75 81.5t-114 30.5l-41 56l82 51q-72 26 -130 107t-90 199l26 -10q30 -111 98 -180.5t147 -69.5q57 0 97 36t40 87q0 40 -32 67.5
t-75 23.5q10 -12 15.5 -25t5.5 -26q0 -29 -19.5 -50t-47.5 -21q-34 0 -57.5 24t-23.5 58zM240 61q48 -17 80 -42.5t42 -54.5v158q-36 -10 -67 -25t-55 -36z" />
    <glyph glyph-name="uni09A5_uni09F0_uni09CD" horiz-adv-x="460" 
d="M374 -10q-7 39 -30 65t-51 26q-24 0 -71.5 -5t-71.5 -5q-48 0 -82.5 33t-34.5 79q0 17 4 32t11 25l15 -11q-5 -9 -7.5 -20.5t-2.5 -25.5q0 -25 18 -43t43 -18q21 0 63 5t63 5q36 0 68 -19t51 -52l2 1q-6 71 -76 122.5t-171 60.5l-51 71q80 0 137 34.5t57 82.5
q0 28 -19.5 47.5t-46.5 19.5q-34 0 -58 -13.5t-24 -32.5q16 -3 26 -16t10 -30t-13.5 -29t-32.5 -12q-23 0 -39.5 18t-16.5 43q0 46 37 78t90 32q51 0 87 -35t36 -85q0 -42 -29.5 -78.5t-77.5 -54.5q58 -27 100.5 -65t62.5 -82v443h10l31 -46v-15h45l35 -41h-80v-510z" />
    <glyph glyph-name="uni09A5_uni09F0_uni09CD_uni09C1" horiz-adv-x="623" 
d="M55 428q0 46 37 78t90 32q51 0 87 -35t36 -85q0 -42 -29.5 -78.5t-77.5 -54.5q60 -28 102 -64.5t61 -77.5v438h10l31 -51v-10h196l35 -41h-231v-163q14 -24 35.5 -37.5t45.5 -13.5q30 0 51 19.5t21 46.5q0 12 -7 24.5t-19 22.5l-1 -1q3 -4 4.5 -9t1.5 -11q2 -19 -12 -33
t-34 -14q-19 0 -32 14t-13 33q0 21 16.5 36t39.5 15q34 0 57.5 -31.5t23.5 -75.5q0 -36 -25 -61.5t-61 -25.5q-28 0 -53.5 22.5t-38.5 59.5v-327l-16 20q-7 38 -30 62.5t-51 24.5q-26 0 -79 -5t-79 -5q-48 0 -82.5 30t-34.5 72q0 29 4 48.5t11 28.5l20 -6q-5 -7 -7.5 -20
t-2.5 -31q0 -25 22.5 -43t53.5 -18q24 0 71.5 2.5t71.5 2.5q26 0 53 -20.5t47 -55.5v27q-15 57 -82.5 101t-165.5 61l-51 71q80 0 137 34.5t57 82.5q0 28 -19.5 47.5t-46.5 19.5q-30 0 -51 -13.5t-21 -32.5q12 -3 19 -16t7 -30t-13.5 -29t-32.5 -12q-23 0 -39.5 18t-16.5 43
z" />
    <glyph glyph-name="uni09A5_uni09F0_uni09CD_uni09C2" horiz-adv-x="614" 
d="M46 428q0 46 37 78t90 32q51 0 87 -35t36 -85q0 -42 -29.5 -78.5t-77.5 -54.5q60 -28 102 -64.5t61 -77.5v438h10l31 -51v-10h196l35 -41h-231v-96q24 17 45.5 26t38.5 9q30 0 51 -21t21 -50q0 -28 -10.5 -82t-10.5 -82q0 -47 5.5 -90.5t15.5 -82.5q-28 16 -44.5 35
t-16.5 36q0 46 5 138t5 138q-22 0 -48.5 -11.5t-56.5 -32.5v-344l-16 21q-7 37 -29.5 61.5t-51.5 24.5q-27 0 -81.5 -7.5t-81.5 -7.5q-40 0 -68.5 30t-28.5 72q0 29 4 48.5t11 28.5l20 -6q-5 -7 -7.5 -21.5t-2.5 -34.5q0 -23 16.5 -39.5t39.5 -16.5q25 0 74 5t74 5t51 -20.5
t46 -55.5v41q-13 50 -79.5 90.5t-165.5 57.5l-51 71q80 0 137 34.5t57 82.5q0 28 -19.5 47.5t-46.5 19.5q-30 0 -51 -13.5t-21 -32.5q12 -3 19 -16t7 -30t-13.5 -29t-32.5 -12q-23 0 -39.5 18t-16.5 43z" />
    <glyph glyph-name="uni09A5_uni09AC_uni09CD" horiz-adv-x="459" 
d="M21 403q0 48 43.5 82.5t104.5 34.5q51 0 87 -35.5t36 -86.5q0 -45 -36.5 -85.5t-96.5 -62.5q63 -17 112 -47.5t77 -70.5v449h10l31 -51v-10h45l35 -41h-80v-576l-21 10q-23 33 -63 55.5t-90 31.5l-25 41q43 30 83 45.5t75 15.5q-43 51 -109.5 79t-145.5 28l-61 66
q89 0 151.5 42t62.5 101q0 25 -16.5 43t-39.5 18q-31 0 -57 -13.5t-40 -37.5q13 -2 21.5 -15t8.5 -31q0 -19 -13 -32.5t-32 -13.5q-24 0 -40.5 19.5t-16.5 47.5zM348 -41v107q-23 -2 -49 -11t-53 -25q37 -14 63.5 -32t38.5 -39z" />
    <glyph glyph-name="uni09A6_uni09CD_uni0997" horiz-adv-x="798" 
d="M-45 520h406v-41h-275v-232q39 57 94.5 101.5t122.5 71.5l58 -43q5 61 48 102t100 41q61 0 111 -42.5t68 -110.5v214h10l30 -51v-10h45l35 -41h-80v-515l-40 41v316q-20 62 -64 100t-95 38q-40 0 -68 -25.5t-28 -61.5q12 7 30 11t41 4q34 0 58 -30t24 -72q0 -40 -25 -89
t-72 -99l-56 51q51 51 79 93.5t28 69.5q0 17 -9 29t-22 12q-22 0 -56 -28t-56 -28q-15 0 -25.5 19.5t-10.5 46.5q-42 -47 -64.5 -103.5t-22.5 -115.5q0 -35 5.5 -77.5t15.5 -91.5l-26 21q-15 41 -22.5 88.5t-7.5 99.5q0 41 9.5 82.5t27.5 80.5q-49 -23 -96.5 -72.5
t-88.5 -120.5l-46 61v265h-55z" />
    <glyph glyph-name="uni09A6_uni09CD_uni0998" horiz-adv-x="792" 
d="M-45 520h812l35 -41h-80v-520l-20 20q-30 83 -100 133.5t-155 50.5l-51 71l102 93q-42 -7 -76 1t-52 29q-41 -34 -63.5 -78t-22.5 -90q0 -59 6.5 -103.5t18.5 -70.5l-25 15q-20 43 -30.5 90t-10.5 94q0 22 10.5 55.5t30.5 76.5q-69 -35 -117 -75t-72 -81l-56 55v234h-49z
M80 479v-214q37 47 92.5 84.5t126.5 63.5l61 -36q-5 9 -8 19.5t-3 21.5q0 15 6.5 30.5t19.5 30.5h-295zM483 479q-26 -2 -44 -19.5t-18 -41.5q0 -25 19.5 -43t47.5 -18q22 0 44 10.5t42 30.5l46 -46l-148 -133q61 -11 116 -53.5t93 -108.5v422h-198z" />
    <glyph glyph-name="uni09A6_uni09CD_uni09A6" horiz-adv-x="543" 
d="M-10 479l-35 41h563l35 -41h-471v-209q25 47 77 92.5t127 85.5l61 -55q-41 -42 -63 -90t-22 -94q0 -11 1 -21.5t2 -18.5q30 57 80 105t114 82l71 -60q-34 -35 -52.5 -80.5t-18.5 -93.5q0 -55 8 -100t23 -78l-21 5q-25 47 -38 97.5t-13 101.5q0 29 7.5 62t21.5 69
q-65 -38 -107.5 -93.5t-53.5 -119.5l-51 56q-3 17 -4.5 33t-1.5 30q0 47 8 92t23 87q-66 -38 -107.5 -88t-50.5 -103l-61 58v248h-51z" />
    <glyph glyph-name="uni09A6_uni09CD_uni09A6_uni09F0_uni09CD" horiz-adv-x="547" 
d="M-10 479l-35 41h567l35 -41h-472v-209q26 48 78 94t126 85l61 -56q-48 -50 -69.5 -108t-12.5 -112q29 55 78.5 102t115.5 82l72 -61q-35 -36 -53.5 -81t-18.5 -93q0 -55 8 -100t23 -78l-21 5q-3 5 -5.5 10t-4.5 10q-14 10 -35 15.5t-46 5.5q-34 0 -99.5 -23t-99.5 -23
q-38 0 -65 28.5t-27 68.5q0 14 5 29.5t15 31.5l21 -10q-5 -6 -8 -18t-3 -28q0 -17 12 -29t29 -12q30 0 87 18t87 18q31 0 60 -10.5t54 -29.5q-14 36 -21 73t-7 74q0 35 8 68.5t23 63.5q-63 -44 -105 -99t-58 -115l-51 56q-10 58 -4 120.5t29 124.5q-66 -38 -107 -89
t-51 -105l-61 61v245h-54z" />
    <glyph glyph-name="uni09A6_uni09CD_uni09A6_uni09AC_uni09CD" horiz-adv-x="546" 
d="M427 153q0 43 5.5 74.5t15.5 47.5q-62 -36 -102.5 -88t-50.5 -111l-61 46q-2 14 -3.5 27t-1.5 25q0 46 9 93t26 95q-53 -25 -94 -72.5t-64 -111.5l-66 56v245h-50l-35 41h566l35 -41h-475v-209q26 48 78 94t126 85l61 -56q-41 -42 -63 -90t-22 -94q0 -9 1 -18.5t2 -17.5
q29 55 78.5 102t115.5 82l71 -61q-32 -33 -49 -94t-17 -141q0 -53 9 -99.5t27 -84.5h-31q-9 25 -53 43t-110 24l-46 46q34 34 78 61t96 46q-3 13 -4.5 27t-1.5 29zM336 -16q42 -11 73 -28t49 -38q-8 27 -14.5 58t-10.5 65q-24 -6 -48.5 -20.5t-48.5 -36.5z" />
    <glyph glyph-name="uni09A6_uni09CD_uni09A7" horiz-adv-x="563" 
d="M168 138q48 -13 85.5 -44t57.5 -74v205q-31 -9 -67 -31t-76 -56zM352 -61l-20 20q-23 62 -75 100t-114 38l-51 46q43 43 98 78t121 62v53q0 13 -9 22t-21 9q-58 0 -112 -41.5t-87 -111.5l-46 51v214h-46l-35 41h583l35 -41h-496v-175q42 53 90 83t93 30q27 0 59.5 -29
t32.5 -52v-40q19 10 40 15t42 5q18 0 39.5 -21.5t21.5 -39.5q-9 -103 -6.5 -175.5t16.5 -110.5h-10q-29 22 -45 46t-16 46q0 54 4 107.5t11 106.5l-97 -30v-306z" />
    <glyph glyph-name="uni09A6_uni09CD_uni09A7_uni09AC_uni09CD" horiz-adv-x="524" 
d="M-10 479l-35 41h544l35 -41h-455v-178q32 55 91.5 96t137.5 62l44 -51q-18 -13 -28.5 -32t-10.5 -40v-40q15 7 29 11t27 4q18 0 39.5 -21.5t21.5 -39.5q0 -32 -7.5 -94.5t-7.5 -94.5q0 -23 6.5 -46.5t19.5 -45.5l-11 -5q-29 22 -45 46t-16 46q0 50 4 103.5t12 110.5
l-72 -20v-311l-20 15q-19 40 -60.5 63.5t-92.5 23.5l-16 46q16 14 40.5 25t56.5 20q-6 8 -24.5 13.5t-56.5 12.5l-17 41q30 25 67.5 46t81.5 37v49q0 17 3 30t8 21q-71 -33 -120.5 -80t-68.5 -100l-56 43v234h-48zM272 15v82q-38 -7 -56.5 -12.5t-24.5 -13.5q26 -5 47 -19.5
t34 -36.5zM272 143v91q-43 -16 -63.5 -25.5t-27.5 -19.5q44 -16 64.5 -26t26.5 -20z" />
    <glyph glyph-name="uni09A6_uni09CD_uni09A8" horiz-adv-x="390" 
d="M-45 520h410l35 -41h-286v-229q40 56 92.5 96t111.5 62l61 -36q-47 -55 -71.5 -113t-24.5 -111q0 -48 7.5 -93t22.5 -86l-21 -10q-6 33 -40 59.5t-84 37.5q6 -36 -15 -64t-54 -28q-29 0 -49 22.5t-20 54.5q0 36 26.5 61t64.5 25t76.5 -24t69.5 -67q-10 31 -15 65.5
t-5 71.5q0 38 14 82t42 92q-57 -33 -104 -80t-80 -104l-46 61v255h-83z" />
    <glyph glyph-name="uni09A6_uni09CD_uni09AD" horiz-adv-x="562" 
d="M-10 479l-35 41h582l35 -41h-371v-147q29 35 70 64t93 50l77 -53q-31 -32 -47.5 -68.5t-16.5 -71.5q0 -3 3 -9.5t4 -11.5q11 13 19 30t14 39q43 -25 67.5 -68.5t24.5 -94.5q0 -70 -52 -119.5t-126 -49.5q-114 0 -202 123.5t-104 305.5l17 5q19 -157 102 -262t187 -105
q59 0 100.5 40t41.5 97q0 16 -7 32t-19 28q-27 -47 -68 -74t-84 -27q-37 0 -63 21t-26 51q0 27 17.5 46.5t41.5 19.5q22 0 37.5 -16.5t15.5 -39.5q0 -6 -2 -11t-6 -10q11 0 23.5 5t24.5 15q-12 20 -18 39.5t-6 36.5q0 25 8 50.5t24 48.5q-45 -27 -80.5 -56.5t-59.5 -60.5
l-66 31v177h-170z" />
    <glyph glyph-name="uni09A6_uni09CD_uni09AD_uni09F0_uni09CD" horiz-adv-x="471" 
d="M-10 479l-35 41h491l35 -41h-339v-147q29 35 70 64t93 50l67 -68q-26 -27 -40 -59.5t-14 -65.5q0 -6 0.5 -11.5t0.5 -9.5q14 20 25 45t19 54q28 -16 44.5 -42t16.5 -55v-316l-20 21q-8 29 -32 47.5t-55 18.5q-23 0 -66 -13t-66 -13q-65 0 -111.5 45t-46.5 108q0 27 4 49
t11 38l20 -5q-5 -12 -8 -24t-3 -24q0 -48 31.5 -81.5t76.5 -33.5q20 0 58.5 5t58.5 5q33 0 62 -17t46 -47v233q-32 -55 -74 -86.5t-84 -31.5q-36 0 -61.5 24t-25.5 58q0 25 18 43t43 18q22 0 37.5 -14t15.5 -34q0 -7 -3 -14.5t-9 -14.5q14 0 29.5 8.5t30.5 23.5
q-8 14 -12.5 34.5t-4.5 44.5q0 28 6.5 52t19.5 43q-51 -31 -87 -59.5t-56 -53.5l-66 31v177h-111z" />
    <glyph glyph-name="uni09A6_uni09CD_uni09AE" horiz-adv-x="509" 
d="M-45 520h529l35 -41h-80v-530l-21 20q-3 34 -36 66t-86 51q-2 -26 -22.5 -43.5t-47.5 -17.5q-29 0 -49.5 21t-20.5 50q0 30 21.5 51t51.5 21q6 0 14 -1.5t17 -3.5q-7 32 -11 60t-4 50q0 26 2.5 48t7.5 41q-60 -28 -102.5 -75t-60.5 -104l-51 41v255h-51zM82 479v-204
q38 65 86.5 109t101.5 60l67 -46q-39 -56 -52.5 -121t1.5 -129q35 -17 64 -43t48 -59v433h-316z" />
    <glyph glyph-name="uni09A6_uni09F0_uni09CD" horiz-adv-x="465" 
d="M-45 520h485l35 -41h-319v-224q48 57 106.5 102t123.5 76l66 -56q-40 -48 -61.5 -106.5t-21.5 -121.5q0 -54 5.5 -101.5t16.5 -88.5l-21 10q-13 35 -38 56t-54 21q-22 0 -66 -5t-66 -5q-51 0 -87 37t-36 90q0 13 5.5 31t15.5 40l20 -10q-7 -13 -11 -26t-4 -25
q0 -29 25.5 -50t61.5 -21q17 0 51 2.5t51 2.5q27 0 58 -18.5t59 -52.5q-12 46 -18.5 89.5t-6.5 82.5q0 28 9 63t26 76q-59 -27 -108.5 -74.5t-85.5 -109.5l-56 61v255h-125z" />
    <glyph glyph-name="uni09A6_uni09F0_uni09CD_uni09C1" horiz-adv-x="591" 
d="M-45 520h611l35 -41h-445v-224q47 56 106.5 101t128.5 77l61 -56l-31 -61q11 -23 36 -37t56 -14q27 0 46.5 19.5t19.5 46.5q0 9 -5 18.5t-15 17.5v-10q0 -17 -12 -29t-29 -12q-19 0 -32.5 12t-13.5 29q0 21 16.5 36t39.5 15q34 0 58 -31.5t24 -75.5q0 -36 -25.5 -61.5
t-61.5 -25.5q-41 0 -73 19.5t-44 51.5q-18 -31 -27 -67.5t-9 -76.5q0 -47 6.5 -95.5t19.5 -96.5l-26 10q-14 39 -39.5 63t-52.5 24q-22 0 -66 -5t-66 -5q-51 0 -87 37t-36 90q0 13 5.5 31t15.5 40l20 -10q-7 -13 -11 -26t-4 -25q0 -29 25.5 -50t61.5 -21q17 0 51 2.5t51 2.5
q32 0 63 -21t52 -57l2 1q-12 46 -18.5 89.5t-6.5 83.5q0 30 9 66.5t26 77.5l-5 5q-53 -25 -101.5 -73.5t-87.5 -115.5l-56 61v255h-125z" />
    <glyph glyph-name="uni09A6_uni09F0_uni09CD_uni09C2" horiz-adv-x="591" 
d="M-45 520h611l35 -41h-445v-224q47 56 106.5 101t128.5 77l61 -51l-36 -66q26 15 53.5 23t53.5 8q30 0 51 -19.5t21 -47.5q0 -27 -10.5 -79t-10.5 -79q0 -47 5.5 -90.5t15.5 -82.5q-29 17 -45.5 36t-16.5 35q0 44 5.5 132.5t5.5 132.5q-49 0 -87 -10.5t-61 -29.5
q-10 -27 -15 -58.5t-5 -65.5q0 -46 4 -90.5t11 -86.5l-21 15q-14 39 -39.5 63t-52.5 24q-22 0 -66 -5t-66 -5q-51 0 -87 37t-36 90q0 18 4 36t12 35l20 -10q-5 -9 -7.5 -21.5t-2.5 -29.5q0 -29 25.5 -50t61.5 -21q17 0 51 2.5t51 2.5q31 0 62.5 -23t54.5 -63q-9 35 -14 81
t-5 101q0 47 8.5 85t25.5 64q-60 -28 -111 -76.5t-88 -112.5l-56 61v255h-125z" />
    <glyph glyph-name="uni09A6_uni09AC_uni09CD" horiz-adv-x="412" 
d="M188 144q43 -11 75.5 -37t48.5 -61v178q-34 -7 -65.5 -27.5t-58.5 -52.5zM353 -36l-26 20q-21 58 -71.5 93t-111.5 35l-36 41q35 41 86.5 76t117.5 62v45q0 13 -9 22t-21 9q-60 0 -115 -43t-89 -115l-41 56v214h-47l-35 41h432l35 -41h-344v-173q43 55 91.5 86t91.5 31
q27 0 59.5 -31t32.5 -56v-372z" />
    <glyph glyph-name="uni09A7_uni09CD_uni09A8" horiz-adv-x="408" 
d="M98 250q64 -11 116.5 -49t82.5 -94v291zM62 209l-46 56l148 102h-20q-40 0 -68.5 24t-28.5 58t24 57.5t58 23.5q25 0 43 -13.5t18 -32.5t-12 -32.5t-29 -13.5q-15 0 -25.5 10.5t-10.5 25.5q-12 0 -21 -9t-9 -21q0 -24 18 -40.5t43 -16.5h51l102 72v61h86l35 -41h-80v-535
l-21 15q-9 51 -49.5 84t-93.5 33q10 -8 15.5 -17.5t5.5 -17.5q0 -26 -18 -44t-43 -18q-26 0 -44 18t-18 44q0 34 24 57.5t58 23.5q41 4 83.5 -26.5t74.5 -85.5h5q-15 86 -87.5 142.5t-167.5 56.5z" />
    <glyph glyph-name="uni09A7_uni09CD_uni09AE" horiz-adv-x="465" 
d="M395 -31l-20 26q-12 66 -44.5 111t-73.5 52q0 -29 -18 -50t-43 -21q-27 0 -46.5 19.5t-19.5 46.5q0 19 13.5 36t36.5 25q-20 29 -53.5 45t-73.5 16l-30 46l86 51q-40 7 -66 30t-26 52q0 31 22.5 53.5t54.5 22.5q21 0 36 -13.5t15 -32.5t-12 -32.5t-29 -13.5q-12 0 -21 9
t-9 22q-7 0 -11.5 -9t-4.5 -22q0 -19 23.5 -32.5t57.5 -13.5l82 41v87h219l35 -41h-80v-510zM354 107v372h-92v-265q19 -7 42.5 -34.5t49.5 -72.5zM84 310q33 -3 64 -25.5t53 -60.5h20v158z" />
    <glyph glyph-name="uni09A7_uni09F0_uni09CD" horiz-adv-x="450" 
d="M141 250q61 -11 113.5 -51t85.5 -102v285zM110 199l-56 66l153 102h-20q-40 0 -68.5 24t-28.5 58t23.5 57.5t57.5 23.5q26 0 44 -13.5t18 -32.5t-12 -32.5t-29 -13.5q-15 0 -25.5 10.5t-10.5 25.5q-13 0 -22 -9t-9 -21q0 -24 18 -40.5t44 -16.5h51l102 72v61h85l35 -41
h-80v-535l-20 15q0 34 -21 58t-50 24q-21 0 -61.5 -5.5t-61.5 -5.5q-59 0 -101 33t-42 80q0 15 4 30.5t12 30.5l15 -10q-2 -5 -3.5 -17t-1.5 -29q0 -23 19.5 -39.5t46.5 -16.5q22 0 66.5 2.5t66.5 2.5q26 0 53 -19t49 -53h5q-21 77 -89 125.5t-156 48.5z" />
    <glyph glyph-name="uni09A7_uni09F0_uni09CD_uni09C1" horiz-adv-x="592" 
d="M132 250q69 -12 124 -50t85 -94v276zM116 194l-61 71l153 102h-20q-40 0 -68.5 24t-28.5 58t23.5 57.5t57.5 23.5q26 0 44 -13.5t18 -32.5t-12 -32.5t-29 -13.5q-15 0 -25.5 10.5t-10.5 25.5q-13 0 -22 -9t-9 -21q0 -24 18 -40.5t44 -16.5h51l102 58v75h226l35 -41h-221
v-163q14 -24 36 -37.5t46 -13.5q29 0 50 19.5t21 46.5q0 14 -7.5 28t-20.5 25l-2 -2q5 -5 7.5 -11.5t2.5 -13.5q0 -17 -13.5 -29t-32.5 -12t-32.5 12t-13.5 29q0 21 16.5 36t39.5 15q34 0 58 -31.5t24 -75.5q0 -36 -25.5 -61.5t-61.5 -25.5q-26 0 -51 21t-41 56v-342l-20 15
q-6 33 -26 55t-45 22q-26 0 -79 -5.5t-79 -5.5q-45 0 -76.5 33t-31.5 80q0 12 3 27.5t8 33.5l20 -10q-2 -5 -3.5 -13t-1.5 -18q0 -29 22.5 -50t53.5 -21q17 0 51 5t51 5q35 0 68 -21t57 -57l3 1q-13 73 -81 121t-159 48z" />
    <glyph glyph-name="uni09A7_uni09F0_uni09CD_uni09C2" horiz-adv-x="591" 
d="M141 250q65 -11 117.5 -48.5t81.5 -92.5v273zM105 204l-51 61l153 102h-20q-40 0 -68.5 24t-28.5 58t23.5 57.5t57.5 23.5q26 0 44 -13.5t18 -32.5t-12 -32.5t-29 -13.5q-15 0 -25.5 10.5t-10.5 25.5q-13 0 -22 -9t-9 -21q0 -24 18 -40.5t44 -16.5h51l102 72v61h226
l35 -41h-221v-102q27 16 44.5 23.5t27.5 7.5q29 0 50 -19.5t21 -46.5t-10 -79.5t-10 -79.5q0 -49 5 -92.5t15 -80.5q-28 16 -44.5 35t-16.5 36q0 44 5 133t5 133q-21 0 -44.5 -10.5t-47.5 -30.5v-362l-20 15q-6 36 -26 59t-45 23q-21 0 -61.5 -5.5t-61.5 -5.5q-59 0 -101 33
t-42 80q0 12 3 27.5t8 33.5l20 -10q-2 -5 -3.5 -13t-1.5 -18q0 -29 22 -49t53 -20q17 0 51.5 4t51.5 4q34 0 66.5 -21t56.5 -57h3q-14 78 -84 129t-164 51z" />
    <glyph glyph-name="uni09A7_uni09AC_uni09CD" horiz-adv-x="689" 
d="M94 250q69 -18 120.5 -55.5t78.5 -87.5v275zM293 520h371l35 -41h-80v-510l-20 26q-17 97 -77.5 160.5t-136.5 63.5l-51 51v-286l-21 26q-14 80 -83 132t-161 52l-52 76l143 97h-20q-40 0 -68.5 24t-28.5 58t24 57.5t58 23.5q25 0 43 -13.5t18 -32.5t-12 -32.5t-29 -13.5
q-15 0 -25.5 10.5t-10.5 25.5q-12 0 -21 -9t-9 -21q0 -24 18 -40.5t43 -16.5h51l102 72v61zM334 479v-199q72 65 134 105t111 53v41h-245zM420 265q49 -18 90.5 -59t68.5 -99v270q-27 -7 -67.5 -35.5t-91.5 -76.5z" />
    <glyph glyph-name="uni09A8_uni09CD_uni099F" horiz-adv-x="510" 
d="M-10 479l-35 41h440q10 0 17.5 7.5t7.5 18.5q0 14 -19.5 24.5t-46.5 10.5q-31 0 -92 -5t-92 -5q-42 0 -72 30t-30 72q0 17 6.5 34t19.5 32l21 -10q-10 -7 -15.5 -19t-5.5 -27q0 -23 15 -39.5t36 -16.5q32 0 94.5 7.5t94.5 7.5q46 0 79 -26.5t33 -64.5q0 -13 8 -22t19 -9
h12l35 -41h-257v-366q0 -14 10.5 -27.5t20.5 -13.5q42 0 84.5 54.5t42.5 108.5q-6 -1 -12 -3t-8 -2q-21 0 -36 15t-15 36t18 36t43 15q29 0 50 -28.5t21 -68.5q0 -72 -63 -145.5t-125 -73.5q-21 0 -46.5 34.5t-25.5 62.5v154q-15 26 -36.5 40.5t-44.5 14.5q7 -3 11 -11
t4 -19q0 -30 -20 -51t-49 -21t-49 21t-20 51q0 34 24 58t58 24q39 0 72.5 -21t49.5 -56v182h-232z" />
    <glyph glyph-name="uni09A8_uni09CD_uni099F_uni09F0_uni09CD" horiz-adv-x="570" 
d="M-10 479l-35 41h497q10 0 17.5 7.5t7.5 18.5q0 14 -19.5 24.5t-46.5 10.5q-31 0 -92 -5t-92 -5q-42 0 -72 30t-30 72q0 17 6.5 34t19.5 32l21 -10q-10 -7 -15.5 -19t-5.5 -27q0 -23 15 -39.5t36 -16.5q32 0 94.5 7.5t94.5 7.5q46 0 79 -26.5t33 -64.5q0 -13 8 -22t19 -9
h15l35 -41h-289v-301q0 -23 11.5 -39.5t28.5 -16.5q33 0 83 57.5t50 95.5q-26 -9 -48.5 7t-22.5 44t18 47.5t43 19.5q34 0 57.5 -28.5t23.5 -68.5t-13 -77t-38 -66v-260l-20 15q0 23 -21 39.5t-50 16.5q-34 0 -101 -7.5t-101 -7.5q-51 0 -87 38.5t-36 93.5q0 15 2.5 29
t7.5 28l21 -6q-3 -8 -4.5 -16t-1.5 -15q0 -38 25.5 -64.5t61.5 -26.5q31 0 93.5 5t93.5 5q24 0 47.5 -16.5t39.5 -44.5v163q-29 -29 -60 -45t-58 -16q-21 0 -53.5 54t-32.5 89v56q-9 49 -39 80.5t-68 31.5q9 -5 14.5 -16t5.5 -25q0 -27 -21 -46.5t-50 -19.5q-28 0 -47.5 21
t-19.5 50q0 36 24 61.5t58 25.5q48 0 87 -28t56 -74v158h-260z" />
    <glyph glyph-name="uni09A8_uni09CD_uni09A0" horiz-adv-x="408" 
d="M201 46q-59 0 -101 43.5t-42 104.5q0 6 1.5 11t3.5 9q40 11 80.5 39.5t77.5 72.5q-17 38 -40.5 60t-45.5 22q5 -9 7.5 -16.5t2.5 -14.5q0 -25 -18 -43t-43 -18t-43 19.5t-18 46.5q0 28 22.5 47.5t53.5 19.5q41 0 78 -27.5t59 -74.5q10 18 15.5 38.5t5.5 42.5
q0 14 -4 27.5t-11 23.5h-252l-35 41h276q-35 49 -53 92t-18 76q0 26 12 49t34 38l31 -25q-21 -12 -33.5 -31.5t-12.5 -40.5q0 -28 18 -68.5t53 -89.5h121l35 -41h-136q43 -74 65 -133.5t22 -100.5q0 -94 -44 -146.5t-124 -52.5zM180 81q67 0 107.5 54.5t40.5 144.5
q0 39 -10 76.5t-30 71.5q0 -81 -46 -150t-123 -105l-3.5 -12t-1.5 -8q0 -30 19.5 -51t46.5 -21z" />
    <glyph glyph-name="uni09A8_uni09CD_uni09A1" horiz-adv-x="591" 
d="M-45 520h611l35 -41h-267v-173q0 -17 6 -29t14 -12q29 0 62 34.5t60 93.5q39 -39 60.5 -84.5t21.5 -89.5q0 -82 -57 -140.5t-137 -58.5q-111 0 -208.5 113t-138.5 290l26 -10q39 -144 128.5 -235t192.5 -91q68 0 115.5 46.5t47.5 111.5q0 16 -9 34.5t-26 36.5
q-27 -52 -57.5 -82t-55.5 -30t-55.5 32.5t-30.5 59.5v20q-10 27 -25.5 44t-30.5 17q3 -4 5 -11.5t2 -17.5q0 -26 -19 -44.5t-46 -18.5t-46 21t-19 51q0 29 24 50t58 21q29 0 55.5 -19.5t41.5 -51.5v122h-303z" />
    <glyph glyph-name="uni09A8_uni09CD_uni09A1_uni09F0_uni09CD" horiz-adv-x="599" 
d="M-45 520h619l35 -41h-275v-173q0 -17 6 -29t14 -12q29 0 62 34.5t60 93.5q39 -39 60.5 -84.5t21.5 -89.5q0 -26 -6.5 -51t-19.5 -48v-238l-20 11q-4 20 -19.5 33t-36.5 13q-45 0 -134 -15.5t-134 -15.5q-44 0 -75.5 33t-31.5 79q0 20 4 36.5t11 28.5l20 -5
q-5 -10 -7.5 -22.5t-2.5 -27.5q0 -25 21 -43t51 -18q38 0 113.5 13t113.5 13q26 0 49 -12t38 -34v120q-26 -24 -59 -36.5t-69 -12.5q-111 0 -208.5 113t-138.5 290l26 -10q39 -144 128.5 -235t192.5 -91q68 0 115.5 46.5t47.5 111.5q0 16 -9 34.5t-26 36.5
q-27 -52 -57.5 -82t-55.5 -30t-55.5 32.5t-30.5 59.5v20q-10 27 -27 44t-34 17q6 -7 9 -14.5t3 -14.5q0 -26 -18.5 -44.5t-44.5 -18.5t-44 21t-18 51q0 29 22.5 50t54.5 21q29 0 55.5 -19t41.5 -51v121h-303z" />
    <glyph glyph-name="glyph245" horiz-adv-x="602" 
d="M-10 479l-35 41h622l35 -41h-275v-173q0 -17 6 -29t14 -12q29 0 62 34.5t60 93.5q39 -39 60.5 -84.5t21.5 -89.5q0 -26 -6.5 -51t-19.5 -48v-222q0 -5 -2 -18.5t-3 -17.5q37 -23 78.5 -61.5t85.5 -91.5l-21 -15q-39 46 -77 78.5t-73 48.5q-18 -31 -43.5 -48.5
t-51.5 -17.5q-34 0 -57.5 21t-23.5 50q0 32 23.5 54.5t57.5 22.5q15 0 32 -5.5t35 -15.5v30q-2 12 -18 19.5t-38 7.5q-45 0 -134 -15.5t-134 -15.5q-44 0 -75.5 33t-31.5 79q0 16 5 32.5t15 32.5l15 -5q-5 -10 -7.5 -22.5t-2.5 -27.5q0 -25 21 -43t51 -18q38 0 113.5 13
t113.5 13q35 0 63.5 -12t43.5 -34v120q-26 -24 -59 -36.5t-69 -12.5q-111 0 -208.5 113t-138.5 290l26 -10q39 -144 128.5 -235t192.5 -91q68 0 115.5 46.5t47.5 111.5q0 16 -9 34.5t-26 36.5q-27 -52 -57.5 -82t-55.5 -30t-55.5 32.5t-30.5 59.5v20q-10 27 -27 44t-34 17
q6 -7 9 -14.5t3 -14.5q0 -26 -18.5 -44.5t-44.5 -18.5t-44 21t-18 51q0 29 22.5 50t54.5 21q27 0 53.5 -22t43.5 -59v132h-306zM388 -174q0 -14 11.5 -24.5t28.5 -10.5q22 0 40.5 14t26.5 37q-17 12 -34.5 18.5t-32.5 6.5q-17 0 -28.5 -12t-11.5 -29z" />
    <glyph glyph-name="uni09A8_uni09CD_uni09A4" horiz-adv-x="547" 
d="M-45 520h567l35 -41h-116q22 -18 34 -43.5t12 -53.5q0 -36 -19.5 -62.5t-47.5 -28.5q36 -21 56.5 -58t20.5 -80q0 -79 -42 -126.5t-111 -47.5q-92 0 -183 124t-144 320l26 -15q43 -160 125.5 -261t170.5 -101q51 0 86.5 31.5t35.5 75.5q0 50 -24 80t-63 30q-6 0 -11 -1
t-9 -2q18 -7 29.5 -23.5t11.5 -37.5q0 -32 -21 -54.5t-51 -22.5q-29 0 -50 22.5t-21 54.5q0 38 33 65t79 27v5q-41 19 -73 65t-44 42q9 -5 14.5 -17.5t5.5 -28.5q0 -30 -19.5 -51t-46.5 -21q-29 0 -50 22.5t-21 54.5q0 36 25 61.5t61 25.5q17 0 39 -13.5t46 -37.5
t45.5 -37.5t38.5 -13.5q21 0 36 21t15 50q0 17 -8 33t-23 28h-415z" />
    <glyph glyph-name="uni09A8_uni09CD_uni09A4_uni09C1" horiz-adv-x="463" 
d="M312 0q-72 0 -168 109t-128 227l26 -20q43 -117 118.5 -188.5t156.5 -71.5q32 0 54.5 16.5t22.5 39.5q0 17 -5.5 29.5t-15.5 16.5q-4 -16 -16.5 -26t-28.5 -10q-21 0 -36 14t-15 34t15 34.5t36 14.5q10 0 19 -5.5t16 -14.5q10 15 15.5 28t5.5 23q0 21 -13.5 36t-32.5 15
q-39 0 -72 -18t-51 -49q16 -3 26 -13t10 -22q0 -21 -15 -36t-36 -15t-36 18t-15 43q0 51 39 86.5t94 35.5q-22 10 -36.5 22t-20.5 24q-9 19 -21 30t-24 11q-6 0 -10 -1.5t-6 -3.5q10 -6 15.5 -15.5t5.5 -20.5q0 -23 -16.5 -39.5t-39.5 -16.5q-26 0 -44 21t-18 51q0 29 24 50
t58 21q21 0 42.5 -12t39.5 -34q16 -19 33.5 -30t32.5 -11q17 0 29 13.5t12 32.5q0 16 -9.5 31t-26.5 25h-312l-35 41h483l35 -41h-140q19 -16 29.5 -34.5t10.5 -36.5q0 -25 -8 -44.5t-22 -27.5q29 -5 47.5 -26.5t18.5 -49.5q0 -19 -8 -37.5t-23 -33.5q21 -12 33.5 -38
t12.5 -59q0 -38 -33 -65t-79 -27z" />
    <glyph glyph-name="uni09A8_uni09CD_uni09A4_uni09F0_uni09CD" horiz-adv-x="476" 
d="M-45 520h496l35 -41h-124q26 -15 41 -39.5t15 -52.5q0 -24 -12.5 -43.5t-33.5 -27.5q17 -10 26.5 -26t9.5 -35v-347l-20 20q0 30 -24 51t-58 21q-24 0 -71.5 -5t-71.5 -5q-55 0 -93.5 40t-38.5 97q0 24 9 48t26 44l16 -15q-13 -15 -19.5 -32t-6.5 -34q0 -36 28.5 -61.5
t68.5 -25.5q19 0 56 5t56 5q26 0 53 -17.5t49 -48.5v265q0 13 -7.5 22t-17.5 9q-24 0 -60.5 -38.5t-36.5 -63.5q0 -3 1.5 -6t3.5 -5q3 5 9.5 8t15.5 3q17 0 29 -13.5t12 -32.5q0 -23 -16.5 -39.5t-39.5 -16.5q-34 0 -58 22.5t-24 53.5q0 35 31.5 77t86.5 81q-29 41 -56 64
t-46 23q9 -7 14.5 -19t5.5 -27q0 -27 -21 -46.5t-50 -19.5t-50 21t-21 50q0 34 22.5 58t53.5 24q24 0 50 -10t50 -29q24 -18 44 -28t35 -10q19 0 33 14t14 34q0 16 -10 31.5t-27 27.5h-347z" />
    <glyph glyph-name="uni09A8_uni09CD_uni09A4_uni09AC_uni09CD" horiz-adv-x="519" 
d="M-45 520h539l35 -41h-119q24 -17 37.5 -42.5t13.5 -54.5t-16.5 -50t-39.5 -21q30 -14 48 -44.5t18 -67.5q0 -38 -12 -69t-34 -49v-234l-20 20q-17 46 -61.5 74t-101.5 28l-41 56l61 31v5q-57 21 -122 112.5t-128 239.5l31 -10q45 -125 120 -205.5t160 -95.5q47 0 80 31.5
t33 75.5q0 24 -15 41.5t-36 17.5q-4 0 -8 -1l-8 -2q8 -5 12 -14.5t4 -21.5q0 -27 -18 -46.5t-44 -19.5q-25 0 -43 19.5t-18 46.5q0 34 24 58t58 24q-8 9 -44.5 53t-57.5 44q9 -7 14.5 -17.5t5.5 -23.5q0 -27 -19.5 -46.5t-46.5 -19.5t-46.5 22.5t-19.5 53.5q0 32 22.5 54.5
t53.5 22.5q34 0 84 -46t84 -46q19 0 32.5 16.5t13.5 39.5q0 15 -9 31t-26 30h-395zM272 15q37 -13 66 -37t47 -55h5l-5 56v82q-32 -5 -61 -16.5t-52 -29.5z" />
    <glyph glyph-name="uni09A8_uni09CD_uni09A5" horiz-adv-x="426" 
d="M-45 520h446l35 -41h-121q23 -11 37 -34.5t14 -51.5q0 -37 -17.5 -64.5t-43.5 -32.5v-5q38 -7 62.5 -33t24.5 -59q0 -46 -38 -88t-100 -65q82 -38 144.5 -86t100.5 -103h-21q-81 81 -172.5 124.5t-179.5 43.5l-56 92q20 -12 51 -18.5t72 -6.5q61 0 112 37t51 80
q0 28 -26 42.5t-56 3.5q0 -30 -29 -61t-57 -31q-23 0 -39.5 13.5t-16.5 32.5q0 30 41.5 56t90.5 26v5q-35 6 -67.5 59t-59.5 53q7 -6 11 -16.5t4 -24.5q0 -29 -18 -50t-43 -21q-30 0 -51 22.5t-21 53.5q0 34 24 58t58 24q36 0 92 -46t92 -46q17 0 28.5 16.5t11.5 39.5
q0 19 -11 35.5t-29 25.5h-295z" />
    <glyph glyph-name="uni09A8_uni09CD_uni09A5_uni09F0_uni09CD" horiz-adv-x="430" 
d="M-45 520h450l35 -41h-118q24 -14 37.5 -38.5t13.5 -53.5q0 -34 -18.5 -60t-47.5 -31v-5q38 -7 62.5 -33t24.5 -59q0 -46 -38 -88t-100 -65q82 -38 144.5 -86t100.5 -103h-21q-21 21 -40.5 38t-37.5 30v-99l-21 11q-3 20 -19 32.5t-37 12.5q-28 0 -81.5 -15t-81.5 -15
q-44 0 -75.5 33t-31.5 79q0 18 4 34.5t11 30.5l20 -10q-4 -7 -6.5 -19.5t-2.5 -30.5q0 -23 21 -39.5t50 -16.5q21 0 61 13t61 13q26 0 49 -12t38 -34v60q-56 35 -115.5 53.5t-117.5 18.5l-56 92q20 -12 51 -18.5t72 -6.5q61 0 112 37t51 80q0 28 -26 42.5t-56 3.5
q0 -30 -29 -61t-57 -31q-23 0 -39.5 13.5t-16.5 32.5q0 30 41.5 56t90.5 26v5q-35 6 -67.5 59t-59.5 53q7 -6 11 -16.5t4 -24.5q0 -29 -19.5 -50t-47.5 -21q-27 0 -46.5 22.5t-19.5 53.5q0 34 24 58t58 24q36 0 92 -46t92 -46q17 0 28.5 16.5t11.5 39.5q0 19 -11 35.5
t-29 25.5h-297z" />
    <glyph glyph-name="uni09A8_uni09CD_uni09A6" horiz-adv-x="573" 
d="M-10 479l-35 41h593l35 -41h-288v-240q37 53 90 98.5t119 80.5l56 -51q-45 -53 -68.5 -111t-23.5 -113q0 -56 6.5 -98.5t19.5 -70.5l-26 16q-18 44 -27 94.5t-9 104.5q0 29 10.5 66.5t30.5 80.5q-67 -49 -110.5 -103t-57.5 -106l-51 46v41q-4 47 -39 90t-68 43
q5 -5 7.5 -13t2.5 -18q0 -29 -19.5 -50t-46.5 -21q-30 0 -51 21t-21 50q0 36 25.5 61.5t61.5 25.5q45 0 85 -29t63 -78v183h-264z" />
    <glyph glyph-name="uni09A8_uni09CD_uni09A6_uni09F0_uni09CD" horiz-adv-x="594" 
d="M-10 479l-35 41h614l35 -41h-288v-229q40 57 88 101t101 72l76 -56q-39 -47 -60 -104.5t-21 -119.5q0 -60 7.5 -111.5t22.5 -92.5l-20 10q-13 36 -40 58.5t-57 22.5q-41 0 -122.5 -5t-122.5 -5q-53 0 -90 34.5t-37 83.5q0 16 5 35.5t15 40.5l16 -10q-4 -8 -6.5 -21
t-2.5 -30q0 -30 28 -51t67 -21q34 0 102 8t102 8q30 0 61 -20.5t56 -56.5q-15 41 -22.5 85t-7.5 89q0 30 10.5 67.5t30.5 80.5q-64 -47 -106 -101t-57 -109l-57 41v41q0 52 -38 100t-79 48q10 -8 15.5 -20.5t5.5 -25.5q0 -29 -19.5 -50t-47.5 -21q-29 0 -50 23.5t-21 57.5
t27 58t65 24q41 0 79.5 -30.5t62.5 -81.5v183h-285z" />
    <glyph glyph-name="uni09A8_uni09CD_uni09A6_uni09AC_uni09CD" horiz-adv-x="532" 
d="M467 -41l-20 10q-22 38 -61.5 60t-86.5 22l-31 41q31 37 66 63t72 39q-1 6 -0.5 25t0.5 36q0 27 9 56.5t27 60.5q-54 -38 -94.5 -91.5t-63.5 -117.5l-46 51q-12 70 -39.5 115.5t-57.5 45.5q-5 0 -9 -1t-7 -2q11 -5 18 -16t7 -24q0 -26 -19.5 -44t-46.5 -18t-46.5 21
t-19.5 51q0 34 25.5 57.5t61.5 23.5q35 0 69.5 -30.5t58.5 -81.5v168h-243l-35 41h552l35 -41h-269v-209q26 57 68.5 100t95.5 68l81 -56q-35 -49 -53 -100t-18 -99q0 -94 4.5 -147t15.5 -77zM431 41q-7 28 -11 53.5t-4 48.5q-17 -4 -37.5 -18.5t-43.5 -37.5q34 -9 58 -20.5
t38 -25.5z" />
    <glyph glyph-name="uni09A8_uni09CD_uni09A7" horiz-adv-x="546" 
d="M137 173q57 -19 98 -50.5t60 -71.5v209q-39 -11 -79 -33t-79 -54zM-10 479l-35 41h566l35 -41h-220v-148q28 13 49.5 19.5t36.5 6.5q11 0 28.5 -25t17.5 -41q0 -25 -5 -74t-5 -74q0 -24 4 -57.5t11 -75.5h-10q-27 22 -41.5 62.5t-14.5 90.5q0 23 5 69t5 69
q-12 -1 -32.5 -8t-48.5 -18v-321l-21 20q-24 67 -77.5 107.5t-116.5 40.5l-51 61q52 44 106 76t109 52q-27 41 -66 62t-77 14q9 -7 14.5 -18.5t5.5 -26.5q0 -28 -21 -47.5t-51 -19.5q-29 0 -50 21t-21 51q0 38 31.5 64.5t76.5 26.5q47 0 92 -31.5t76 -85.5v158h-305z" />
    <glyph glyph-name="uni09A8_uni09CD_uni09A7_uni09AC_uni09CD" horiz-adv-x="518" 
d="M152 168q48 -16 79.5 -33.5t43.5 -34.5l20 2v148q-33 -9 -69 -29.5t-74 -52.5zM-10 479l-35 41h538l35 -41h-192v-148q28 13 49.5 19.5t36.5 6.5q11 0 28.5 -25t17.5 -41q0 -25 -5 -74t-5 -74q0 -46 4 -79.5t11 -53.5l-10 -5q-27 22 -41.5 63.5t-14.5 94.5q0 22 5 66.5
t5 66.5l-81 -31v-311q0 -24 1.5 -43.5t3.5 -33.5l-23 16q-21 26 -71 47t-122 34l-35 51q38 27 75.5 44t73.5 23q-14 14 -44.5 22t-73.5 8l-51 61q54 46 107 78t102 50q-27 41 -64 61.5t-73 14.5q9 -7 14.5 -18.5t5.5 -26.5q0 -28 -21 -47.5t-50 -19.5q-30 0 -51 22.5
t-21 54.5q0 36 33 61t80 25q48 0 91.5 -28t71.5 -77v146h-305zM295 53q-15 0 -60 -18.5l-73 -29.5q51 -14 85 -32.5t47 -38.5z" />
    <glyph glyph-name="uni09A8_uni09CD_uni09A7_uni09F0_uni09CD" horiz-adv-x="672" 
d="M-10 479l-35 41h692l35 -41h-221v-102q15 13 33.5 19.5t37.5 6.5q9 0 22.5 -14.5t28.5 -41.5q-5 -19 -7.5 -52t-2.5 -81q0 -61 2 -94t8 -49l-45 46q-3 17 -4.5 41.5t-1.5 55.5q0 16 1.5 32.5t4.5 33.5q2 14 3.5 27t1.5 24q0 9 -4.5 15t-11.5 6q-10 0 -27 -6.5t-39 -19.5
v-372l-10 15q-12 32 -40 52t-62 20h-204q-51 0 -87 38.5t-36 93.5q0 20 3 34t8 22l15 -5q-8 -48 12 -85t54 -37h189q30 0 61 -20.5t56 -56.5v41q-26 38 -73.5 66.5t-109.5 45.5l-41 41q45 45 96 81t108 62q-18 31 -45 48.5t-57 17.5t-51 -15t-21 -36q19 0 32.5 -12t13.5 -29
q0 -21 -15 -35.5t-36 -14.5q-25 0 -43 22.5t-18 53.5q0 40 34.5 68.5t82.5 28.5q33 0 70.5 -23t72.5 -64v107h-430zM420 311q-40 -14 -77.5 -39t-70.5 -58q44 -12 82.5 -43.5t65.5 -78.5v219z" />
    <glyph glyph-name="uni09A8_uni09CD_uni09A8" horiz-adv-x="425" 
d="M-45 520h445l35 -41h-80v-515l-20 31q-12 71 -55.5 117t-97.5 46q-7 0 -12.5 -1.5t-8.5 -3.5q10 -4 15.5 -15.5t5.5 -25.5q0 -29 -19.5 -50t-47.5 -21q-31 0 -53.5 23.5t-22.5 57.5q0 38 30 65t72 27q50 0 96.5 -30t76.5 -82v102q-12 69 -49.5 113.5t-82.5 44.5
q-7 0 -12.5 -1.5t-8.5 -3.5q10 -4 15.5 -15.5t5.5 -25.5q0 -29 -19.5 -50t-47.5 -21q-31 0 -53.5 23.5t-22.5 57.5q0 38 30 65t72 27q50 0 97 -37.5t76 -100.5v199h-324z" />
    <glyph glyph-name="uni09A8_uni09CD_uni09AE" horiz-adv-x="501" 
d="M-45 520h521l35 -41h-80v-515l-20 20q-10 56 -43 97.5t-79 56.5q-3 -31 -22 -51.5t-45 -20.5q-31 0 -53.5 19.5t-22.5 46.5q0 30 21 51t50 21q14 0 25.5 -4t20.5 -11q-7 82 -47 137.5t-91 55.5q10 -8 15.5 -23t5.5 -33q0 -23 -18 -39.5t-43 -16.5q-28 0 -47.5 19.5
t-19.5 46.5q0 38 28.5 65t68.5 27q41 0 77.5 -32t55.5 -85v168h-258zM289 479v-296q28 -10 54 -36.5t48 -65.5v398h-102z" />
    <glyph glyph-name="uni09A8_uni09F0_uni09CD" horiz-adv-x="529" 
d="M-45 520h549l35 -41h-80v-510l-21 21q0 12 -21.5 21t-52.5 9q-30 0 -89.5 -5.5t-89.5 -5.5q-67 0 -114 38.5t-47 93.5q0 23 6 45t18 42l24 -11q-7 -13 -11 -29.5t-4 -35.5q0 -34 24.5 -57.5t59.5 -23.5q30 0 90 5t90 5t58.5 -11t52.5 -31q-20 114 -73 188t-114 74
q-1 0 0 -1t0 -2q16 -6 25.5 -22t9.5 -36q0 -36 -23.5 -61.5t-57.5 -25.5q-36 0 -61.5 27t-25.5 65q0 42 34.5 72t82.5 30q58 0 110.5 -54t78.5 -140v326h-428z" />
    <glyph glyph-name="uni09A8_uni09AC_uni09CD" horiz-adv-x="407" 
d="M148 168q48 -11 86.5 -39t61.5 -68v189q-40 -14 -77.5 -34.5t-70.5 -47.5zM122 122l-51 61q43 36 99.5 67t125.5 56q-34 44 -75.5 65.5t-77.5 15.5q7 -5 11 -17t4 -28q0 -26 -19.5 -44t-46.5 -18q-30 0 -51 22.5t-21 54.5q0 36 28.5 61.5t68.5 25.5q50 0 97.5 -27.5
t81.5 -75.5v138h-306l-35 41h427l35 -41h-80v-510l-21 26q-27 58 -79.5 92.5t-114.5 34.5z" />
    <glyph glyph-name="uni09A8_uni09CD_uni09B8" horiz-adv-x="538" 
d="M-45 520h558l35 -41h-80v-510l-41 41v235q0 29 -15 50t-36 21q-22 0 -44 -19.5t-37 -51.5q-22 -47 -45.5 -74.5t-41.5 -27.5q-25 0 -52 20t-50 56l15 15q10 -14 22 -22t24 -8q10 0 24 15t27 41q-11 47 -39.5 77t-62.5 30q12 -9 19 -22.5t7 -28.5q0 -25 -18 -43t-43 -18
q-26 0 -44 21t-18 50q0 36 25.5 61.5t61.5 25.5q40 0 75 -33.5t53 -88.5l30 45q-3 39 -29 67t-63 35q-46 8 -72.5 18t-29.5 23h-80zM218 479q31 -22 49 -53t18 -64q10 12 24.5 18.5t31.5 6.5q24 0 47.5 -19.5t38.5 -51.5v163h-209z" />
    <glyph glyph-name="uni09AA_uni09CD_uni099F" horiz-adv-x="649" 
d="M339 520h190q10 0 17.5 7.5t7.5 18.5q0 14 -19.5 24.5t-46.5 10.5q-31 0 -92 -5t-92 -5q-42 0 -72 30t-30 72q0 17 6.5 34t19.5 32l21 -10q-10 -7 -15.5 -19t-5.5 -27q0 -23 15 -39.5t36 -16.5q32 0 94.5 7.5t94.5 7.5q46 0 79 -26.5t33 -64.5q0 -13 8 -22t19 -9h17
l35 -41h-280v-326q0 -30 15 -51t36 -21q30 0 76.5 65.5t46.5 108.5q-30 0 -51 16.5t-21 39.5t18 39.5t44 16.5q34 0 57.5 -24t23.5 -58q0 -66 -73 -165.5t-121 -99.5q-23 0 -57 46.5t-34 76.5v173q-3 16 -11.5 32.5t-22.5 33.5l-160 -153l-61 21q24 24 37.5 45t13.5 36
q0 11 -9 18.5t-22 7.5q-10 0 -28 -10.5t-28 -10.5q-15 0 -25.5 10.5t-10.5 25.5q0 29 65.5 73t108.5 44q47 0 89 -33.5t64 -88.5v153zM94 387q27 0 46 -15t19 -36q0 -6 -1 -11t-3 -9l122 107q-11 13 -29.5 20t-41.5 7q-24 0 -53 -16.5t-59 -46.5z" />
    <glyph glyph-name="uni09AA_uni09CD_uni09A4" horiz-adv-x="592" 
d="M108 403q0 31 61.5 79t101.5 48q55 0 107.5 -43t86.5 -115v209h10l31 -51v-10h61l35 -41h-96v-285q24 -19 37.5 -47t13.5 -60q0 -61 -42 -104.5t-101 -43.5q-119 0 -230 135t-168 349l26 -10q48 -180 152 -294t220 -114q46 0 79 27t33 65q0 19 -8 35t-22 26
q0 -27 -21 -46.5t-51 -19.5q-29 0 -50 21t-21 50t21 50t50 21q12 0 22 -2.5t19 -7.5v112l-51 77l-178 -168l-72 20q36 36 51.5 55t15.5 32q0 14 -10.5 24.5t-25.5 10.5q-10 0 -28 -10t-28 -10q-13 0 -22 10.5t-9 25.5zM180 413q30 0 52 -19t24 -47l117 102q-16 13 -36 20
t-43 7q-33 0 -63 -16.5t-51 -46.5z" />
    <glyph glyph-name="uni09AA_uni09CD_uni09A4_uni09C1" horiz-adv-x="517" 
d="M13 403q0 31 61.5 79t101.5 48q55 0 107.5 -43t86.5 -115v209h10l31 -51v-10h81l35 -41h-116v-209q28 -10 45 -30.5t17 -45.5q0 -18 -8 -35.5t-22 -31.5q21 -12 33.5 -38t12.5 -59q0 -38 -33 -64.5t-80 -26.5q-76 0 -171.5 96t-123.5 199l25 -20q36 -99 111.5 -159
t163.5 -60q32 0 54.5 17.5t22.5 42.5q0 10 -5.5 19t-14.5 13q-6 -12 -17 -19t-24 -7q-22 0 -38 14t-16 34t16 34.5t38 14.5q8 0 16.5 -4t15.5 -12q10 15 15.5 28t5.5 24q0 19 -14 32.5t-34 13.5q-39 0 -72 -18t-51 -49q16 -3 26 -13t10 -22q0 -19 -15 -32.5t-36 -13.5
t-36 16.5t-15 39.5q0 50 45.5 87t111.5 40v61l-51 77l-178 -168l-72 20q36 36 51.5 55t15.5 32q0 14 -10.5 24.5t-25.5 10.5q-10 0 -28 -10t-28 -10q-13 0 -22 10.5t-9 25.5zM85 413q30 0 52 -19t24 -47l117 102q-16 13 -36 20t-43 7q-33 0 -63 -16.5t-51 -46.5z" />
    <glyph glyph-name="uni09AA_uni09CD_uni09A4_uni09F0_uni09CD" horiz-adv-x="508" 
d="M20 403q0 34 62 80.5t107 46.5q52 0 103 -43t85 -115v199l41 -41v-10h65l35 -41h-100v-200q18 -17 27.5 -35.5t9.5 -34.5v-362l-20 25q0 36 -24 61.5t-58 25.5q-26 0 -76.5 -7.5t-76.5 -7.5q-56 0 -95.5 46.5t-39.5 111.5q0 20 3.5 39t9.5 37l15 -10q-1 -8 -2 -15t-1 -12
q0 -54 29.5 -92.5t70.5 -38.5q18 0 53.5 5t53.5 5q33 0 64 -17.5t53 -48.5v275q0 13 -7.5 22t-17.5 9q-29 0 -73 -52t-44 -86q7 13 19.5 20t27.5 7q18 0 31 -12.5t13 -29.5q0 -25 -19.5 -43t-46.5 -18q-34 0 -58 25t-24 61q0 46 54.5 100.5t107.5 62.5v41l-51 77l-183 -179
l-66 31q35 35 50.5 54.5t15.5 32.5q0 14 -10.5 24.5t-25.5 10.5q-10 0 -28 -10t-28 -10q-13 0 -22 10.5t-9 25.5zM102 423q30 0 51.5 -20.5t24.5 -50.5l108 97q-16 13 -36.5 20t-43.5 7q-31 0 -59 -14t-45 -39z" />
    <glyph glyph-name="uni09AA_uni09CD_uni09A8" horiz-adv-x="511" 
d="M12 403q0 31 63.5 79t105.5 48q73 0 133.5 -50.5t85.5 -132.5v234h10l31 -51v-10h36l41 -41h-77v-510l-21 26q-12 68 -54 115.5t-99 57.5q10 -8 15.5 -21.5t5.5 -29.5q0 -27 -19.5 -46.5t-47.5 -19.5q-31 0 -53.5 22.5t-22.5 53.5q0 36 25.5 61.5t61.5 25.5
q51 0 96.5 -33t71.5 -89v193q-7 38 -25.5 71t-46.5 57l-204 -179l-45 31q34 32 50 53t16 34q0 17 -12 29t-29 12q-11 0 -28 -13t-28 -13q-15 0 -25.5 10.5t-10.5 25.5zM114 424q25 0 43 -21t18 -50l114 96q-20 14 -39.5 21.5t-35.5 7.5q-26 0 -52 -14t-48 -40z" />
    <glyph glyph-name="uni09AA_uni09CD_uni09AA" horiz-adv-x="476" 
d="M18 403q0 31 65.5 79t108.5 48q51 0 98 -36t75 -97v184h10l31 -51v-10h45l35 -41h-80v-505l-20 26q0 51 -15 93.5t-42 69.5l-176 -163l-48 30q26 18 41 41t15 46q0 13 -9 22t-21 9q-11 0 -28.5 -13t-28.5 -13q-12 0 -21 10.5t-9 25.5q0 21 40.5 59t66.5 43l-56 25
q24 24 37.5 46.5t13.5 40.5q0 11 -9 18.5t-22 7.5q-11 0 -28 -13t-28 -13q-17 0 -29 9t-12 22zM110 433q27 0 46.5 -19.5t19.5 -46.5l97 92q-17 14 -33 21.5t-29 7.5q-22 0 -48.5 -14.5t-52.5 -40.5zM125 178q28 0 47.5 -21t19.5 -50l97 92q-13 11 -30.5 17t-36.5 6
q-29 0 -54 -11.5t-43 -32.5zM365 347q0 11 -10.5 29t-30.5 42l-153 -152q7 2 15 3t16 1q44 0 88 -31.5t75 -85.5v194z" />
    <glyph glyph-name="uni09AA_uni09CD_uni09AE" horiz-adv-x="611" 
d="M13 372q0 30 65.5 76.5t108.5 46.5q37 0 81 -25.5t89 -71.5v122h229l35 -41h-80v-520l-21 20q-10 37 -41 67t-76 46q-10 -28 -31 -45t-46 -17q-34 0 -57.5 24t-23.5 58t23.5 58t57.5 24q9 0 16.5 -1.5t14.5 -3.5v167q-11 15 -21.5 25.5t-19.5 16.5l-170 -169l-61 21
q24 24 37.5 45t13.5 36q0 11 -9 18.5t-22 7.5q-10 0 -28 -10.5t-28 -10.5q-15 0 -25.5 10.5t-10.5 25.5zM106 390q26 0 44 -19.5t18 -46.5l95 99q-16 8 -31.5 12.5t-29.5 4.5q-22 0 -47 -13t-49 -37zM398 479v-311q30 -17 56 -48.5t46 -73.5v433h-102z" />
    <glyph glyph-name="uni09AA_uni09F0_uni09CD" horiz-adv-x="579" 
d="M60 393q0 34 69 85.5t115 51.5q54 0 114 -50.5t110 -137.5v239h9l32 -51v-10h45l35 -41h-80v-515l-20 15q0 44 -27 75.5t-65 31.5q-32 0 -97 -7.5t-97 -7.5q-72 0 -122.5 46.5t-50.5 111.5q0 17 4 34t11 33l20 -11q-5 -9 -7.5 -19t-2.5 -21q0 -42 40.5 -72t97.5 -30
q24 0 71.5 5t71.5 5q43 0 79 -22t53 -60v214q-12 33 -28.5 60t-37.5 48l-186 -179l-74 31q29 27 45 52.5t16 44.5q0 14 -10.5 24.5t-25.5 10.5q-12 0 -30.5 -15t-30.5 -15q-19 0 -32.5 13.5t-13.5 32.5zM152 413q40 0 66.5 -25.5t18.5 -56.5l114 107q-20 16 -40 25t-39 9
q-29 0 -60.5 -15.5t-59.5 -43.5z" />
    <glyph glyph-name="uni09AA_uni09F0_uni09CD_uni09C1" horiz-adv-x="720" 
d="M60 393q0 34 69 85.5t115 51.5q54 0 114 -50.5t110 -137.5v239h10l31 -51v-10h186l35 -41h-221v-163q14 -24 36 -37.5t46 -13.5q29 0 50 19.5t21 46.5q0 13 -7 24.5t-18 16.5l5 -20q0 -17 -13.5 -29t-32.5 -12t-32.5 13.5t-13.5 32.5q0 21 16.5 36t39.5 15q34 0 58 -31.5
t24 -75.5q0 -36 -25.5 -61.5t-61.5 -25.5q-29 0 -54 21t-38 56v-327l-20 20q0 45 -27 76.5t-65 31.5q-33 0 -97 -10.5t-97 -10.5q-72 0 -122.5 46.5t-50.5 111.5q0 17 4 34t11 33l20 -11q-5 -9 -7.5 -20t-2.5 -25q0 -40 40.5 -68.5t97.5 -28.5q24 0 71.5 6t71.5 6
q34 0 69 -22.5t63 -61.5v214q-12 33 -28.5 60t-37.5 48l-184 -179l-76 31q29 27 45 52.5t16 44.5q0 14 -10.5 24.5t-25.5 10.5q-12 0 -30.5 -15t-30.5 -15q-19 0 -32.5 13.5t-13.5 32.5zM152 418q41 0 66.5 -30t15.5 -67l127 112q-15 18 -39 28t-52 10q-31 0 -62 -14
t-56 -39z" />
    <glyph glyph-name="uni09AA_uni09F0_uni09CD_uni09C2" horiz-adv-x="720" 
d="M60 393q0 34 69 85.5t115 51.5q52 0 112 -52t112 -142v245h10l31 -51v-10h186l35 -41h-221v-102q27 16 44.5 23.5t26.5 7.5q30 0 51 -19.5t21 -46.5t-10.5 -79.5t-10.5 -79.5q0 -47 5.5 -90.5t15.5 -82.5q-28 16 -44.5 35t-16.5 36q0 44 5 133t5 133q-21 0 -44.5 -10.5
t-47.5 -30.5v-337l-20 21q0 42 -27 72t-65 30q-33 0 -97 -10.5t-97 -10.5q-72 0 -122.5 46.5t-50.5 111.5q0 17 4 34t11 33l20 -11q-5 -9 -7.5 -21.5t-2.5 -28.5q0 -38 33 -65t80 -27q28 0 84 5t84 5q39 0 74.5 -22t57.5 -60v214q-10 29 -29.5 57.5t-46.5 55.5l-189 -184
l-61 31q29 27 45 52.5t16 44.5q0 14 -13.5 24.5t-32.5 10.5q-12 0 -30.5 -15t-30.5 -15q-15 0 -25.5 13.5t-10.5 32.5zM147 413q37 0 63 -24t26 -58l115 107q-17 14 -37 21.5t-42 7.5q-34 0 -66.5 -14t-58.5 -40z" />
    <glyph glyph-name="uni09AA_uni09CD_uni09B2" horiz-adv-x="525" 
d="M16 387q11 43 76.5 90.5t112.5 47.5q58 0 114.5 -48.5t94.5 -129.5v234h10l31 -51v-10h45l35 -41h-80v-520l-20 31q0 59 -25.5 100.5t-61.5 41.5q-16 0 -24 -24.5t-2 -56.5h-20q-10 36 -42.5 58.5t-74.5 22.5q-32 0 -54.5 -19.5t-22.5 -46.5q0 -19 16 -32.5t38 -13.5
q-6 6 -9.5 13.5t-3.5 15.5q0 18 12 30.5t29 12.5t29 -15t12 -36t-19.5 -36t-47.5 -15q-40 0 -68.5 31.5t-28.5 75.5q0 42 31.5 72t75.5 30q24 0 50 -19t47 -53q11 30 26.5 48.5t29.5 18.5q25 0 49 -24t38 -63v199q-12 30 -29 57t-37 50l-191 -179l-64 21q24 22 37.5 40.5
t13.5 30.5q0 17 -9 29t-22 12q-10 0 -28 -7.5t-28 -7.5q-17 0 -29 10.5t-12 24.5zM93 398q4 1 8.5 1.5t9.5 0.5q26 0 44.5 -21.5t18.5 -52.5l128 118q-11 16 -30.5 24.5t-43.5 8.5q-41 0 -77.5 -21t-57.5 -58z" />
    <glyph glyph-name="uni09AA_uni09CD_uni09B8" horiz-adv-x="613" 
d="M-45 520h633l35 -41h-80v-510l-41 41v260q0 15 -12 25.5t-29 10.5q-22 0 -46 -22t-41 -60q-24 -51 -48.5 -81.5t-42.5 -30.5q-24 6 -46.5 24.5t-40.5 46.5l15 16q10 -8 19 -12t17 -4q13 0 30.5 21t33.5 56l-42 53l-145 -124l-40 35q19 17 29.5 31.5t10.5 24.5
q0 15 -11.5 25.5t-28.5 10.5q-8 0 -20.5 -10t-20.5 -10q-13 0 -22 9t-9 21q0 25 52 63.5t86 38.5q44 0 91.5 -40t83.5 -108l29 46q0 41 -27 74t-70 44q-18 5 -59 14t-43 21h-165zM89 341q25 0 43 -16t18 -38l82 65q-9 15 -25.5 24t-35.5 9q-18 0 -39.5 -11.5t-42.5 -32.5z
M303 479q39 -32 56 -70t6 -67q14 17 29.5 26t30.5 9q21 0 42 -18t35 -48v168h-199z" />
    <glyph glyph-name="uni09AB_uni09CD_uni099F" horiz-adv-x="570" 
d="M-45 520h498q10 0 17.5 7.5t7.5 18.5q0 14 -19.5 24.5t-46.5 10.5q-31 0 -92 -5t-92 -5q-42 0 -72 30t-30 72q0 17 6.5 34t19.5 32l21 -10q-10 -7 -15.5 -19t-5.5 -27q0 -23 15 -39.5t36 -16.5q32 0 94.5 7.5t94.5 7.5q46 0 79 -26.5t33 -64.5q0 -13 8 -22t19 -9h14
l35 -41h-493l118 -70l-102 -106q55 -12 98 -41.5t65 -71.5v248h72q59 0 100.5 -35.5t41.5 -86.5q0 -39 -23.5 -66t-57.5 -27q-25 0 -43 16t-18 38q0 20 15 34t36 14q14 0 26.5 -10t19.5 -26q7 4 11 13.5t4 21.5q0 18 -22.5 30.5t-54.5 12.5h-66v-291q0 -13 21 -32t35 -19
q44 0 88.5 31t44.5 61q-7 -9 -16.5 -14.5t-19.5 -5.5q-23 0 -39.5 18t-16.5 43q0 23 21 39.5t50 16.5q30 0 51 -27t21 -65q0 -50 -60 -101.5t-119 -51.5q-25 0 -63.5 40.5t-38.5 66.5v75q-23 49 -78.5 78.5t-125.5 29.5l-51 53l118 109l-82 47l10 11h-67z" />
    <glyph glyph-name="uni09AB_uni09F0_uni09CD" horiz-adv-x="598" 
d="M-10 479l-35 41h618l35 -41h-452l114 -122l-132 -102q74 -23 128.5 -65.5t80.5 -97.5v346h61q59 0 101 -47.5t42 -115.5q0 -34 -21 -57.5t-50 -23.5q-26 0 -44 15t-18 36t15 36t36 15q11 0 22 -5.5t19 -15.5q28 23 1.5 57.5t-72.5 34.5h-51v-418l-21 10q-6 36 -29 59
t-52 23q-22 0 -66.5 -5.5t-66.5 -5.5q-66 0 -105 52t-17 112l20 -5q-13 -35 19.5 -66t82.5 -31q14 0 41 5t41 5q30 0 62.5 -21.5t59.5 -60.5h5q-18 67 -86 117t-164 67l-56 76l148 107q-21 21 -44.5 34t-47.5 17q-53 9 -80 18.5t-32 22.5h-10z" />
    <glyph glyph-name="uni09AB_uni09CD_uni09B2" horiz-adv-x="589" 
d="M-10 479l-35 41h609l35 -41h-460l122 -122l-132 -102q71 -22 125 -61t84 -91v335h61q59 0 101 -47.5t42 -115.5q0 -34 -21 -57.5t-51 -23.5q-25 0 -43 15t-18 36t14.5 36t35.5 15q14 0 25.5 -7t16.5 -18q6 5 9.5 13t3.5 17q0 27 -24.5 46.5t-59.5 19.5h-51v-428l-21 20
q-8 46 -28 76.5t-43 30.5q-22 0 -38 -19.5t-16 -46.5h-15q-4 31 -30 51.5t-61 20.5q-24 0 -41.5 -16.5t-17.5 -40.5q0 -19 13.5 -33t32.5 -14q-6 5 -9 11.5t-3 13.5q0 15 11 26t26 11q17 0 29 -11t12 -26q0 -20 -16.5 -34.5t-39.5 -14.5q-38 0 -65 27t-27 65q0 44 25.5 75.5
t61.5 31.5q27 0 53 -21t42 -56q6 23 17.5 37t24.5 14q20 0 45.5 -23.5t48.5 -63.5h3q-18 68 -91.5 119t-178.5 70l-36 56l148 112q-21 21 -44.5 34t-47.5 17q-48 9 -75 18.5t-32 22.5h-6z" />
    <glyph glyph-name="uni09AC_uni09CD.half_uni099C.pres" horiz-adv-x="647" 
d="M-45 520h667l35 -41h-334v-30q28 -40 69.5 -62.5t86.5 -22.5q20 0 42.5 6t46.5 17l66 -66q-40 -40 -61.5 -99.5t-21.5 -129.5q0 -35 4.5 -68t12.5 -65l-20 10q-14 38 -21 76t-7 74q0 50 8.5 97t24.5 90q-58 -10 -120 20t-110 92v-168q0 -9 4.5 -15t11.5 -6
q14 0 36.5 17.5t49.5 49.5q30 -30 46 -64.5t16 -68.5q0 -59 -48 -101t-116 -42q-93 0 -179 113t-127 290l26 -5q37 -149 115.5 -243t164.5 -94q55 0 94 31.5t39 76.5q0 10 -5 21.5t-15 23.5q-28 -34 -55 -52.5t-47 -18.5q-12 0 -23 11.5t-18 29.5q-14 39 -55 63t-93 24
l-46 45q36 36 82.5 64.5t101.5 48.5v30h-293zM170 326q41 -11 70.5 -29.5t42.5 -41.5v143q-24 -9 -52.5 -27t-60.5 -45z" />
    <glyph glyph-name="uni09AC_uni09CD.half_uni099D.pres" horiz-adv-x="518" 
d="M-10 479l-35 41h398v-41h-51v-183q20 -11 41 -40t41 -73v398h10l30 -46v-15h69l35 -41h-104v-418l-20 20q-10 54 -37 94.5t-65 58.5v-265l-20 21q-24 65 -73.5 106.5t-110.5 46.5l-46 56q10 10 24 20.5t32 20.5q-5 14 -22.5 25t-43.5 15l-31 41q39 32 102 64.5t148 63.5
v30h-271zM261 71v184q-50 -13 -87.5 -30t-60.5 -36q49 -18 87 -48.5t61 -69.5zM261 393q-47 -13 -93 -34.5t-90 -52.5q8 -3 18.5 -14t32.5 -37q26 18 59.5 31t72.5 20v87z" />
    <glyph glyph-name="uni09AC_uni09CD.half_uni09A1.pres" horiz-adv-x="489" 
d="M-10 479l-35 41h509l35 -41h-187v-219q0 -8 4.5 -14t10.5 -6q14 0 34.5 14.5t42.5 41.5q26 -18 41 -48t15 -65q0 -69 -44 -118t-107 -49q-81 0 -163 113.5t-130 293.5l26 -10q40 -149 116.5 -242.5t158.5 -93.5q46 0 79 34.5t33 82.5q0 16 -2.5 27.5t-7.5 17.5
q-22 -27 -49 -41.5t-53 -14.5q-19 0 -32.5 10.5t-13.5 25.5q-15 25 -46.5 45t-75.5 32l-46 51q28 28 70.5 52.5t97.5 44.5v35h-281zM271 245v142q-30 -11 -57 -26.5t-50 -34.5q28 -10 55 -30.5t52 -50.5z" />
    <glyph glyph-name="uni09AC_uni09CD.half_uni09A2.pres" horiz-adv-x="472" 
d="M45 306l-36 41q28 28 70.5 52.5t97.5 44.5v35h-187l-35 41h492l35 -41h-264v-331q0 -25 16.5 -43t39.5 -18q31 0 69 50.5t38 91.5v11q-5 -3 -10 -4.5t-10 -1.5q-21 0 -36 16.5t-15 40.5q0 23 19.5 39.5t46.5 16.5q32 0 49.5 -25.5t17.5 -71.5q0 -70 -60 -147.5
t-114 -77.5q-28 0 -60 42.5t-32 80.5v76q-28 33 -62 54.5t-70 27.5zM177 250v137q-35 -13 -62 -27t-45 -29q34 -9 62 -30t45 -51z" />
    <glyph glyph-name="uni09AC_uni09CD.half_uni09A6.pres" horiz-adv-x="564" 
d="M-45 520h584l35 -41h-287v-224q38 50 86.5 91t106.5 72l72 -51q-47 -53 -72.5 -121t-25.5 -142q0 -27 4 -63.5t12 -81.5l-22 20q-14 52 -21 100.5t-7 93.5q0 40 8 80t23 78q-67 -42 -110 -99t-54 -120l-41 46q-26 49 -78.5 78t-115.5 29l-41 56q72 60 131.5 95t103.5 43
v20h-256zM88 316q58 -15 100 -49.5t58 -79.5v221q-42 -15 -82 -38.5t-76 -53.5z" />
    <glyph glyph-name="uni09AC_uni09CD.half_uni09A6_uni09F0_uni09CD.pres" horiz-adv-x="565" 
d="M-45 520h585l35 -41h-287v-224q40 51 88.5 92t104.5 71l72 -51q-47 -53 -72.5 -121t-25.5 -142q0 -27 4 -63.5t12 -81.5l-25 20q0 19 -25 32.5t-60 13.5q-34 0 -99.5 -23t-99.5 -23q-38 0 -65 28.5t-27 68.5q0 14 5.5 30t15.5 32l20 -11q-5 -6 -7.5 -17.5t-2.5 -28.5
t12 -28.5t29 -11.5q30 0 86.5 17.5t86.5 17.5q35 0 67 -12.5t58 -35.5q-9 45 -14 81t-5 64q0 39 7.5 77.5t22.5 75.5q-54 -33 -95.5 -88t-67.5 -126l-41 46q-26 49 -78.5 78t-115.5 29l-41 56q72 60 131.5 95t103.5 43v20h-257zM89 316q53 -14 94 -43.5t64 -69.5v205
q-42 -15 -82 -38.5t-76 -53.5z" />
    <glyph glyph-name="uni09AC_uni09CD.half_uni09A7.pres" horiz-adv-x="537" 
d="M-45 520h557l35 -41h-221v-164q19 10 39 15.5t38 5.5q16 0 41 -23t25 -38q0 -40 -6 -86t-4 -57q0 -39 4 -80t11 -83h-10q-27 39 -41.5 86t-14.5 98q0 23 5 69t5 69q-12 0 -33.5 -6t-58.5 -20v-321l-20 20q-23 64 -77 105.5t-122 47.5l-46 51l72 51q-18 15 -40.5 23
t-46.5 8l-36 51q83 58 153 93t123 44v41h-296zM82 280q23 -7 42 -18.5t34 -27.5q35 26 67 42.5t61 22.5v88q-67 -24 -118.5 -51t-85.5 -56zM133 155q46 -12 85.5 -44.5t67.5 -80.5v220q-45 -16 -83.5 -40t-69.5 -55z" />
    <glyph glyph-name="uni09AC_uni09AC_uni09CD" horiz-adv-x="743" 
d="M107 265q60 -28 111 -76.5t88 -112.5v301q-48 -13 -98 -41t-101 -71zM423 265q75 -35 129 -83.5t80 -105.5v301q-55 -15 -108 -43t-101 -69zM-45 520h763l35 -41h-80v-515l-20 20q-36 98 -107 164t-158 81l-41 46v-291l-21 16q-45 97 -117.5 157t-152.5 67l-46 51
q69 58 143.5 102t152.5 72v30h-316zM347 479v-188q57 48 128.5 87.5t156.5 70.5v30h-285z" />
    <glyph glyph-name="uni09AC_uni09CD.half_uni09AD.pres" horiz-adv-x="536" 
d="M305 20q-94 0 -175 110t-111 278l22 -10q29 -139 99.5 -228t149.5 -89q48 0 82.5 36t34.5 87q0 6 -2.5 13.5t-7.5 16.5q-23 -33 -60 -52t-78 -19q-31 0 -53.5 19.5t-22.5 46.5q0 26 15 44t36 18q19 0 32 -13.5t13 -32.5q0 -6 -1.5 -11.5t-3.5 -9.5q14 1 27 6.5t24 14.5
v10q-20 29 -52.5 45t-69.5 16l-41 51q36 36 77.5 60.5t85.5 36.5v15h-335l-35 41h556l35 -41h-180v-214q9 5 15.5 13t10.5 18q24 -24 37.5 -56t13.5 -67q0 -63 -40.5 -108t-97.5 -45zM223 357q34 -12 60.5 -33t41.5 -47v141q-32 -12 -57.5 -27t-44.5 -34z" />
    <glyph glyph-name="uni09AC_uni09F0_uni09CD" horiz-adv-x="464" 
d="M139 275q70 -19 126 -67t88 -116v295q-58 -16 -112.5 -44t-101.5 -68zM-10 479l-35 41h484l35 -41h-80v-535l-21 15q-7 27 -29.5 44t-51.5 17q-25 0 -74 -5t-74 -5q-48 0 -82.5 39t-34.5 94q0 7 2.5 19.5t7.5 31.5l20 -5q-2 -7 -3.5 -18.5t-1.5 -27.5q0 -28 21 -47.5
t50 -19.5q23 0 69 8t69 8q28 0 55.5 -23.5t46.5 -63.5l5 5q-21 78 -91.5 135t-168.5 74l-61 77q93 65 170.5 104t135.5 49v30h-363z" />
    <glyph glyph-name="uni09AC_uni09F0_uni09CD_uni09C1" horiz-adv-x="591" 
d="M-45 520h611l35 -41h-221v-163q14 -24 36 -37.5t46 -13.5q29 0 50 19.5t21 46.5q0 12 -7 22t-18 14q2 -21 -10.5 -36t-30.5 -15q-19 0 -32.5 13.5t-13.5 32.5t16.5 32.5t39.5 13.5q34 0 58 -31.5t24 -75.5q0 -36 -25.5 -61.5t-61.5 -25.5q-30 0 -55 19.5t-37 51.5v-316
l-20 26q-3 11 -23 18t-48 7q-25 0 -74 -5t-74 -5q-49 0 -83.5 39t-34.5 94q0 6 2.5 17.5t8.5 33.5l20 -5q-2 -7 -3.5 -18.5t-1.5 -27.5q0 -28 21 -47.5t50 -19.5q23 0 69 4.5t69 4.5q29 0 54 -16.5t38 -43.5l2 2q-36 98 -104 158t-143 60l-41 46q73 61 142.5 101t133.5 57
v30h-350zM151 280q67 -24 116.5 -72t72.5 -110v289q-64 -23 -111.5 -50t-77.5 -57z" />
    <glyph glyph-name="uni09AC_uni09F0_uni09CD_uni09C2" horiz-adv-x="595" 
d="M-45 520h615l35 -41h-220v-102q18 15 36.5 23t34.5 8q29 0 50 -18t21 -43q0 -28 -10 -82t-10 -82q0 -49 5 -92.5t15 -80.5q-28 16 -44.5 35t-16.5 36q0 44 5 133t5 133q-20 0 -43.5 -10.5t-47.5 -30.5v-337l-21 26q-3 11 -24 18t-52 7q-25 0 -74 -5t-74 -5
q-49 0 -83.5 39t-34.5 94q0 6 2.5 17.5t8.5 33.5l20 -5q-2 -7 -3.5 -18.5t-1.5 -27.5q0 -28 21 -47.5t50 -19.5q23 0 69 8t69 8q29 0 55.5 -19.5t41.5 -52.5l2 1q-25 92 -93.5 150t-153.5 58l-41 56q86 72 156 113.5t120 50.5v30h-354zM145 265q67 -12 120.5 -58.5
t78.5 -114.5v290q-37 -7 -87.5 -36.5t-111.5 -80.5z" />
    <glyph glyph-name="uni09AC_uni09CD.half_uni09B2.pres" horiz-adv-x="462" 
d="M121 280q76 -20 135.5 -64t94.5 -104v275q-74 -20 -132.5 -47t-97.5 -60zM75 234l-40 62q92 64 172 103t144 50v30h-361l-35 41h482l35 -41h-80v-540l-21 20q-13 47 -34 77t-42 30q-15 0 -25.5 -19.5t-10.5 -46.5h-20q-9 34 -37.5 55t-64.5 21q-30 0 -51 -18t-21 -43
q0 -19 13.5 -32.5t32.5 -13.5q-5 4 -8 10t-3 13q0 16 12.5 27t29.5 11q14 0 24.5 -13.5t10.5 -32.5t-16.5 -32t-39.5 -13q-40 0 -68.5 28.5t-28.5 68.5q0 44 30 75.5t72 31.5q26 0 51 -21t41 -56q7 27 21.5 44t29.5 17q23 0 48 -24.5t44 -66.5h5q-23 88 -104.5 143
t-186.5 55z" />
    <glyph glyph-name="uni09AD_uni09F0_uni09CD" horiz-adv-x="499" 
d="M-45 520h519l35 -41h-519zM122 361q0 28 18 47.5t44 19.5t44 -18t18 -43q0 -10 -3 -19t-8 -17q33 0 66 29t56 78q39 -27 60.5 -58t21.5 -59v-352l-21 15q-7 42 -33.5 69.5t-58.5 27.5q-27 0 -79 -7.5t-79 -7.5q-57 0 -97 47.5t-40 115.5q0 33 6.5 60t18.5 47l15 -15
q-7 -13 -11 -28.5t-4 -32.5q0 -48 31.5 -82.5t75.5 -34.5q21 0 61.5 5t61.5 5q27 0 57 -23t55 -64v302q-43 -51 -88.5 -79.5t-85.5 -28.5q-42 0 -72 29.5t-30 71.5z" />
    <glyph glyph-name="uni09AD_uni09F0_uni09CD_uni09C1" horiz-adv-x="648" 
d="M-45 520h668l35 -41h-668zM121 352q0 31 18 53.5t44 22.5q28 0 46.5 -20.5t15.5 -47.5q-1 -9 -4 -17.5t-7 -14.5q32 0 65.5 30t56.5 80h5q36 -25 56.5 -52t20.5 -50v-20q14 -24 35.5 -37.5t45.5 -13.5q30 0 51 19.5t21 46.5q0 11 -7 23.5t-19 22.5v-20q0 -17 -12 -29
t-29 -12q-19 0 -32.5 12t-13.5 29q0 21 16.5 36t39.5 15q34 0 58 -31.5t24 -75.5q0 -36 -25.5 -61.5t-61.5 -25.5q-28 0 -53 21t-38 56v-327l-21 15q-8 44 -34 73t-58 29q-26 0 -76.5 -5t-76.5 -5q-59 0 -101 50t-42 120q0 29 6.5 53.5t19.5 41.5l15 -15q-7 -10 -11 -26
t-4 -35q0 -48 31.5 -82.5t75.5 -34.5q21 0 61.5 5t61.5 5q31 0 61.5 -23.5t50.5 -63.5v296q-41 -48 -86.5 -75t-87.5 -27t-72 27t-30 65z" />
    <glyph glyph-name="uni09AD_uni09F0_uni09CD_uni09C2" horiz-adv-x="646" 
d="M-45 520h666l35 -41h-666zM119 357q0 29 18 50t44 21q38 0 55 -33t-4 -64q37 0 71 26.5t55 70.5q37 -26 57.5 -51.5t20.5 -45.5v-20q9 5 35 20.5t36 15.5q29 0 50 -19.5t21 -47.5q0 -27 -10 -79t-10 -79q0 -39 5 -77.5t15 -75.5q-28 16 -44.5 35.5t-16.5 36.5q0 41 5 122
t5 122q-21 0 -44.5 -10.5t-46.5 -29.5v-286l-21 20q-8 44 -34 73t-58 29h-142q-63 0 -108 48t-45 116q0 28 6.5 51.5t18.5 39.5l15 -15q-7 -9 -11 -24.5t-4 -36.5q0 -48 31.5 -82.5t75.5 -34.5q21 0 61.5 5t61.5 5q34 0 64.5 -25t47.5 -67v303q-41 -49 -87 -76.5t-87 -27.5
q-42 0 -72 28.5t-30 68.5z" />
    <glyph glyph-name="uni09AD_uni09CD_uni09B2" horiz-adv-x="514" 
d="M-45 520h534l35 -41h-534zM17 423l26 -10q26 -97 98.5 -158t161.5 -61q55 0 94 26.5t39 64.5q0 22 -8 41t-23 31q-27 -39 -61 -60.5t-67 -21.5q-44 0 -75.5 27t-31.5 65q0 29 18 50t44 21q25 0 43 -16.5t18 -39.5q0 -12 -4 -22.5t-11 -17.5q23 0 49 23t47 63
q46 -32 71.5 -74t25.5 -84q0 -19 -6.5 -39.5t-18.5 -41.5v-291l-21 20q-10 58 -34.5 95.5t-51.5 37.5q-15 0 -25.5 -21t-10.5 -51h-20q-18 33 -48.5 52.5t-64.5 19.5q-27 0 -46.5 -18t-19.5 -43q0 -21 13.5 -36t32.5 -15q-4 6 -6 12.5t-2 13.5q0 17 11.5 28.5t27.5 11.5
q17 0 28.5 -13.5t11.5 -32.5q0 -23 -21 -39.5t-50 -16.5q-38 0 -65 31.5t-27 75.5q0 46 27 79t65 33q28 0 56.5 -21.5t50.5 -59.5q8 31 24 51t32 20q24 0 48.5 -23.5t43.5 -63.5v133q-22 -15 -48.5 -23t-55.5 -8q-88 0 -167 82.5t-117 213.5z" />
    <glyph glyph-name="uni09AE_uni09CD_uni09A4" horiz-adv-x="560" 
d="M266 204q0 36 30 62.5t75 30.5q-44 23 -85.5 64.5t-54.5 41.5q5 -9 7.5 -19t2.5 -19q0 -33 -23 -56t-55 -23t-54.5 23t-22.5 56t24.5 56t58.5 23q6 0 12.5 -1.5t13.5 -4.5q0 12 -7 23t-19 18h-179l-35 41h580l35 -41h-135q27 -22 41.5 -50t14.5 -57q0 -23 -13.5 -43.5
t-35.5 -31.5q34 -21 54 -59.5t20 -84.5q0 -79 -42 -126.5t-111 -47.5q-101 0 -197.5 124t-149.5 320l29 -15q43 -160 130 -261t183 -101q51 0 86.5 31.5t35.5 75.5q0 50 -23.5 80t-62.5 30q-6 0 -11.5 -1t-9.5 -2q19 -11 30 -27.5t11 -33.5q0 -32 -19.5 -54.5t-46.5 -22.5
q-34 0 -58 24t-24 58zM215 479q10 -12 15.5 -25t5.5 -26q47 -17 94.5 -44t61.5 -27q20 0 34 16.5t14 39.5q0 22 -12.5 40t-33.5 26h-179z" />
    <glyph glyph-name="uni09AE_uni09CD_uni09A6" horiz-adv-x="773" 
d="M-45 520h793l35 -41h-287v-224q44 60 95.5 102t106.5 62l63 -47q-47 -56 -72 -112.5t-25 -106.5q0 -53 6.5 -98.5t19.5 -80.5l-21 10q-20 43 -30.5 91t-10.5 98q0 38 14 82.5t42 92.5q-56 -32 -102.5 -79.5t-80.5 -105.5l-46 61v255h-88q27 -22 41.5 -50t14.5 -57
q0 -36 -25 -61.5t-61 -25.5q-41 4 -89.5 61t-82.5 57v-5q4 -7 6 -14t2 -12q0 -34 -21 -57.5t-50 -23.5q-35 0 -59.5 22.5t-24.5 53.5q0 32 24.5 54.5t59.5 22.5q5 0 11.5 -1.5t14.5 -4.5q3 9 -4 21t-22 20h-112zM148 479q10 -12 15 -24t5 -24q43 -16 87 -45t56 -29
q25 0 43 16.5t18 39.5q0 22 -12.5 40t-33.5 26h-178z" />
    <glyph glyph-name="uni09AE_uni09CD_uni09A8" horiz-adv-x="419" 
d="M-45 520h439l35 -41h-80v-540l-20 20q-23 49 -64.5 78t-88.5 29q12 -7 18.5 -18t6.5 -23q0 -27 -21 -46.5t-50 -19.5q-32 0 -54.5 22.5t-22.5 54.5q0 31 27 53.5t65 22.5q49 0 95 -25.5t78 -71.5q-6 71 -36.5 124.5t-76.5 75.5q-5 -21 -25 -34t-47 -13q-33 0 -56.5 22.5
t-23.5 54.5q0 34 24 57.5t58 23.5q7 0 15.5 -2.5t19.5 -7.5q5 4 8 10.5t3 15.5q0 32 -78.5 60t-96.5 77h-16zM84 479q0 -10 33.5 -27.5t58.5 -38.5q37 -31 48 -73t-8 -75q26 -15 49.5 -50.5t42.5 -87.5v352h-224z" />
    <glyph glyph-name="uni09AE_uni09CD_uni09AA" horiz-adv-x="833" 
d="M151 479q-6 -12 -6 -25.5t6 -25.5q30 -17 66.5 -41.5t50.5 -24.5q23 0 39.5 18t16.5 43q0 23 -15 39.5t-36 16.5h-122zM427 403q34 0 57.5 -30t23.5 -72l133 117q-22 26 -47 40t-50 14q-23 0 -53.5 -18t-63.5 -51zM-10 479l-35 41h318q28 0 54.5 -20.5t42.5 -55.5
q25 36 64 56t84 20q52 0 107 -42.5t97 -115.5v219h10l31 -51v-10h45l35 -41h-80v-515l-41 46v286q-4 21 -14.5 40.5t-26.5 35.5l-199 -178l-76 30q29 26 45 50t16 42q0 21 -15 36t-36 15q-25 0 -61 -35.5t-61 -35.5q-24 0 -75 43.5l-63 53.5q3 -6 4.5 -13t1.5 -13
q0 -29 -21 -50t-51 -21t-51 21t-21 50q0 38 29 60.5t63 10.5q3 9 -7.5 20.5t-28.5 20.5h-84z" />
    <glyph glyph-name="uni09AE_uni09CD_uni09AA_uni09F0_uni09CD" horiz-adv-x="833" 
d="M151 428q30 -17 66.5 -41.5t50.5 -24.5q23 0 39.5 18t16.5 43q0 23 -15 39.5t-36 16.5h-122q-6 -12 -6 -25.5t6 -25.5zM421 398q36 0 59.5 -28t17.5 -64l137 122q-17 14 -38 21.5t-43 7.5q-36 0 -70.5 -15.5t-62.5 -43.5zM-10 479l-35 41h318q28 0 54.5 -20.5t42.5 -55.5
q36 36 74.5 56t73.5 20q51 0 105.5 -43.5t98.5 -119.5v224h9l32 -51v-10h45l35 -41h-80v-510l-20 21q0 34 -27 57.5t-65 23.5q-46 0 -138 -5t-138 -5q-63 0 -107 43.5t-44 105.5q0 15 2.5 29t6.5 26l20 -5q-2 -7 -3.5 -14t-1.5 -14q0 -41 34.5 -70.5t82.5 -29.5
q41 0 122.5 5.5t122.5 5.5q34 0 64.5 -22t47.5 -60v235q-4 21 -14.5 40.5t-26.5 35.5l-204 -178l-71 30q29 26 45 50t16 42q0 21 -15 36t-36 15q-14 0 -28.5 -9.5t-27.5 -26.5q-6 -20 -21.5 -33t-34.5 -13t-38 11.5t-33 32.5q-16 23 -35.5 39.5t-41.5 24.5q3 -6 4.5 -13.5
t1.5 -14.5q0 -29 -21 -49t-51 -20t-51 21t-21 50q0 38 29 60.5t63 10.5q2 10 -8 21.5t-28 19.5h-84z" />
    <glyph glyph-name="uni09AE_uni09CD_uni09AB" horiz-adv-x="695" 
d="M-45 520h715l35 -41h-363q14 -16 21 -36t7 -42q0 -28 -13 -51t-36 -34l51 -56l-107 -92q55 -15 101.5 -52t77.5 -91v413h61q59 0 101 -41.5t42 -100.5q0 -40 -22.5 -68.5t-54.5 -28.5q-23 0 -39.5 16.5t-16.5 39.5q0 21 15 36t36 15q15 0 27 -9t14 -22q5 3 7.5 8.5
t2.5 12.5q0 34 -27 57.5t-65 23.5h-40v-459l-21 21q-21 77 -89 125t-156 48l-46 61l138 114l-20 22l-16 -3q-31 0 -71 46t-71 46q5 -6 7.5 -12.5t2.5 -12.5q0 -24 -19.5 -40.5t-46.5 -16.5q-26 0 -44 18t-18 43q0 30 25 48.5t57 12.5q0 14 -2.5 24.5t-7.5 16.5h-97zM128 479
q-4 -10 -1 -23.5t11 -27.5q36 -11 74 -31t48 -20q25 0 43 15t18 36t-15 36t-36 15h-142z" />
    <glyph glyph-name="uni09AE_uni09CD_uni09AB_uni09F0_uni09CD" horiz-adv-x="710" 
d="M-45 520h730l35 -41h-363q14 -16 21 -36t7 -42q0 -28 -13 -51t-36 -34l51 -56l-107 -92q55 -15 101.5 -52t77.5 -91v413h61q59 0 101 -41.5t42 -100.5q0 -40 -22.5 -68.5t-54.5 -28.5q-23 0 -39.5 16.5t-16.5 39.5q0 21 15 36t36 15q15 0 27 -9t14 -22q5 3 7.5 8.5
t2.5 12.5q0 34 -27 57.5t-65 23.5h-40v-459l-21 21q0 14 -23.5 24.5t-57.5 10.5q-29 0 -87 -8t-87 -8q-69 0 -118 38.5t-49 93.5q0 33 6.5 60t18.5 47l21 -11q-6 -7 -8.5 -25.5t-2.5 -50.5q0 -37 32.5 -63.5t78.5 -26.5q25 0 74.5 2.5t74.5 2.5q28 0 55 -8t50 -24
q-32 55 -91.5 87t-131.5 32l-46 61l138 114l-20 22l-16 -3q-31 0 -71 46t-71 46q5 -6 7.5 -12.5t2.5 -12.5q0 -26 -19.5 -44t-46.5 -18q-26 0 -44 18t-18 43q0 31 25 51.5t57 14.5q0 14 -2.5 24.5t-7.5 16.5h-112zM143 479q-4 -10 -1 -23.5t11 -27.5q41 -12 83 -31.5
t54 -19.5q19 0 32.5 15t13.5 36t-15 36t-36 15h-142z" />
    <glyph glyph-name="uni09AE_uni09AC_uni09CD" horiz-adv-x="456" 
d="M-45 520h476l35 -41h-101q23 -21 36 -51t13 -63q0 -23 -10.5 -43t-28.5 -31v-322l-20 21q-18 50 -75.5 81t-133.5 31l-41 51q40 40 85.5 72t93.5 55q-22 8 -60.5 50.5t-68.5 56.5q3 -8 4.5 -15.5t1.5 -14.5q0 -30 -21 -51t-50 -21q-30 0 -51 19.5t-21 47.5q0 40 28.5 65
t63.5 16q4 10 -8 23t-33 23h-79zM131 479q10 -17 15 -30t5 -21q46 -17 93 -46.5t60 -29.5q27 0 46.5 19.5t19.5 46.5q0 18 -12.5 34.5t-33.5 26.5h-193zM197 153q41 -11 77 -38t61 -66v188q-42 -15 -77 -36.5t-61 -47.5z" />
    <glyph glyph-name="uni09AE_uni09CD_uni09AD" horiz-adv-x="557" 
d="M-45 520h577l35 -41h-133q29 -20 45 -49.5t16 -62.5q0 -31 -18.5 -55t-48.5 -32q33 -19 52.5 -57t19.5 -85q0 -70 -45 -119.5t-108 -49.5q-108 0 -200.5 127t-126.5 322l23 -5q35 -165 120.5 -271t183.5 -106q48 0 82.5 40t34.5 97q0 15 -6.5 29.5t-18.5 26.5
q-26 -45 -61.5 -71t-71.5 -26q-42 0 -72 24t-30 58q0 29 16.5 50t39.5 21q22 0 38 -16.5t16 -39.5q0 -9 -3.5 -18t-9.5 -17q32 0 60 23.5t42 62.5q-40 7 -82 62.5t-71 55.5q2 -7 3.5 -13t1.5 -11q0 -28 -18 -48t-43 -20q-30 0 -51 19.5t-21 46.5q0 32 26.5 52t60.5 14
q4 11 -3.5 22.5t-21.5 18.5h-194zM235 479q7 -9 11 -20.5t4 -25.5q36 -6 82 -36t66 -30q19 0 33 15t14 36q0 19 -14.5 35.5t-37.5 25.5h-158z" />
    <glyph glyph-name="uni09AE_uni09CD_uni09AD_uni09F0_uni09CD" horiz-adv-x="509" 
d="M-45 520h529l35 -41h-104q27 -22 41.5 -50t14.5 -57q0 -36 -25 -61.5t-61 -25.5q-41 4 -89.5 61t-82.5 57q4 -7 6 -15t2 -16q0 -34 -21 -57.5t-50 -23.5q-35 0 -59.5 22.5t-24.5 53.5q0 32 24.5 54.5t59.5 22.5q4 0 10.5 -1.5t14.5 -4.5q3 10 -4 21.5t-21 19.5h-160z
M196 479q10 -12 15 -24t5 -24q43 -16 87 -45t56 -29q25 0 43 16.5t18 39.5q0 22 -12.5 40t-33.5 26h-178zM35 132q0 30 4 53t11 39l20 -10q-5 -12 -8 -24t-3 -24q0 -48 31.5 -81.5t76.5 -33.5q17 0 51 5t51 5q37 0 70 -16.5t53 -45.5v198q-22 -32 -61 -50.5t-87 -18.5
q-40 0 -68.5 22.5t-28.5 53.5q0 27 18 46.5t43 19.5q22 0 37.5 -14t15.5 -34q0 -10 -3 -18t-9 -14q43 0 77 26t45 68q29 -17 45.5 -43t16.5 -54v-269l-21 21q-4 24 -30 40t-62 16q-21 0 -63.5 -8t-63.5 -8q-65 0 -111.5 45t-46.5 108z" />
    <glyph glyph-name="uni09AE_uni09CD_uni09AE" horiz-adv-x="604" 
d="M-45 520h624l35 -41h-80v-520l-20 20q-9 50 -40 90.5t-77 62.5q0 -34 -23 -57.5t-56 -23.5t-56 23.5t-23 57.5t23.5 58t57.5 24h21q0 19 -9.5 38t-26.5 33q-34 3 -72 52.5t-67 49.5l1 -15q0 -34 -22 -57.5t-53 -23.5t-52.5 22.5t-21.5 53.5q0 32 21.5 54.5t51.5 22.5
q7 0 14.5 -1.5t15.5 -4.5q0 12 -6.5 23t-18.5 18h-106zM137 479q12 -10 18.5 -22.5t6.5 -25.5q41 -15 83.5 -44.5t54.5 -29.5q27 0 46.5 16.5t19.5 39.5q0 22 -12.5 40t-33.5 26h-183zM371 479q22 -15 34 -39.5t12 -52.5q0 -38 -21.5 -67t-54.5 -35q32 -25 48.5 -52.5
t12.5 -49.5q30 -17 54 -47.5t38 -69.5v413h-123z" />
    <glyph glyph-name="uni09AE_uni09F0_uni09CD" horiz-adv-x="523" 
d="M-45 520h543l35 -41h-98q24 -14 37.5 -44t13.5 -68t-14 -67t-37 -40v-270l-21 20q0 34 -23.5 58t-57.5 24q-33 0 -97 -10.5t-97 -10.5q-46 0 -79 36t-33 87q0 19 5 39.5t15 41.5l15 -5q-4 -8 -6 -18.5t-2 -22.5q0 -35 29.5 -60t70.5 -25q24 0 71.5 7t71.5 7
q27 0 53 -17.5t44 -48.5v163q-21 0 -70 52t-98 70q1 -7 3 -15t2 -10q0 -76 -76.5 -76t-76.5 76q0 31 22.5 53.5t53.5 22.5q6 0 12.5 -1.5t13.5 -3.5q0 12 -6.5 26.5t-19.5 29.5h-164zM200 479q10 -12 15 -29t5 -37q43 -16 87 -46.5t56 -30.5q34 0 58 21t24 51q0 22 -17 41.5
t-44 29.5h-184z" />
    <glyph glyph-name="uni09AE_uni09CD_uni09B2" horiz-adv-x="493" 
d="M-45 520h513l35 -41h-101q28 -16 44.5 -45t16.5 -62q0 -38 -16.5 -69.5t-44.5 -47.5v-291l-20 26q0 57 -25.5 97t-61.5 40q-11 0 -18.5 -22.5t-7.5 -53.5h-20q-10 38 -38.5 62.5t-63.5 24.5q-29 0 -50 -19.5t-21 -47.5q0 -16 12.5 -30t32.5 -21q-7 9 -11 17t-4 14
q0 17 10.5 29t25.5 12q19 0 32.5 -15t13.5 -36t-15 -36t-36 -15q-42 0 -72 33t-30 79q0 42 27 72t65 30q25 0 52.5 -22t49.5 -60q6 31 20 51.5t31 20.5q20 0 42 -22t39 -60v143q-21 0 -72 52t-101 70q5 -11 7.5 -18.5t2.5 -11.5q0 -30 -21 -51t-50 -21q-30 0 -51 21t-21 51
q0 34 21 57.5t51 23.5q7 0 13.5 -1t11.5 -3q6 16 -1.5 31.5t-23.5 23.5h-137zM188 418l75.5 -44t77.5 -32q29 0 50 21t21 50q0 21 -14 39.5t-37 26.5h-189q8 -9 12 -25t4 -36z" />
    <glyph glyph-name="uni09AF_uni09F0_uni09CD" horiz-adv-x="463" 
d="M-10 479l-35 41h483l35 -41h-80v-510l-20 21q0 19 -23 32.5t-55 13.5q-27 0 -80 -10.5t-80 -10.5q-47 0 -80 37t-33 90q0 14 5 29.5t14 31.5l24 -10q-7 -9 -11 -22.5t-4 -28.5q0 -27 19.5 -46.5t47.5 -19.5q23 0 68.5 5.5t68.5 5.5q27 0 53 -10t49 -29q-28 64 -89 108
t-139 58l-46 61l138 116q-23 28 -77 48.5t-65 39.5h-88zM174 479l112 -107l-127 -112q66 -24 116.5 -68.5t77.5 -103.5v391h-179z" />
    <glyph glyph-name="uni09B0_uni09C1" horiz-adv-x="537" 
d="M-45 520h557l35 -41h-221v-163q14 -24 36 -37.5t46 -13.5q29 0 50 19.5t21 46.5q0 13 -7 23t-18 13q4 -20 -8.5 -35.5t-32.5 -15.5q-19 0 -32.5 13.5t-13.5 32.5t15 32.5t36 13.5q36 0 61.5 -31.5t25.5 -75.5q0 -36 -25.5 -61.5t-61.5 -25.5q-30 0 -55 19.5t-37 51.5
v-316l-20 21q-30 111 -99.5 180.5t-150.5 69.5l-46 51q73 61 142.5 101t133.5 57v30h-296zM102 81q0 17 12 29t29 12t29 -12t12 -29t-12 -28.5t-29 -11.5t-29 11.5t-12 28.5zM112 285q57 -21 102.5 -71.5t71.5 -122.5v296q-46 -17 -90 -42.5t-84 -59.5z" />
    <glyph glyph-name="uni09B0_uni09C2" horiz-adv-x="538" 
d="M-45 520h558l35 -41h-221v-107q22 13 40.5 19.5t31.5 6.5q29 0 50 -16.5t21 -39.5q0 -27 -10 -79.5t-10 -79.5q0 -49 5 -92.5t15 -80.5q-28 16 -44.5 35t-16.5 36q0 44 5 133t5 133q-24 0 -47.5 -9.5t-44.5 -26.5v-342l-20 26q-26 97 -94.5 158t-150.5 61l-51 71
q86 72 156 113.5t120 50.5v30h-297zM103 81q0 17 12 29t29 12t29 -12t12 -29t-12 -28.5t-29 -11.5t-29 11.5t-12 28.5zM93 265q58 -10 109.5 -56t84.5 -117v295q-43 -8 -92.5 -39t-101.5 -83z" />
    <glyph glyph-name="uni09B2_uni09CD_uni0995" horiz-adv-x="610" 
d="M390 -10l-21 20q-17 65 -75 112t-139 61l-25 36q42 35 97.5 62t121.5 45v21q-14 24 -30 37.5t-31 13.5t-25.5 -24t-10.5 -58h-15q-22 38 -52 60t-60 22q-28 0 -47.5 -16.5t-19.5 -39.5q0 -19 13.5 -32.5t32.5 -13.5q-5 4 -7.5 12t-2.5 18q0 15 12 25.5t29 10.5
t28.5 -13.5t11.5 -32.5q0 -21 -18 -36t-43 -15q-38 0 -65 28.5t-27 68.5t27 68.5t65 28.5q28 0 55.5 -19.5t46.5 -52.5q9 32 24.5 52t31.5 20q17 0 37.5 -23.5t39.5 -63.5v107h-359l-35 41h630l35 -41h-230v-153q57 -10 94.5 -50.5t37.5 -92.5q0 -29 -18 -50t-43 -21
q-19 0 -32.5 12t-13.5 29t12 29t29 12q9 0 17 -5.5t14 -15.5q4 0 7 4.5t3 11.5q0 29 -30.5 53.5t-76.5 32.5v-285zM216 209q35 -3 71 -37.5t62 -90.5h5l-5 57v132q-41 -7 -75 -21.5t-58 -34.5v-5z" />
    <glyph glyph-name="uni09B2_uni09CD_uni0997" horiz-adv-x="501" 
d="M391 331q-16 22 -31 34t-26 12q-21 0 -35.5 -23.5t-14.5 -57.5h-21q-13 36 -42.5 58.5t-64.5 22.5q-36 0 -61.5 -21t-25.5 -50q0 -21 18.5 -36t45.5 -15q-9 7 -14.5 16t-5.5 19q0 19 14 32.5t34 13.5q19 0 32.5 -13.5t13.5 -32.5q0 -27 -24 -46.5t-58 -19.5
q-42 0 -72 31.5t-30 75.5t34.5 75.5t83.5 31.5q29 0 57 -17.5t50 -48.5q10 27 27 44t34 17q19 0 41 -19t41 -52v117h-401l-35 41h521l35 -41h-80v-540l-25 20q8 86 -38 150t-115 64q-38 0 -65 -19.5t-27 -46.5q13 7 32.5 11t44.5 4q28 0 57 -29t29 -57q0 -33 -18.5 -66.5
t-52.5 -61.5l-77 41q53 37 80.5 65t27.5 47q0 11 -10.5 18.5t-25.5 7.5q-24 0 -61.5 -28.5t-61.5 -28.5q-17 0 -28.5 18t-11.5 44q0 42 47.5 84.5t94.5 42.5q56 0 101.5 -34t62.5 -88v234z" />
    <glyph glyph-name="uni09B2_uni09CD_uni0997_uni09C1" horiz-adv-x="692" 
d="M-10 479l-35 41h712l35 -41h-285v-209q6 -5 11.5 -11.5t9.5 -13.5q8 23 22 37t29 14q27 0 55 -32.5t47 -85.5q36 -13 58.5 -44t22.5 -68q0 -65 -60 -111.5t-144 -46.5q-115 0 -235.5 93t-213.5 254l36 -15q73 -126 183.5 -198.5t229.5 -72.5q65 0 111.5 39t46.5 94
q0 12 -6 21t-14 9q0 -21 -16.5 -36t-39.5 -15q-21 0 -36 15t-15 36q0 18 16 32.5t40 18.5q-6 23 -19 37t-27 14q-15 0 -25.5 -19.5t-10.5 -46.5h-10q-21 36 -55 56.5t-72 20.5q-32 0 -54.5 -15t-22.5 -36q16 7 30 11t26 4q30 0 61 -31t31 -61q0 -21 -19 -44.5t-52 -42.5
l-67 31q42 20 67 43.5t25 43.5q0 10 -7.5 17.5t-17.5 7.5q-12 0 -29 -6.5t-38 -18.5q-14 -8 -24 -12t-17 -4q-14 0 -24.5 10.5t-10.5 25.5q0 48 43 88t94 40q13 0 25 -3t21 -8v57q-14 24 -30 37.5t-31 13.5t-25.5 -19.5t-10.5 -47.5h-15q-19 33 -46.5 52.5t-55.5 19.5
q-27 0 -46.5 -18.5t-19.5 -44.5q0 -18 13.5 -31t32.5 -13q-6 3 -9.5 10.5t-3.5 16.5q0 16 12.5 27.5t29.5 11.5t29.5 -13.5t12.5 -32.5q0 -24 -18 -40.5t-43 -16.5q-42 0 -72 27t-30 66q0 46 28.5 79t68.5 33q28 0 56.5 -20.5t48.5 -55.5q8 29 21.5 47.5t26.5 18.5
q19 0 39.5 -20.5t36.5 -54.5v105h-386z" />
    <glyph glyph-name="uni09B2_uni09CD_uni0998" horiz-adv-x="753" 
d="M-10 479l-35 41h773l35 -41h-80v-515l-20 20q-15 85 -80.5 143.5t-154.5 66.5l-51 61l92 81q-28 0 -52.5 9t-42.5 25q-5 6 -13 9t-18 3q-22 0 -38 -25t-16 -61h-21q-6 35 -38 58t-74 23q-36 0 -61.5 -21t-25.5 -50q0 -21 16 -36t39 -15q-6 6 -9.5 14t-3.5 16
q0 19 13 32.5t32 13.5t32.5 -15t13.5 -36q0 -23 -22.5 -39.5t-54.5 -16.5q-42 0 -72 33t-30 79q0 42 33 72t80 30q29 0 57.5 -17.5t50.5 -48.5q7 27 25 44t40 17q6 0 17 -4t26 -12q0 3 -2.5 8.5t-2.5 7.5q0 14 5 26t15 20h-377zM469 479q-22 -4 -36.5 -18.5t-14.5 -32.5
q0 -25 24 -43t58 -18l51 46l41 -44l-133 -129q60 -16 108.5 -57t75.5 -100v396h-174z" />
    <glyph glyph-name="uni09B2_uni09CD_uni099F" horiz-adv-x="704" 
d="M391 326q-12 23 -30 37t-37 14q-14 0 -24.5 -23.5t-10.5 -57.5h-21q-6 35 -38 58t-74 23q-36 0 -61.5 -21t-25.5 -50q0 -23 19.5 -39.5t47.5 -16.5q-10 4 -16 14t-6 23q0 18 12.5 31t30.5 13q19 0 32 -14.5t13 -34.5q0 -24 -22.5 -41t-54.5 -17q-42 0 -72 33t-30 79
q0 42 34.5 72t83.5 30q28 0 56 -17.5t50 -48.5q10 27 25.5 44t31.5 17q23 0 46.5 -22t40.5 -59v127h-401l-35 41h640q12 0 21 9t9 22q0 17 -18 28.5t-43 11.5q-31 0 -92 -7.5t-92 -7.5q-59 0 -100.5 34.5t-41.5 82.5q0 18 6.5 34t18.5 28l26 -11q-10 -10 -15.5 -23.5
t-5.5 -27.5q0 -21 18 -36t43 -15q34 0 102 5.5t102 5.5q51 0 87 -30t36 -72q0 -13 6 -22t15 -9h2l35 -41h-283v-357q0 -21 12 -36t29 -15q43 0 90.5 62t47.5 117q-5 -2 -10.5 -3t-10.5 -1q-25 0 -43 16t-18 39q0 25 19.5 43t47.5 18q34 0 57.5 -30t23.5 -72q0 -72 -67 -161
t-121 -89q-24 0 -60.5 38.5t-36.5 63.5v214z" />
    <glyph glyph-name="uni09B2_uni09CD_uni099F_uni09F0_uni09CD" horiz-adv-x="700" 
d="M-10 479l-35 41h625q10 0 17.5 7.5t7.5 18.5q0 14 -19.5 24.5t-46.5 10.5q-31 0 -92 -7.5t-92 -7.5q-42 0 -72 31.5t-30 75.5q0 17 6.5 34t19.5 32l21 -10q-10 -7 -15.5 -19t-5.5 -27q0 -23 15 -39.5t36 -16.5q32 0 94.5 7.5t94.5 7.5q46 0 79 -26.5t33 -64.5
q0 -13 8 -22t19 -9h17l35 -41h-292v-301q0 -27 12 -46.5t29 -19.5q35 0 89 61.5t54 101.5q-30 -11 -56 5.5t-26 45.5q0 28 18 47.5t43 19.5q34 0 58 -28.5t24 -68.5q0 -43 -12 -79.5t-34 -63.5v-260l-25 15q0 23 -21 39.5t-51 16.5q-17 0 -51 -7.5t-51 -7.5
q-51 0 -86.5 38.5t-35.5 93.5q0 15 2.5 29t7.5 28l20 -6q-3 -8 -4.5 -15.5t-1.5 -14.5q0 -38 26 -65t62 -27q15 0 43.5 5t43.5 5q24 0 47 -15t39 -41v158q-29 -29 -59.5 -45t-57.5 -16q-22 0 -54.5 54t-32.5 89v138q-12 16 -26 25.5t-27 9.5q-14 0 -24.5 -23.5t-10.5 -57.5
h-21q-6 35 -38 58t-74 23q-36 0 -61.5 -19.5t-25.5 -47.5q0 -23 17 -39t41 -16q-7 7 -10.5 15t-3.5 16q0 19 12.5 32t30.5 13q19 0 32.5 -15t13.5 -36q0 -23 -22.5 -39.5t-54.5 -16.5q-42 0 -72 33t-30 79q0 42 34.5 72t83.5 30q26 0 53 -17.5t49 -48.5q10 27 27 44t34 17
q15 0 34.5 -16t38.5 -44v106h-387z" />
    <glyph glyph-name="uni09B2_uni09CD_uni09A1" horiz-adv-x="680" 
d="M-10 479l-35 41h700l35 -41h-259v-183q0 -9 3 -15t8 -6q19 0 47 31t60 87q46 -39 71.5 -88.5t25.5 -100.5q0 -80 -51 -137t-123 -57q-76 0 -142.5 69.5t-96.5 180.5l25 -20q26 -72 85 -115.5t129 -43.5q63 0 108 42t45 101q0 30 -15 56t-41 41q-29 -50 -59 -78.5
t-53 -28.5q-16 0 -41 31t-25 51v30q-12 23 -30 37t-37 14q-14 0 -24.5 -23.5t-10.5 -57.5h-21q-6 35 -38 58t-74 23q-36 0 -61.5 -21t-25.5 -50q0 -23 20 -39.5t48 -16.5q-10 7 -16 17t-6 20q0 18 13.5 31t32.5 13t32.5 -13.5t13.5 -32.5q0 -25 -24 -43t-58 -18
q-42 0 -72 31.5t-30 75.5t34.5 75.5t83.5 31.5q29 0 57 -17.5t50 -48.5q10 27 25.5 44t30.5 17q20 0 43.5 -20.5t43.5 -55.5v122h-401z" />
    <glyph glyph-name="uni09B2_uni09CD_uni09A1_uni09F0_uni09CD" horiz-adv-x="687" 
d="M-10 479l-35 41h707l35 -41h-266v-173q0 -13 3 -22t8 -9q19 0 47 31t60 87q46 -39 71.5 -88.5t25.5 -100.5q0 -24 -5.5 -47t-15.5 -44v-256l-20 10q-4 20 -19.5 33t-36.5 13q-25 0 -74 -10.5t-74 -10.5q-48 0 -82.5 27t-34.5 65q0 20 4 37.5t11 32.5l15 -10
q-2 -5 -3.5 -16.5t-1.5 -28.5q0 -23 19.5 -39t46.5 -16q21 0 61.5 12.5t61.5 12.5q25 0 48 -12t38 -34v124q-21 -20 -50 -31t-62 -11q-76 0 -142.5 71t-96.5 184l25 -20q29 -81 88 -130t126 -49q63 0 108 47.5t45 115.5q0 30 -15 56t-41 41q-29 -50 -59 -78.5t-53 -28.5
q-16 0 -41 31t-25 51v30q-12 23 -30 37t-37 14q-14 0 -24.5 -23.5t-10.5 -57.5h-21q-6 35 -38 58t-74 23q-36 0 -61.5 -21t-25.5 -50q0 -21 17 -36t41 -15q-6 6 -9 14t-3 18q0 18 13.5 31t32.5 13t32.5 -13.5t13.5 -32.5q0 -25 -24 -43t-58 -18q-42 0 -72 31.5t-30 75.5
t34.5 75.5t83.5 31.5q29 0 57 -17.5t50 -48.5q10 27 25.5 44t30.5 17q19 0 42 -21.5t45 -59.5v127h-401z" />
    <glyph glyph-name="uni09B2_uni09CD_uni09A2" horiz-adv-x="704" 
d="M391 326q-12 23 -30 37t-37 14q-14 0 -24.5 -23.5t-10.5 -57.5h-21q-6 35 -38 58t-74 23q-36 0 -61.5 -21t-25.5 -50q0 -23 17.5 -39.5t41.5 -16.5q-9 3 -14 13t-5 24q0 18 14 31t33 13t32.5 -13.5t13.5 -32.5q0 -25 -22.5 -43t-54.5 -18q-42 0 -72 33t-30 79
q0 42 34.5 72t83.5 30q26 0 53 -17.5t49 -48.5q10 27 27 44t34 17q24 0 47.5 -20.5t39.5 -55.5v122h-401l-35 41h724l35 -41h-283v-357q0 -21 12 -36t29 -15q43 0 90.5 62t47.5 117q-30 -11 -56 5.5t-26 45.5q0 25 19.5 43t47.5 18q34 0 57.5 -30t23.5 -72q0 -72 -67 -161
t-121 -89q-24 0 -60.5 38.5t-36.5 63.5v214z" />
    <glyph glyph-name="uni09B2_uni09CD_uni09A6" horiz-adv-x="691" 
d="M-10 479l-35 41h711l35 -41h-283v-229q43 59 95 100.5t109 62.5l56 -56q-45 -53 -68.5 -105.5t-23.5 -98.5q0 -53 6.5 -98.5t19.5 -80.5l-20 10q-20 43 -30.5 91t-10.5 98q0 42 13 86.5t38 87.5q-54 -31 -99.5 -78t-79.5 -106l-46 61v119q-12 16 -23 25t-20 9
q-19 0 -32 -23.5t-13 -57.5h-21q-6 35 -38 58t-74 23q-36 0 -61.5 -21t-25.5 -50q0 -21 17 -36t41 -15q-7 7 -10.5 15t-3.5 16q0 19 12.5 32t30.5 13q19 0 32.5 -15t13.5 -36q0 -23 -22.5 -39.5t-54.5 -16.5q-42 0 -72 33t-30 79q0 42 34.5 72t83.5 30q29 0 57 -17.5
t50 -48.5q5 26 20.5 43.5t35.5 17.5q15 0 34.5 -16t38.5 -44v106h-387z" />
    <glyph glyph-name="uni09B2_uni09CD_uni09AA" horiz-adv-x="504" 
d="M393 321q-13 26 -29.5 41t-31.5 15q-17 0 -29 -23.5t-12 -57.5h-21q-6 35 -38 58t-74 23q-36 0 -61.5 -19.5t-25.5 -46.5q0 -23 17.5 -39.5t41.5 -16.5q-7 7 -10.5 15.5t-3.5 18.5q0 17 12.5 29.5t29.5 12.5q19 0 32.5 -13.5t13.5 -32.5q0 -25 -22.5 -43t-53.5 -18
q-42 0 -72 30t-30 72q0 46 34.5 79t82.5 33q29 0 57 -17.5t50 -48.5q10 27 25.5 44t30.5 17q19 0 42 -21.5t45 -59.5v127h-403l-35 41h524l35 -41h-80v-510l-21 21q-3 38 -19 74t-42 68l-184 -153l-40 41q34 28 47.5 42.5t13.5 24.5q0 12 -10.5 21t-25.5 9q-11 0 -28 -12.5
t-28 -12.5q-13 0 -22 10.5t-9 24.5q0 24 63.5 65.5t100.5 41.5q50 0 94.5 -36t68.5 -96v219zM158 148q25 0 43 -16.5t18 -39.5l97 76q-18 13 -35 19.5t-31 6.5q-22 0 -46 -12t-46 -34z" />
    <glyph glyph-name="uni09B2_uni09CD_uni09AB" horiz-adv-x="733" 
d="M-10 479l-35 41h753l35 -41h-353v-122q0 -27 13.5 -55t37.5 -52l-153 -123q62 -11 112.5 -45.5t80.5 -86.5v372h82q55 0 94 -42t39 -101q0 -42 -23.5 -72t-57.5 -30q-27 0 -46 15t-19 36q0 23 15.5 39.5t37.5 16.5q17 0 29.5 -11.5t12.5 -28.5q10 0 17.5 10.5t7.5 24.5
q0 30 -25.5 51t-61.5 21h-61v-373l-20 21q-25 54 -88.5 93.5t-151.5 54.5l-51 61l163 122q-15 41 -37.5 66.5t-43.5 25.5q-17 0 -28.5 -24t-11.5 -58h-17q-6 36 -34 59t-64 23q-29 0 -49.5 -18t-20.5 -44q0 -17 10 -30.5t26 -19.5q-4 5 -6.5 11.5t-2.5 13.5q0 17 11.5 29
t28.5 12q18 0 31 -13.5t13 -32.5q0 -21 -16 -36t-39 -15q-42 0 -72 31.5t-30 75.5q0 40 27 68.5t65 28.5q31 0 59 -18t44 -48q8 29 20.5 47.5t25.5 18.5q21 0 44 -19t42 -52v122h-359z" />
    <glyph glyph-name="uni09B2_uni09AC_uni09CD" horiz-adv-x="502" 
d="M-10 479l-35 41h522l35 -41h-80v-535l-20 15q-25 69 -88 111t-141 42l-41 51q49 41 112 76t138 62v25q-12 23 -30 37t-37 14q-14 0 -24.5 -23.5t-10.5 -57.5h-21q-17 37 -47.5 59t-64.5 22q-36 0 -61.5 -21t-25.5 -50q0 -21 17.5 -36t41.5 -15q-7 7 -10.5 15t-3.5 17
q0 18 14 31t33 13t32.5 -15t13.5 -36q0 -23 -24 -39.5t-58 -16.5q-42 0 -72 33t-30 79q0 45 31.5 76.5t76.5 31.5q40 0 72.5 -22.5t45.5 -59.5q6 33 21.5 54.5t33.5 21.5q19 0 42 -21.5t45 -59.5v122h-402zM234 158q48 -17 88.5 -53t69.5 -85v214q-40 -11 -79.5 -30
t-78.5 -46z" />
    <glyph glyph-name="uni09B2_uni09CD_uni09AE" horiz-adv-x="588" 
d="M-10 479l-35 41h608l35 -41h-80v-510l-17 21q-12 66 -43.5 111t-71.5 52q-4 -24 -21.5 -40t-40.5 -16q-29 0 -50 20t-21 48q0 29 21 49t50 20q7 0 14.5 -2.5t16.5 -7.5v92q-13 28 -28 44.5t-28 16.5q-17 0 -29 -21t-12 -50h-18q-13 36 -43 58.5t-66 22.5q-30 0 -51 -20
t-21 -48q0 -23 15.5 -39t37.5 -16q-8 6 -13 14.5t-5 17.5q0 19 13 32t31 13t31 -14.5t13 -35.5q0 -24 -18 -40.5t-44 -16.5q-40 0 -68.5 30t-28.5 72q0 47 31.5 80t76.5 33q30 0 56 -21t39 -56q8 29 22.5 47.5t29.5 18.5q18 0 39 -22t38 -59v122h-365zM477 112h5l-5 61v306
h-81v-270q15 -6 36 -31t45 -66z" />
    <glyph glyph-name="uni09B2_uni09F0_uni09CD" horiz-adv-x="569" 
d="M-45 520h589l35 -41h-80v-515l-41 41q0 15 -24.5 25.5t-59.5 10.5q-41 0 -122 -8t-122 -8q-44 0 -75.5 30t-31.5 72q0 26 5 48t15 38l21 -10q-5 -6 -8 -19.5t-3 -31.5q0 -27 16.5 -46.5t39.5 -19.5q37 0 109.5 8t109.5 8q36 0 69.5 -14t60.5 -40v217q0 22 -23 54.5
t-38 32.5q-17 0 -29 -25.5t-12 -61.5h-20q-14 39 -45 63t-67 24q-40 0 -68.5 -25.5t-28.5 -61.5q0 -31 28 -53.5t68 -22.5q-9 4 -14.5 15t-5.5 25q0 21 16.5 36t39.5 15t39.5 -16.5t16.5 -39.5q0 -34 -25 -57.5t-61 -23.5q-57 0 -97.5 41.5t-40.5 100.5q0 55 35.5 94
t86.5 39q28 0 54 -19t43 -52q8 31 25.5 51t36.5 20q16 0 39 -27t47 -75v163h-468z" />
    <glyph glyph-name="uni09B2_uni09CD_uni09B2" horiz-adv-x="520" 
d="M-45 520h540l35 -41h-80v-525l-21 25q-6 70 -32 117t-59 47q-13 0 -22 -24t-9 -58h-20q-7 40 -40.5 66t-77.5 26q-34 0 -57.5 -19.5t-23.5 -46.5q0 -24 16.5 -40.5t39.5 -16.5q-7 9 -11 17t-4 14q0 17 12.5 28.5t30.5 11.5t30.5 -13t12.5 -32q0 -23 -18 -39.5t-43 -16.5
q-44 0 -75.5 30t-31.5 72q0 39 24.5 70t62.5 41q-37 3 -62 34t-25 74q0 51 34.5 87t82.5 36q24 0 49.5 -20.5t46.5 -56.5q11 30 26.5 48t30.5 18q25 0 50 -28t42 -74v148h-419zM88 306q0 -27 15 -46.5t36 -19.5q-8 6 -12 14t-4 16q0 19 13.5 32.5t32.5 13.5t32.5 -14
t13.5 -34q0 -21 -14.5 -36.5t-36.5 -17.5q28 -2 53 -19.5t42 -46.5q10 27 26 44t32 17q20 0 45 -27.5t47 -74.5v168q-11 41 -29.5 66.5t-36.5 25.5q-15 0 -25.5 -24t-10.5 -58h-20q-20 42 -52 67t-66 25t-57.5 -21t-23.5 -50z" />
    <glyph glyph-name="uni09B6_uni09C1" horiz-adv-x="649" 
d="M-56 520h151q50 0 92.5 -23.5t65.5 -63.5q29 41 56 64t46 23q23 0 49 -22t48 -60l31 82h11q54 -77 82.5 -140t28.5 -105q0 -24 -13.5 -45.5t-37.5 -35.5q17 -21 26.5 -43.5t9.5 -43.5q0 -55 -45 -94t-109 -39q-119 0 -235 120t-188 319l26 -15q57 -156 158 -251.5
t209 -95.5q57 0 97.5 27t40.5 65q0 8 -4 16t-12 14q-7 -9 -19 -14.5t-27 -5.5q-27 0 -46.5 18t-19.5 43t19.5 43t46.5 18q8 0 18.5 -5t22.5 -15q15 12 23 31t8 40q0 26 -9.5 51t-26.5 46q-12 -21 -18.5 -48.5t-6.5 -58.5h-21q0 57 -27 97.5t-65 40.5q-10 0 -23.5 -9.5
t-27.5 -26.5q42 -30 66 -59.5t24 -52.5q0 -25 -18 -43t-43 -18q-22 0 -44 24t-36 63q-10 -38 -32 -62.5t-47 -24.5t-43 18t-18 43t22.5 54.5t61.5 57.5q-24 29 -57.5 45t-69.5 16h-105z" />
    <glyph glyph-name="uni09B6_uni09CD_uni099A" horiz-adv-x="674" 
d="M345 388q-23 33 -45 52t-37 19q-9 0 -23.5 -11t-30.5 -30q42 -30 66 -59.5t24 -52.5q0 -25 -18 -43t-43 -18q-22 0 -44 24t-36 63q-10 -38 -32 -62.5t-47 -24.5t-43 18t-18 43t22.5 54.5t61.5 57.5q-10 27 -31.5 44t-47.5 17h-32l-46 41h76q34 0 65 -19t50 -52
q23 33 50 52t52 19q21 0 49.5 -28.5t57.5 -78.5v107h304l35 -41h-298q0 -46 34.5 -82t87.5 -45q62 -11 102.5 -41.5t40.5 -65.5q0 -61 -77 -153t-127 -92q-25 0 -63.5 42t-38.5 70v276zM386 112q0 -25 11.5 -43t28.5 -18q38 0 95.5 80.5t57.5 133.5q-65 17 -115.5 54.5
t-77.5 88.5v-296z" />
    <glyph glyph-name="uni09B6_uni09CD_uni099B" horiz-adv-x="727" 
d="M339 520h363l35 -41h-358q5 -31 37 -51t76 -20h40q57 0 97.5 -33t40.5 -79q0 -54 -34.5 -96.5t-88.5 -57.5q59 -18 118.5 -76t111.5 -148h-20q-66 95 -164.5 144t-202.5 40l-46 81q16 -7 37.5 -11t48.5 -4q68 0 131 46.5t63 96.5q0 23 -21 39.5t-50 16.5
q0 -44 -52.5 -98.5t-95.5 -54.5q-19 0 -42.5 29t-23.5 52v108q-22 27 -41.5 41.5t-34.5 14.5q-10 0 -25 -11t-31 -30q43 -30 67.5 -60t24.5 -52q0 -25 -18 -43t-43 -18q-22 0 -44 24t-36 63q-10 -38 -32 -62.5t-47 -24.5t-43 18t-18 43t22.5 54.5t61.5 57.5
q-13 28 -37.5 44.5t-53.5 16.5h-55l-16 41h70q33 0 65.5 -23.5t55.5 -63.5q23 40 50.5 63.5t51.5 23.5q23 0 51 -23.5t55 -65.5v89zM379 285q0 -6 7.5 -13t13.5 -7q27 0 59.5 34.5t32.5 62.5q-37 0 -68.5 22.5t-44.5 59.5v-159z" />
    <glyph glyph-name="uni09B6_uni09CD_uni09A4" horiz-adv-x="562" 
d="M445 581h10l31 -51v-10h51l35 -41h-86v-326q12 -10 18.5 -35t6.5 -61q0 -57 -45 -97.5t-108 -40.5q-110 0 -205 145t-130 365l25 -10q30 -190 118 -314.5t192 -124.5q46 0 79 37.5t33 90.5q0 32 -19.5 55t-46.5 23h-12.5t-13.5 -2q10 -6 15.5 -18t5.5 -28
q0 -27 -18 -46.5t-44 -19.5q-27 0 -46.5 21t-19.5 50q0 34 30.5 57.5t73.5 23.5q18 0 36 -3.5t34 -10.5v142q-16 50 -43 81t-54 31q-11 0 -25 -12.5t-26 -33.5q44 -31 69 -60.5t25 -51.5q0 -25 -18 -43t-43 -18q-22 0 -44 24t-36 63q-10 -38 -32 -62.5t-47 -24.5t-43 18
t-18 43t22.5 54.5t61.5 57.5q-11 28 -34.5 44.5t-51.5 16.5h-29l-46 41h75q33 0 65.5 -20t57.5 -56q20 35 45 55.5t47 20.5q30 0 63 -33t59 -89v183z" />
    <glyph glyph-name="uni09B6_uni09CD_uni09A8" horiz-adv-x="461" 
d="M351 393q-30 43 -51 64.5t-36 21.5q-13 0 -30.5 -12t-35.5 -34q48 -34 75 -67.5t27 -59.5q0 -25 -18 -43t-43 -18q-22 0 -44 24t-36 63q-10 -38 -32 -62.5t-47 -24.5t-43 18t-18 43q0 26 25 58.5t69 63.5q-20 24 -41 37.5t-39 13.5h-59l-16 41h76q27 0 54.5 -21t48.5 -57
q31 37 60.5 57.5t51.5 20.5q20 0 47.5 -27.5t54.5 -74.5v163h10l30 -51v-10h45l35 -41h-80v-515l-20 15q-4 48 -38 83.5t-84 44.5q0 -36 -24 -61.5t-58 -25.5t-58 22.5t-24 54.5q0 36 28.5 61t68.5 25q47 0 92.5 -31.5t76.5 -85.5v327z" />
    <glyph glyph-name="uni09B6_uni09CD_uni09AE" horiz-adv-x="594" 
d="M341 393q-22 31 -45 48.5t-42 17.5q-7 0 -17.5 -9.5t-28.5 -31.5q43 -30 67.5 -60t24.5 -52q0 -25 -18 -43t-43 -18q-22 0 -44 24t-36 63q-10 -38 -32 -62.5t-47 -24.5t-43 18t-18 43t22.5 54.5t61.5 57.5q-16 28 -38.5 44.5t-45.5 16.5h-33l-46 41h75q32 0 62 -20.5
t50 -55.5q30 36 59.5 56t52.5 20q20 0 47.5 -27.5t54.5 -74.5v163h10l31 -51v-10h187l35 -41h-80v-535l-20 25q-13 48 -46.5 84.5t-80.5 53.5q-2 -26 -21.5 -44t-45.5 -18q-29 0 -50 20t-21 49t21 49.5t50 20.5q9 0 16.5 -1.5t14.5 -3.5v214zM382 479v-326q36 -21 62.5 -47
t39.5 -55v428h-102z" />
    <glyph glyph-name="uni09B6_uni09AC_uni09CD" horiz-adv-x="451" 
d="M341 387q-26 37 -47 57t-35 20q-8 0 -19 -10.5t-32 -35.5q43 -30 67.5 -60t24.5 -52q0 -25 -18 -43t-43 -18q-22 0 -44 24t-36 63q-10 -38 -32 -62.5t-47 -24.5t-43 18t-18 43t22.5 54.5t61.5 57.5q-16 28 -38.5 44.5t-45.5 16.5h-48l-21 41h75q28 0 55 -19t46 -52
q34 34 63.5 52.5t49.5 18.5q19 0 46 -28.5t56 -78.5v168h8l32 -51v-10h45l35 -41h-80v-520l-20 15q-27 59 -82 91t-117 27l-25 61q50 42 101.5 72.5t102.5 49.5v112zM198 132q46 -8 83.5 -33.5t59.5 -63.5v179q-25 -2 -61.5 -23t-81.5 -59z" />
    <glyph glyph-name="uni09B6_uni09F0_uni09CD" horiz-adv-x="574" 
d="M-9 479l-46 41h134q41 0 80 -20t69 -56q42 37 71.5 56.5t46.5 19.5q26 0 58 -31.5t59 -85.5v178h10l31 -51v-10h45l35 -41h-80v-540l-21 20q0 51 -26.5 86.5t-64.5 35.5q-31 0 -92 -10t-92 -10q-76 0 -130 50.5t-54 122.5q0 10 3 26t8 36l20 -5q-2 -14 -3.5 -28.5
t-1.5 -28.5q0 -42 40.5 -72t97.5 -30q24 0 72 6t72 6q36 0 70.5 -20.5t60.5 -57.5v301q-23 40 -49 63.5t-48 23.5q-12 0 -27 -9.5t-29 -26.5q42 -30 66 -59.5t24 -52.5q0 -25 -18 -43t-43 -18q-22 0 -44 24t-36 63q-10 -38 -32 -62.5t-47 -24.5t-43 18t-18 43t22.5 54.5
t61.5 57.5q-24 29 -56.5 45t-67.5 16h-88z" />
    <glyph glyph-name="uni09B6_uni09F0_uni09CD_uni09C0" horiz-adv-x="750" 
d="M-9 479l-46 41h134q41 0 80 -20t69 -56q36 36 67 56t51 20q26 0 58 -31.5t59 -85.5v117q0 21 -18.5 36t-44.5 15q-22 0 -66.5 -5t-66.5 -5q-59 0 -101 27t-42 65q0 48 61.5 82.5t148.5 34.5q138 0 237.5 -72t108.5 -178h45l35 -41h-80v-510l-40 41v510q0 84 -84 144
t-202 60q-84 0 -144 -22.5t-60 -53.5q0 -19 22.5 -32.5t53.5 -13.5q24 0 71.5 5t71.5 5q56 0 95.5 -27t39.5 -65v-581l-21 20q0 51 -26.5 86.5t-64.5 35.5q-31 0 -92 -10t-92 -10q-76 0 -130 50.5t-54 122.5q0 10 3 26t8 36l20 -5q-2 -14 -3.5 -28.5t-1.5 -28.5
q0 -42 40.5 -72t97.5 -30q24 0 71 5.5t71 5.5q37 0 72.5 -20.5t60.5 -56.5v301q-23 40 -49 63.5t-48 23.5q-12 0 -27 -9.5t-29 -26.5q42 -30 66 -59.5t24 -52.5q0 -25 -18 -43t-43 -18q-22 0 -44 24t-36 63q-10 -38 -32 -62.5t-47 -24.5t-43 18t-18 43t22.5 54.5t61.5 57.5
q-24 29 -56.5 45t-67.5 16h-88z" />
    <glyph glyph-name="uni09B6_uni09F0_uni09CD_uni09C1" horiz-adv-x="715" 
d="M-8 479l-46 41h149q34 0 70.5 -20.5t67.5 -57.5q32 37 62 57.5t52 20.5q29 0 60.5 -29t56.5 -78v168h10l31 -51v-10h185l35 -41h-220v-163q14 -24 35.5 -37.5t45.5 -13.5q30 0 51 19.5t21 46.5q0 18 -9 32t-24 19q6 -7 9 -13.5t3 -11.5q0 -19 -13 -32.5t-32 -13.5
t-32.5 13.5t-13.5 32.5q0 21 16.5 36t39.5 15q34 0 57.5 -31.5t23.5 -75.5q0 -36 -25 -61.5t-61 -25.5q-27 0 -52 19.5t-40 51.5v-341l-21 25q0 46 -26.5 79t-64.5 33q-31 0 -92 -10t-92 -10q-76 0 -130 46.5t-54 111.5q0 16 4 35.5t12 41.5l20 -5q-5 -19 -7.5 -35.5
t-2.5 -31.5q0 -38 37.5 -65t90.5 -27q25 0 76 5.5t76 5.5q40 0 75.5 -22t57.5 -60v306q-25 43 -51 67.5t-46 24.5q-15 0 -32.5 -11t-33.5 -30q36 -25 56 -57.5t20 -64.5q0 -21 -13.5 -36t-32.5 -15q-20 0 -42.5 19t-41.5 52q-19 -33 -41.5 -52t-42.5 -19q-21 0 -36 15
t-15 36q0 27 24.5 59.5t67.5 62.5q-24 29 -54 45t-59 16h-99z" />
    <glyph glyph-name="uni09B6_uni09F0_uni09CD_uni09C2" horiz-adv-x="721" 
d="M469 367q-16 39 -42.5 63t-54.5 24q-12 0 -27 -9.5t-29 -26.5q42 -30 66 -59.5t24 -52.5q0 -25 -18 -43t-43 -18q-22 0 -44 24t-36 63q-10 -38 -32 -62.5t-47 -24.5t-43 18t-18 43t22.5 54.5t61.5 57.5q-24 29 -52.5 45t-55.5 16h-112l-46 41h157q31 0 66.5 -21.5
t68.5 -60.5q32 39 62.5 60.5t54.5 21.5q27 0 59 -30.5t58 -82.5v174h10l31 -51v-10h186l35 -41h-221v-102q27 16 44.5 23.5t26.5 7.5q30 0 51 -19.5t21 -46.5t-10.5 -79.5t-10.5 -79.5q0 -47 5.5 -90.5t15.5 -82.5q-28 16 -44.5 35t-16.5 36q0 44 5 133t5 133
q-21 0 -44.5 -10.5t-47.5 -30.5v-337l-20 21q0 38 -27 64.5t-65 26.5q-37 0 -109.5 -10t-109.5 -10q-63 0 -108 43.5t-45 104.5q0 15 4 37t11 50l20 -5q-2 -14 -3.5 -28.5t-1.5 -28.5q0 -42 31.5 -72t75.5 -30q29 0 87 5.5t87 5.5q40 0 75 -18t57 -49v291z" />
    <glyph glyph-name="uni09B6_uni09CD_uni09B2" horiz-adv-x="500" 
d="M390 367q-26 45 -52 71t-45 26q-11 0 -27.5 -12t-34.5 -34q43 -30 67.5 -60t24.5 -52q0 -25 -18 -43t-43 -18q-22 0 -44 24t-36 63q-10 -38 -32 -62.5t-47 -24.5t-43 18t-18 43t22.5 54.5t61.5 57.5q-24 29 -45 45t-35 16h-71l-26 41h91q28 0 58.5 -21.5t57.5 -60.5
q30 39 60.5 60.5t55.5 21.5q26 0 57.5 -33t60.5 -89v183h10l30 -51v-10h45l35 -41h-80v-510l-20 21q-11 62 -35.5 102t-51.5 40q-14 0 -24.5 -21t-10.5 -50h-21q-17 33 -47.5 52t-64.5 19q-27 0 -46.5 -18t-19.5 -43q0 -24 16.5 -41t39.5 -17q-9 8 -14 16.5t-5 17.5
q0 17 11.5 28.5t27.5 11.5q17 0 29 -13.5t12 -32.5q0 -24 -21 -40.5t-50 -16.5q-38 0 -65 31.5t-27 76.5q0 46 27 79t65 33q29 0 58.5 -22t51.5 -60q9 32 23.5 52t29.5 20q21 0 46 -26.5t46 -70.5v270z" />
    <glyph glyph-name="uni09B7_uni09CD_uni0995" horiz-adv-x="530" 
d="M95 352q0 -19 12 -32.5t29 -13.5q15 0 41 10.5t61 30.5l-77 91q-31 -18 -48.5 -41t-17.5 -45zM187 457l81 -90q24 14 37.5 33t13.5 38t-15 32.5t-36 13.5q-17 0 -37.5 -7t-43.5 -20zM95 194q59 -16 107 -52t77 -86v232q-45 -8 -91.5 -32t-92.5 -62zM319 -36l-25 31
q-25 68 -89.5 109.5t-145.5 41.5l-36 60q28 23 53.5 41.5t49.5 32.5q-36 13 -58 38t-22 52q0 32 22 61.5t59 47.5h-137l-35 41h550l35 -41h-210q16 -14 25 -33t9 -40q0 -17 -6 -32t-18 -27v-5q62 -11 102.5 -61.5t40.5 -117.5q0 -36 -21 -61.5t-51 -25.5q-24 0 -41.5 16
t-17.5 38t16 37.5t38 15.5q14 0 25 -8t16 -22q22 46 -20 89t-108 43v-321z" />
    <glyph glyph-name="uni09B7_uni09CD_uni0995_uni09F0_uni09CD" horiz-adv-x="626" 
d="M-45 520h646l35 -41h-338q12 -12 19 -28t7 -33q0 -6 -1.5 -12.5t-4.5 -12.5q28 0 62.5 -29t34.5 -53q10 21 29.5 33.5t42.5 12.5q36 0 61 -33t25 -79q0 -34 -21 -58t-50 -24q-20 0 -34 13.5t-14 32.5t12.5 32.5t30.5 13.5q13 0 24.5 -8.5t16.5 -22.5q3 6 5 12.5t2 12.5
q0 24 -17 40.5t-41 16.5q-30 0 -51 -18.5t-21 -44.5v-304l-20 20q-13 35 -32.5 56.5t-39.5 21.5q-24 0 -71 -3.5t-71 -3.5q-59 0 -101 45t-42 108q0 13 4 33.5t11 48.5l15 -5l-2 -16.5t-1 -16.5q0 -52 25 -88.5t60 -36.5h122q33 0 61 -21t41 -56v301q0 13 -7.5 22t-17.5 9
q-25 0 -63.5 -44t-38.5 -73q5 8 14.5 12.5t22.5 4.5q18 0 31 -15t13 -36q0 -22 -18 -37.5t-43 -15.5q-42 0 -64 41.5t-5 88.5q-11 -4 -21.5 -6t-19.5 -2q-40 2 -67.5 30t-27.5 67q0 31 20 59.5t54 47.5h-146zM104 347q0 -15 10.5 -25.5t25.5 -10.5q16 0 36.5 10.5t44.5 30.5
l-71 71q-22 -18 -34 -38t-12 -38zM174 442l68 -70q22 18 34 34t12 27q0 19 -12 32.5t-29 13.5q-14 0 -33 -9.5t-40 -27.5z" />
    <glyph glyph-name="uni09B7_uni09CD_uni099F" horiz-adv-x="399" 
d="M79 336q0 -25 16.5 -43t39.5 -18q18 0 40 10.5t46 30.5l-86 112q-27 -22 -41.5 -46.5t-14.5 -45.5zM160 449l87 -113q24 20 37.5 43t13.5 44q0 23 -16.5 39.5t-39.5 16.5q-22 0 -43.5 -7.5t-38.5 -22.5zM-10 479l-35 41h324q10 0 17.5 7.5t7.5 18.5q0 14 -19.5 24.5
t-46.5 10.5q-31 0 -92 -5t-92 -5q-42 0 -72 30t-30 72q0 17 6.5 34t19.5 32l21 -10q-10 -7 -15.5 -19t-5.5 -27q0 -23 15 -39.5t36 -16.5q32 0 94.5 7.5t94.5 7.5q46 0 79 -26.5t33 -64.5q0 -13 8 -22t19 -9h17l35 -41h-115q22 -22 33.5 -43t11.5 -38q0 -39 -31.5 -80
t-86.5 -73q-59 -34 -93 -72.5t-34 -70.5q0 -17 19.5 -29t46.5 -12q29 0 63 11.5t70 34.5v5q-18 3 -29.5 17.5t-11.5 33.5q0 23 16.5 39.5t39.5 16.5q25 0 43 -19.5t18 -46.5q0 -57 -53.5 -97.5t-129.5 -40.5q-40 0 -89 40t-49 72q0 29 24.5 60.5t67.5 57.5q-44 8 -73 38
t-29 69q0 31 22 65t61 62h-131z" />
    </font>
</defs>
</svg>
